<mxfile host="app.diagrams.net" modified="2022-11-16T22:15:56.010Z" agent="5.0 (Windows NT 10.0; Win64; x64) AppleWebKit/537.36 (KHTML, like Gecko) Chrome/107.0.0.0 Safari/537.36 Edg/107.0.1418.42" etag="8x-iopyv01BxXmcl-S8_" version="20.5.3" type="github">
  <diagram id="lgHMeAkOrjEj5TXY7SRC" name="Page-1">
    <mxGraphModel dx="595" dy="344" grid="1" gridSize="10" guides="1" tooltips="1" connect="1" arrows="1" fold="1" page="1" pageScale="1" pageWidth="827" pageHeight="1169" math="0" shadow="0">
      <root>
        <mxCell id="0" />
        <mxCell id="1" parent="0" />
        <mxCell id="DzpKq4usoAJbAamXj3DQ-1" value="" style="shape=image;verticalLabelPosition=bottom;labelBackgroundColor=default;verticalAlign=top;aspect=fixed;imageAspect=0;image=data:image/png,iVBORw0KGgoAAAANSUhEUgAAA7IAAAFnCAYAAACb7HVBAAAAAXNSR0IArs4c6QAAAARnQU1BAACxjwv8YQUAAAAJcEhZcwAAFxEAABcRAcom8z8AAP+lSURBVHhe7J0FWBVLH4f97nfju32v11ZAxO7u7m6xu7u7u7sLu1AJFaW74RTn0G0RIt0Cv29mOSAqKnoVPPB/H38Pnt3ZnZk9cNiXmd0tRRAEQRAEQRAEQRCqyE4WUCgUCoVCoVAoFAqF8g3nBksu+RWgUCgUCoVCoVAoFArlW0tVFgFhAUEQBEEQBEEQBEF8izBnDVa6K4ksQRAEQRAEQRAE8e3DnJVEliAIgiAIgiAIglAdmLOSyBIEQRAEQRAEQRCqA3NWElmCIAiCIAiCIAhCdWDOSiJLEET+ZGRkIC0tHampaRRKoYd/72VmZiq/GwmCIAiCIF7DnJVEliCId4mIiMD69evRtHEjtGndCq0plMJKq1bC91ztWjWxd+8e5XckQRAEQRDEa5izksgSBPEuISGhmDVzBkYO6Qb963tw8+J2CqXQ8ujuYfTq2gyjR49VfkcSBEEQBEG8hjkriSxBEO8SGvoYC+bPw5a1s4AMBZDgTqEUThLFwvfcgpnDMHIUiSxBEARBEO/CnJVEliCId+EiO3/eXGxeMxPI8gKSmFxwwaBQvnaSpcArOeZOG4JRo8cpvyMJgiAIgiBew5yVRJYgiHfJEdlNq2e8HpGNp1AKIVxm0zxIZAmCIAiCeC/MWUlkCYJ4FxJZSpGFRJYgCIIgiI/AnJVEliCIdyGRpRRZSGQJgiAIgvgIzFlJZAmCeBcSWUqRhUSWIAiCIIiPwJyVRJYgiHchkaUUWUhkCYIgCIL4CMxZSWQJgngXEllKkYVEliAIgiCIj8CclUSWIIh3IZGlFFlIZAmCIAiC+AjMWUlkCYJ4FxJZSpGFRJYgCIIgiI/AnJVEliCIdyGRpRRZSGQJgiAIgvgIzFlJZAmCeBcSWUqRhUSWIAiCIIiPwJyVRJYgiHchkaUUWUhkCYIgCIL4CMxZSWQJgngXEllKkYVEliAIgiCIj8CclUSWIIh3IZGlFFlIZAmCIAiC+AjMWUlkCYJ4FxJZSpGFRJYgCIIgiI/AnJVEliCIdyGRpRRZSGQJgiAIgvgIzFlJZAmCeBcSWUqRhUSWIAiCIIiPwJyVRJYgiHchkaUUWUhkCYIgCIL4CMxZSWQJgngXEllKkYVEliAIgiCIj8CclUSWIIh3IZGlFFlIZAmCIAiC+AjMWUlkCYJ4FxJZSpGFRJYgCIIgiI/AnJVEliCIdyGRpRRZSGQJgiAIgvgIzFlJZAmCeBcSWUqRhUSWIAiCIIiPwJyVRJYgiHchkaUUWUhkCYIgCIL4CMxZSWQJgngXEllKkYVEliAIgiCIj8CclUSWIIh3IZGlFFlIZAmCIAiC+AjMWUlkCYJ4FxJZSpGFRJYgCIIgiI/AnJVEliCIdyGRpRRZSGQJgiAIgvgIzFlJZAmCeBcSWUqRhUSWIAiCIIiPwJyVRJYgiHchkaUUWUhkCYIgCIL4CMxZSWQJgngXEllKkYVEliAIgiCIj8CclUSWIIh3IZGlFFlIZAmCIAiC+AjMWUlkCYJ4FxJZSpGFRJYgCIIgiI/AnJVEliCIdyGRpRRZSGQJgiAIgvgIzFlJZAmCeBcSWUqRhUSWIAiCIIiPwJyVRJYgiHchkaUUWUhkCYIgCIL4CMxZSWQJgngXEllKkYVEliAIgiCIj8CclUSWIIh3IZGlFFlIZAmCIAiC+AjMWUlkCYJ4lyIV2UQpkOnFWuH9blLZuni3d7f5YJgYpXsAryRAXH7rv2RETMI8gRRWV6Ecs8LsWyGFRJYgCIIgiI/AnJVEliCIdykykU1gIvjCEn7u1+Fsdg42D0/D+uEZFvbVRAeBwQ5MZnl7CiizCUyK4uwRrngIbw9rvEpi+8+v3JcIb3ucIyIlF+Hta4XUWPb6ax433rdYW4S6G0DkaoH0JPY6v3KqFhJZgiAIgiA+AnNWElmCKGlERUXh2bNnylf5UzQiy8QvSQpItqB9rUr4o3xl1K5bHfXqVEM99rWu2p/oPmMuLLzcmLQVcMQzmbX9xWXsHDUaTfsfRCTk+Zf7EmEClvXyIUzWt8ZKnUt4Hsn68jXFOYn1JeoWziyZj1HzziI60yP/cqoWElmCIAiCID4Cc1YSWYIoady/fx9Tp07F3bt33yu0RSeyTFAlm9CyakdMPXQVsameTGzYuhQFskTrMaLW92g3ZTUUkf5sWZ7t0pjUZbKyPK+Y0CUqBVIQ2SvYxUV2wGFEw+/Ncm+P7Cay+tOV63l431OUI518BDQtz+uc5CxPZl/5qCwfMeb/z1uGtyMjz36FfeSpO4W1n0+bzj3ObF0Sa186W57M9hnHXiez16nsNZM8YR9psuz6+Nc05dRiHj41+1Weul6xbXL2y9uawvfDyvA6c8pksH3wY8bryFnG95nTvsIMiSxBEARBEB+BOSuJLEGUNGJjYzFp0iThZ71bt24wMjJCWFiYcm02RSuym9G6WhfMOHoDia98mHCxZVzqYI6HPauhb8+peBjIhY6V59eIsq/JgffhaX8VIturkEiN8TKWiVkqW5cjsmMmoN2QgwiKMmFlrkBkfwN+XiZIS2TlcupP5iLphGiP6xDZsX3ZXYPERQ+B4WwdF89oO0T6sNfPHF9vI0wndkFisD6ePnbAq1j+//sIf8r/z9bliG3kPfi6XBPax+sOD3Nl++QiyvfhjuSQB3gebIGkaL4NXyZGRrgxQn2NEPHcRZC71KfGiH9qgii/R1Cw9nnKHyEl2gWxgeZ4EmCPDC6iXFJjWTslyrpYH7xkD5CayJbz9bGOiH9ihtAQe1anAcSsjNj+JrzllniVzNrz9D6kvO9smVegA7L4NoXy3udJHpEdPWZ89jckQRAEQRBEHth5LIksQZREDAwMUK5cOeHn/ccff0TXrl3x4MEDhIeHC+sjIiKxYP68IhTZrph98g5eIQjIYvVnMqHNuodrAxph+OilsH3MRJaLKpPBpMAzOD6yNeprVEXNmhqo2qUP5t+6g/B4ti8ukS+uYd/E0ejQcRo2bhvCylRDTfW/Ub91G5y3lyGTCzEfiU1xRqj1WizoURE1a2iwqKFqDS3UW3NUEOPMoAs4PLYK1FecQlQMbysXZSkyn+nignZVzDp3E5Fhj3BvdhWMP3AKoRFMDNMkSH9mBOO1ddGsbhVWN2sjq3voqq3wCJUhi8tshiucNjXC+KXzYO6n7NerALw06ItOA1piwQ1j9o54w/vsQOyc0RyzRo5E6+pV0XfBcgQFGuLQ+LFoPfQIXsALWUkO8Lo/H9M6Vs6uq3olNG7VCvsf2CIxxQt4dgf62/ui5pi52L+lJ2rVVEd19XLQrDgQpx9chN7+gWhQSx01q1aGZv+lcA1yRObbo8tfO3lEduSoscL3Y1ZWVokOQRAEQRBvws5hSWQJoriRmpqK+Ph4xMTEvDePHz/OHZXNCRfazp07w9TUFFKpDLNnzcTmNTOLQGS3oE31Nhi+ejdcJIZQuOlCIWZfdUahybAJ2PHQlPXSg5Vl7Yq+jCNDaqJd78kw9BQhJdkdATfHonf7ehh75BpSMwOYyN7GielN8OPvjTD13G1WxhuJsi1Y06UMmnTeCr90LsoSvLRci+ndqqLzGVYmToyMdBc8vzcf2jWrYNpNc1aXKZx39oRapekwD3VlB5pJaJILXtouw0jNAThvbYWU2Ie4O608Ru89iccv+JTeh7g+vQZqlB+G0xamrG4xUiR7MKDJn+i1ehcConxZX1zhuL4eRi+aDdO8IqvXC237NMPca9kiG3x5ENr9/Ss6zNgPv2gJUhOkyIq8jG3ao9Bs4GHEwQcvDGZCu2ddDNU1RVaqFClh+niwfQJa914KN15XhCEeLKmNUn9VQ/uTuqw9Loh23Y6l/yuFH35RQ5NDlxEf54xEzwPYVr08Rh65geiYr3yt79tRiuzSeaPRrHlL3L59Gzo6OiUy58+fx6VLl2BiYsJ+JqUICAjAkydPhJ9vgiAIgijJsHNXElmCUHUyMjIQGBgIKysr3Lx5EydPnsTOnTuxYcMGbNy4Md/s2rULw4cPx08//ZQrsjnhy1q1ao3hw4Zi2/o5hSyyTJqk29CpXmX8UbY8qmmpo7qWGgv7qvEP/qjbHxsM7iOZX9/6ygfhN/qgW982WGloxY5EoDImMJjSGIM7DoXZ8ydAzHXsHdcbNboug0ecV/Y1sBmWsNvcA/1qtoSurz/blxW8Ly3Hoh6L4BTDhC/NDYn+pvA334ktk8uixt5rQLIros2WYGyV8tjwwBKZfIQz6hGMl5ZD1bFrIXnGZc8Id6ZXwrgDp/H0hQxZjitRv0JnLL2gh6R0Vl64nlWBgPMtUKvXQBwyt0QWJHDZ2BDjlsyFWV6R1e+DDv1bYP51pcie7Yu2A9thsbEde83ekzS2vxeXsWPUGLQccgwJkCH4xAiMUauBhbdNEZvA9iU8skiCrJfOyODTrMPv4u7CViinNR73gyRAlh9bdhs3ppZGuWrzYRXG3gcmxLxfRmvLosraAwgNY/3i1+nm+559hShFdv2Kqfj1t99QrVq1Eh1NTU2oq6sLadiwIfr06YNNmzbBwcEBcXFx7P0iCIIgiJIHO2clkSUIVSYpKQmXL19GvXr1ULlyZdSvXx8DBw7E8uXLsWfPHuzbtw979+59J8eOHcPIkSOFUdicn3ueH374ATVr1sT4CRMwccJ4bFk7uwhGZDejtVZHTNp9jsmgK+LDbFgcEP/0Mo73ropfWozACRdn1ntbWI5rgj6t+uOY2UMEehvCX3ofAYE3cWdiU/Ss3RWn5ExK469h95ixaDH4MKK4APLrYtMs4bitNwbVboabnkz2Uvgdh+0Q7X0fQYH6cL+xEJP/YiKtWQEVq5ZH9b1XkZUqR1boRRwfWxlVVp1GDBOurMAjWFupPMYduYkYLo4x93Gbi+zBM3gaKUW83ihoqY3HSWsL1l5WL+8jv6GSxxa0q9kRE/ZeQSLkEG3+uMj6nuqNadP64byYbZ/GyijvyJwtsvxGViHIlO/B3iGl8U/pGmi3bC98fIwQEmDBhEeaLfBMWu8s6AKNeuvhwadT85tkhT+Axf7eqDp1D0Kj2fvAb1wVYQyj9WVQadwaSJ7w63lZffm+Z18hSpGdN30oho8YhYSEhBIdPoPC19dX+EPVrVu3cPToUUycOFH4mV+wYAGcnfnPAkEQBEGULNh5K4ksQagqL1++xObNm1GrVi3MnDkTdnZ2wqN1EhMThenF6enp783z588xZsyYXIHlQstHf5YuXSpMOw4JCS3ymz3NPHYTyZl8dJTfYZdJYJYfIm93RdO/G2PG/nvsCNjBflI7tPjfH6hcVR1a1apAS5Olmhqqs68ttKdAz5tJapxSZAcdzn78DhfZVAvYb+2FgbVb4JYXv/5Whhj3PVjT9R+oVa2CatXrofPqUwiWncKRReVRc+8lpCXw6cw2CLg6C1pV58M22AZhD6ZDrUp/nLK1Riafovzy3muRjZAi9q42agxcgDtiG3YcWT9yRp09d6GDVjdMZCKbpBTZCW9dIxtt0AcdB7wpsjOn9sMFUf4iG8klncl2eqAOzs5tgvKVK7N2lkf5WnXR6eh1JKWyYxGRI7IbIBPutpwtspYH+qHqjD0IiXJTiuwjPFhbBpXHFJ3I8mtkx4ydIHyvE9nw62X5DAz+M25oaIi+ffsK4TJL19ISBEEQJQl2/koiSxCqyKtXrwR55Tdp0tfXR0pKinJNweDX3f3yyy/CCGzVqlWxbNky+Pn5IS0tTVj/7NnzIhbZzph++Brich6/w9enMal1mo1uWj0wdc9d1koH2I5rhF7th0LHxR4vwyzxItgcUaEWCPe+j8c+JkiI59N/ryhF9lD+IusbyPpnhEebhqFKrbEwkFvjxWMbxKfIkeV/EjuGlEONvZeRxkc1M8VI9NiLrVqa2KF7Dforq0CDTyvmspfO9huVR2QjpUjQH41qFcfiuBUfkWUCKozIsjbI1qNVjTFYecEQWZDCbUNDjFwyFyY5IpsZiBj9vujQ702RncFEVue9Isu25aO9fNp1tB1intvjhZxJ7Yzq+LVuY2wwZ5IadRd3lSOy0jwia7G/L6pO343gt0V2bNGKLD1+58PwP2YdP35cuPu4mxt77wiCIAiihMCclUSWIFSRO3fuoGfPnrC0tPzkkZjIyEiMGzcOf/zxhzAFmQssH8HNy7fw+J1Zx28hBf7ZgsjEBpneCNJph8a9u2LLfUvWSjn8j3VHi4HdscHCnr1mZRHAyj/AndltMWH4VLhEPWFS92GRve0fwg7KdVya1gEVG65je+D78WMRIcpkAUb/UQbVd15CmvCoH3Ysnt/Dg40VUYGJ1uwy5TCFtTMmlkluqhRZOSKbc42s6zo0rdIec1mZOH5NK3+mK+uPx9EGqNF3OE7b2rJ6pJBsaQDNoSNwWpARPkLsBvHetqjVvBUW3y6YyL5gopwRbo3YEBuk8+t3+X4QhAy3TVgyrjw6XjRjIqsHvYVdSWSLEXwGRevWrTF27FgkJycrlxIEQRBE8YY5K4ksQaga/LrYQYMGYeHChYiOjlYuLTg2NjY4ePAg5HL5OwKbQ5GKrHgjmqu3wegtJxDwxA4RwWaICLVGhOtuDG9THp3nr4VXhC8TRw9kvryJ06MbolOPsbjqZIuICBtIzg5Dl7YNMOHETaRmMCnlsqc9Co37HUREHpG129QdfbWa4IYPH5E1gem2HqhQoxFOWrG6njkgUn4Ol2f/jb9++gsVJ+7DszjWPuHZrw54pj8eP//3e/zwv27QcbJDBn8Ga7KEiawhbk0ph1F7TyKU37U4yRQGC+uhdpl+2G+oz9rH+mOzBb2alMXgTfsR8pLJZoY3nt3pilaVG2PG7it4HuGGCLtNmNnpD/xQsRNW3n3E3hFv+JzogSkTe+Oce16RvYStw0eiyYAjiIMEITrTsLhFJ+wyMkXEE96P+7DZNxTazVrggpzV9eI2bs/tiIo110KSK7L3Yba3FypP2YmgXJF9iHur/kTZkasgJpH9psnMzBTublylShXhjuMEQRAEURJgzkoiSxCqxrVr14S7l/JHcnzOdXF8GvLHpiIXnchKAY+d6NOiGspVrIBq1dSyr3vVZF/Vy2LY8g2QPmHtyRGrFA+kP7+CCxM7oKE6K1OtCjQadcHc8zcQx0QXKVz2ruHglMnoNPIoXmTliKwlnHYPxMimHXDXxxtIlyM95DquL2+KimrZ19nWbdMOmy4fw51VvVGn2TqIopnkMVlFmjtSvQ9ieblyqDJsPTzCuOix5UzCs6LuQ3+eFqYdOYsn/DmyqRJkRlnBYVdjtKpXSdivllobLDt+Ec+iWV/5s2gTWJlkVmZHN3StWZH1WR1aY+bhxMnZmDxzIpbdNAKyvOB/fhAWzBmKK5K8InsV+yZNQufRxxDFyryKN4XsyGSMY1Ij1FWtEmq1aout+mZIT2P9jLwLg+W9UbfFZnjkiGyEEayPDEG9efsQmiuyxjDerIZaUzdA9pRE9luHz7IYPXo0pkyZQqOyBEEQRImAOSuJLEGoGlOnThVOWvnzJL8WRSOyysQ44GWwCZ543Uew/N7rKB4gOsKFCRwfFWXCJZRn0pMiQvozczxVZJcL8bVAfDQXPS5fTI75c1Gf2CDqsSMyE9hrvh3bPi3MCtHBlkiJYcu41CWKkBlhgdCc/fgYI+6lCFkvbBARYIe0OGX7+LGIc0JyoCkinjkiI2cZ/xrnipRnZogJd0KGUJ6P4jLxjDZDmHdOP0yRyNvH5VfoA0syk1omvJE+vM+GCA6yRcpLRySE2SI2kvWZtftVhBVin1ojOZq3V7lv1rcE3rcnyr7xfUbb46Wnsi6Wx/7mSIpn+2f9Q5wLax+rJ9ieSS/bB9+GtTkt3BqRvC+8zcplqWGsf0/tkZ7T78IKiewnw6+Z37Fjh3C9O5dagiAIgijuMGclkSUIVYPfpZTfnOlrPkOySEVWGClk8pcufzeCnOZIbE64wDG5zSnDn9WaxJa9sZ5fw8q3zbOMyyMvm9s3vizvflgb+H74srQ80snD25jOR3zfWi7UxbfLWxdLUt7+vN2+nDJ56k7NHuEV2p1Tlo9W89dvvBe8Pr48T318u9y6WHgfc26YldPHN/rDlgn7fvv4KPtXmO89D4nsZ3Hjxg1UqlRJeKY0QRAEQRR3mLOSyBKEqtGiRQvh+bBf83EbRSqylJIdEtnPgj+CR11dHRKJRLmEIAiCIIovzFlJZAlClYiNjUW9evWER+58TUhkKUUWEtnPIjg4GE2aNBGeJ00QBEEQxR3mrCSyBKFKBAQEoFOnTrAVHtvy9SCRpRRZSGQ/i+fPn2PgwIHCnYu/5mwNgiAIgvgWYM5KIksQqgSfNjhkyBC4uroql3wdSGQpRRYS2c+Ci+ywYcM++27mBEEQBKFKMGclkSUIVUIkEgknq25ubsolXwcSWUqRhUT2s+AiO3ToUBJZgiAIokTAnJVEliBUCbFYLJyskshSim1IZD8LElmCIAiiJMGclUSWIFQJEllKsQ+J7GdBIksQBEGUJJizksgShCpBIksp9iGR/SxIZAmCIIiSBHNWElmCUCVIZCnFPiSynwWJLEEQBFGSYM5KIksQqgSJLKXYh0T2syCRJQiCIEoSzFlJZAlClSCRpRT7kMh+FiSyBEEQREmCOSuJLEGoEiSylGIfEtnPgkSWIAiCKEkwZyWRJQhVgkSWUuxDIvtZkMgSBEEQJQnmrCSyBKFKkMhSin1IZD8LElmCIAiiJMGclUSWIFQJEllKsQ+J7GdBIksQBEGUJJizksgShCpBIksp9iGR/SxIZAmCIIiSBHNWElmCUCVIZCnFPiSynwWJLEEQBFGSYM5KIksQqgSJLKXYh0T2syCRJQiCIEoSzFlJZAlClSCRpRT7kMh+FiSyBEEQREmCOSuJLEGoEiSylGIfEtnPgkSWIAiCKEkwZyWRJQhVgkSWUuxDIvtZkMgSBEEQJQnmrCSyBKFKkMhSin1IZD8LElmCIAiiJMGclUSWIFQJEllKsQ+J7GdBIksQBEGUJJizksgShCpBIksp9iGR/SxIZAmCIIiSBHNWElmCUCVIZCnFPiSynwWJLEEQBFGSYM5KIksQqgSJLKXYh0T2syCRJQiCIEoSzFlJZAlClSCRpRT7kMh+FiSyBEEQREmCOSuJLEGoEiSylGIfEtnPgkSWIAiCKEkwZyWRJQhVgkSWUuxDIvtZkMgSBEEQJQnmrCSyBKFKkMhSin1IZD8LElmCIAiiJMGclUSWIFQJEllKsQ+J7GdBIksQBEGUJJizksgShCpBIksp9iGR/SxIZAmCIIiSBHNWElmCUCVIZCnFPiSynwWJLEEQBFGSYM5KIksQqgSJLKXYh0T2syCRJQiCIEoSzFlJZAlClSCRpRT7kMh+FiSyBEEQREmCOSuJLEGoEiSylGIfEtnPgkSWIAiCKEkwZyWRJQhVorBFdsvaWeyVH5AuY3JBoRRCXinY95w3FswcRiL7CZDIEgRBECUJ5qwksgShShSmyC5cMA+rl0xExFMrhAUYI8yfQimEBJgi6qk1Jo3uBe2RY5TfkcTHIJElCIIgShLMWUlkCUKVKCyRDQ4Owfx5c9CvZ3usXDQRS+ePp1AKLetXTEPThjUwcxafEUAUBBJZgiAIoiTBnJVEliBUicIS2YiICJw7dxbLli7BsmVLWZZRKIWXpUsxf/48PHhwT/kdSXwMElmCIAiiJMGclUSWIFSJwhJZgiBUCxJZgiAIoiTBnJVEliBUCRJZgiDyg0SWIAiCKEkwZyWRJQhVgkSWIIj8IJElCIIgShLMWUlkCUKVIJElCCI/SGQJgiCIkgRzVhJZglAlSGQJgsgPEllCFaHvVYIgPhfmrCSyBKFKkMgSBJEfJLKEKpKRkYGUlBQKpUiSmppKn5cqDHNWElmCUCVIZAmCyA8SWUIV4SIbEhICHx8f+Pr6UiiFmrCwMGRmZiq/GwlVgzkriSxBqBIksgRB5AeJLKGKcJENDg6GSCQSfq+5u7tTKF89/HuNn0/xz00SWdWFOSuJLEGoEiSyBEHkB4ksoYqQyFKKIiSyxQPmrCSyBKFKkMgSBJEfJLKEKkIiSymKkMgWD5izksgShCpBIksQRH6QyBKqCIkspShCIls8YM5KIksQqgSJLEEQ+UEiS6giJLKUogiJbPGAOSuJLEGoEiSyBEHkB4ksoYqQyFKKIiSyxQPmrCSyBKFKkMgSBJEfJLKEKkIiSymKkMgWD5izksgShCpBIksQRH6QyBKqCIkspShCIls8YM5KIksQqgSJLEEQ+UEiS6giJLKUogiJbPGAOSuJLEGoEiSyBEHkB4ksoYqQyFKKIiSyxQPmrCSyBKFKkMgSBJEfJLKEKkIiSymKkMgWD5izksgShCpBIksQRH6QyBKqCIkspShCIls8YM5KIksQqgSJLEEQ+UEiS6giRS6yIjH7vSqBRJTPutyIhDLiD5YpQFhdEvY7XJS7H75fUZ7XBQ3bjh2v1+3h+2H9YMveLVsEeaef315IZIsHzFlJZAlClSCRJQgiP0hkCVWkyEWW1enq6gpXt3zW5cTNFS7OTnBxzWfdp8TVBU7OLrl18T678/9/qO58wgXRjX3NbTNvn4sznF2/kRHtt/r5LYZEtnjAnJVEliBUCRJZgiDyg0SWUEWKTmRFkHp6wOrKOowZ3h79jxjDUyaB6K0yEg8Z7O+fwMYJrTD7lCVc+Qjup440KrexOjMHbSaswxFDO3goZJDZnMfCOTtx6ro5xArpW3W/JxI5/MzOY/rWbZh61gz+Pr7wMDqKOXMmY+i2u5B4yiDOb7vCCB8lFktgr7MQHSasxt471pDJ3z6m30ZIZIsHzFlJZAlClSCRJQgiP0hkCVUlNDQUEgkTHkGE+FTfgic/SSlYRJB5yWHO5LJL28potP0BvD3elS7eJldHK5jeuwUjaxdhO6GdLCJhWnJO2Gu+zRt9UC5TxsXaCLr3TGDl6A6ZhwKP9rWDVhdtbLhqA4WXR25ZUe72yrB9Zu9DDA9vOcz2jUD93t0w5LQ1QthrMWufkdF9GJg5sG1zyr7dvnen+r7ux/vbLJTLs4/89vNm2PGyeYjbrJ8W9i7Cvvn2wtf8jlcRhUS2eMCclUSWIFQJ/sFb1CL76tUrxMbGIoYnJoZCKeTECt9/SUlJyu9IgkMi++nw7yH+vSR8nuX7vUb52omKioJMJoO1tTUsLS1hZWX1SXF2dhYkKT9Z+XCyRdbi3AL06qyFlruM8hVZHpFYCpnCC3Kpsp4cIcupVylrOcuy9/Fa4HL3I5XDS+EBKZN2idQDehtqoVLnwVh73RZyT5mwnbCf3H1k7/t1XUxkfWQw2NQLtTu3wchztghUSODO2ieXK+ApY2IvjGrntCdPW5Rtztu/XLHMaSOvN+/rnDJ8ee5r3h6+v9f7eTsiSXY/ZVyq3ZR94nXnqeeNeosgJLLFA+asJLIEoUrwD96iFlk/P1/07NEdtWvXQa1atSmUwk3t2mjXrh1u3ryh/I4kOCSynw7/PB0yZAj7LOPfW7UoRZCaNWtCU1MT6urqnxQNDQ307NkTurq6UCgU+crKh1MQkVVOLX5wClumdsQCHTuIHc1xbe8sdJqzD0e3jkS92lrQ0tJCvabTceS+HR4en4Zm9bKX1Rq9E7o2LpB5SJm0ucP63EJ0mboZJx+a4fr63mip9hN++PUPlK3SDQsPGsDGwxd+Ij3sGNEdDdn2fB9aWtUxdNFu3HcJgl+gDW4unYCu5X7HT7/+gj8r9cDkVffgZH8OixfMwMidehAzIZZ4eENhdxu7Z3dW7oO1jwnzRl13KJjsiplEy2wMcHzrDPReegxXDs1FdaFcTTRpOw9nLJioSsRMtqVwd7qHAxMboE717P3UqF0PK86ZwdHdAxJx3mPFohRU+4tL0W3qehzQs4OnvymODeyClWsP48jmCejTWAvV2H6qa6/AASMX+MmZiOfdRyGFRLZ4wJyVRJYgVIlvQWRdXFzRrEk9HNy5EOb3jsHM8ChMDY5QKF89Vg9P4dzR1ejXqwMO7D+g/I4kOCSynw4f0evWrRu2bt0q/N/U1JRSBDE3N4eFhUWBY2tri40bN6Jr1644c+YMvLy88pWVD6dgIiuVe8Dm7m7M61YGQw9ZQ+JkBp2FzVGqdFVozd6Kk+fP4OS+uehT6leU06iJ6jM24ODpMzh3bAmGVKwO7XVXYe4mh1wigvmBYSjXfQ6237GCk/lt7J2iiXKNO2Dc2jN4YOMKmZs+tvRvjIF9p2Dz8Wu4dOkyzm4Yjpa1W6H/kiuw9pTD1VQPhya3gkaTBuiy7CyMLaSQPtiFYUN7ocXSa5AFhsDN+ACW9K2C2k3GYOXJq7iqsx9rxnZEq4Z9sV7XFXI+umx7F/sn1UapsnXQYuVhnLugg+O7F2BAg/KoP/MUzMUyiOzvYufUJqg5fgH2Hz+LS2dP4NCigVCvOQbrr1rBhYnuG9cLCyIrgc3RUajUbTrWXrOGT7ARdjWugkp/1MXwpXtx6up13NwzB7VrVEKrqTtg4uoHD0mefRRSSGSLB8xZSWQJQpX4FkTW2dkVPbt1gMjuKnvlw+INZHpRKF8/CMRjr/uYM20UDh86zL8dCSUksp8On86qra0tfCVUC2NjY+H7/fTp019dZG3192FxXzWMOmoDiTMT2QXt8Ntf7THjsj28AoLhI3mE/QN+xv++64aZV60hDwyEv9wOZyaUReWp23HTWsL2LYbF4dHQ6LsAu+7awScwGMa7GkKjhza26rnAL9AP4msL0aRNL0w+cA+eIY8RHPQYT0KMsa1jXQzoMQ9XnYIQGOoLk90DUb9nJ4y74oLnIUFQGOzGqFED0X7VbbZfF1xa0h2dNGth0RkXePj6IyDQH7IHBzGzbVPU6H4MJj4+8HS4g33j2uCvipOxzdwVfgFs3x5WuLSiH36vOh6H2TL7R/sxvdzvaL/hHiS+QQjx94WnqxWuXNDFAysnuDJxfeN4KUXW9sQEaPWdg403bOAd9BB7mldD4xbjsMdQDN9Ath8/F5yYWgdVegzDmrtu7FgV/qgsiWzxgDkriSxBqBLfyohs9y7tYGdyDkgUAwkiIN6dQvn6eSWHt/ttTJ80nET2LUhkPx0usMOHD8ejR4+USwhVQV9fH4MHDy6UEdk3RdYE5+b3QNnKC3HOzh1iuRxSZ0tc3dgZFbpuwA0bN8jYMrGrIy6sqIJ/BizEaWMXKJisWeaKrC08vb1gsLk+1LoMxbprNpCztrhbP8BNIwtYirzx2Pk65ozqjroNa6PqXz+j4/BFuG4fBD9/Ge5t6Yu6Xdtj5FkbBPn5Q26oFNk1+giSG2DtkK7QbDIT10WBUEjchDsde3tYQmdJfzSv3BH7zP3hZaeL3XN6Q2PIUVjLpRBLZfAS2UBvxzSULjcE2x64w8XuLnb0+Q5/qdVGk+nHYezGyvj6Icjf+/X1wnmTr8gaYWcTDYyZuAN6rv7wlLBj6iOF3srWUOs1AHOvOSBAIX13X185JLLFA+asJLIEoUqQyFJKdEhk3wuJ7KdDIqu6FK3I9mQiuxznHFyZyHpAxkT25tYhqDBsC65bOkPmwUXWHucXV0a5HnNw/JEz5AUQWU/JIxyfPgwdGjdEQ60KqNx2KObu3YWFLTUxuP88XHH4uMgGS3WxZNAoaLbfg4c+ckh4P8QyeMptcX3tQHStUhObDAPgZctEdhET2UlHYcXOK7jIerpbQXfLJJSuOAzbDF0gkkrhYHQY67RroNSPpaFRqw7qN26OVhuuwtpVLEyXfuOYfkBkJ03azkTWj20jZsddhJtLW0K99yAsvOFIIkt8NsxZSWQJQpUgkaWU6JDIvhcS2U+HRFZ1KXqRXYqz9q9F9sbmAagwaBOuvS2yvebixEdFlr1mQmpzZjCatWiG3tM34MCRwzivZwm5ryX296yNQb1mF1Bk72DZoEFQa7UOd2WekPJrWAWRtcTV1ZPRu9pQHLH2h6cNE9kFTGTHH4FlfiJr4AR3qQdrtxck1ndx5sQRHNi9HcuHMKmtWAujdurB3k0GKb8zcc7x+oDITpi4DXddSGSJLwtzVhJZglAlSGQpJToksu+FRPbTIZFVXb68yD6ED59iy6/7zI24cET2uh28A2S4Nr8WyvYfgy1GcoQ/CYKPtx8eO13EyBbl0aDffNxyDH5TZM/ZIjivyK6+iwBfE+wd0x7N6g7EaftgeEndIZZ5wdvlDnaP74caNdfglsKXiewt7CqIyHp6wdPLG36sHn//AHhY3cDqEb/hn6m7cMdaBIU0z7N8SWSJQoY5K4ksQagSJLKUEh0S2fdCIvvpkMiqLl9MZM/OR88u1dHmoBWeBPkxefSGtzJeTOIUnvmLbJkCimzZD4is3voaqNB1BLboiRAU6g+DdfVQsVInzD5mD59noQh+6gqDuQOh+WMp/NN7Hs5b+CAg0AMGG3qgZpcOGHvFDWGhwfA03IWRXGRX3oQi2A9mJyejv9aPaDXqFMy8H7N+SWFycBo6Va6OXmuM4Mb6prB+v8j+XXE4dho5w8H8HDZ17o6FZywg9vJHYIAvFHaXsbDp7+ix+gIeOXnAI+/0YhJZopBhzkoiSxCqBIkspUSHRPa9kMh+OiSyqssXEVlvOcx1FqOPVil8r1YPLZo3Q9OmTXPTqd8InDL3hp3+HszrVhpD+ON3nI1xemZH/PLXApzKFVkLXFvXA7/3WosrFq9F9szcv/Brp+k4+jBbZC32D0WZrrOwTdcGCi8FXPRWoF+daqhSsxFm7r0JE6tb2DSgPupq1kGjVi3RslV3jJ24AvMH1UG5Tn0x/7ozgvy8IdPbjgGdtfCHVitMWX0dlvf2Y8TQnmi25Cqkfn6QMiE1ODwLg9rURbUmrdCqeX20aNYUMzdchpGTBB4yT8gtb2DbrM4oo30AFkqR9XK3xM31o/HTH/2x2dAFbq4PcWXNOAxRq4+mTZqjefOmaFS3CloNXoEbD10glkjzvWuxzdGRqNh1GtYIj995gK21yzDR3oTbLv7ZIustwvUFDfBP516Yfc0RgSSyxGfCnJVEliBUCRJZSokOiex7IZH9dEhkVZd/L7LuTMTEcLK6jxvHd2Hn5g1Yt27dG9m6+wAMbKVwtTOG/pVjuGHqDJGbIyz0LuHwUX2Yu7hBxCXQzRnWD67gyNUHsHbOFiSRmwss9I/iyKW7MHPgy0RwNrmB45f18NDWWahbJraH4alD2LpxPY7fMIKj3B+uxjo4tnMD1q9lbVi7Bxcf2MPe/AZOX7qAmxYukDF5VIgcWHtOYPumzTisYwQ7BzPcunkVOobWEElEEEm94C1zwaMbh7Bx3VqsXbceu4+eg4UkAJ78bsMi1mZnGzzUu4zjN03grJxGLXF3hs2DWzh09BqM7FibZUzSPWyht3ML20/2MVm/aRt0jJnAs3ZI8j5DVhk+JdvF7BZOXL6L+9bOkHo44OGZ47h1ywi2btlTt8USd1jrn8Oxy1ehZ+3K+pTPHZC/ckhkiwfMWUlkCUKVIJGllOiQyL4XEtlPh0RWdfkSIuvOfo+KJB7w9OHXf74bPx8fJptcVmWQe/pCITxyRgSp3Au+vvLsGym58X2JIJF5wtfTQyl3btnL5L7w9WLlxFycmORJFcJrGZNa/jvcTSSF3MdXqMtLzkc3mVx5eMNHuB6VxweeHhImg17wYX3kdwnO3k4ChacPW+8HbwWTQzGTW4WncLOq7PZkl/EQymTvy9fHW+hLdt/ZV7ZexvvBts8ZVXVjbRbLFPDz9WRl2TK+L95GP7/c/fA6vd65Kdab4f30Yf3k047d3PgILDt2ChnEvF28DNuvRO7NjoUn61P2sclvP18zJLLFA+asJLIEoUqQyFJKdEhk3wuJ7KdDIqu6fBGRpZTYkMgWD5izksgShCpBIksp0SGRfS8ksp8OiazqQiJL+TchkS0eMGclkSUIVYJEllKiQyL7XkhkPx0SWdWFRJbyb0IiWzxgzkoiSxCqBIkspUSHRPa9kMh+OiSyqguJLOXfhES2eMCclUSWIFQJEllKiQ6J7Hshkf10SGRVFxJZyr8JiWzxgDkriSxBqBIkspQSHRLZ90Ii++mQyKouxVtk3eAu4Xf+9YSnTMx+3+dX5q2wMmKZHHKFAlJ+d2DhzsBe8PTzgUfu3YopOSGRLR4wZyWRJQhVgkSWUqJDIvteSGQ/HRJZ1aU4iyx/JJDo3hEsWL8Du29aQio8mif/stkRQczK2Ohdw/VTp3HfRQGFlwsend6CnVMW4pIlk1tx4T+r9VsOiWzxgDkriSxBqBIkspQSHRLZ90Ii++mQyKouxVtkZRAZncLq7Qdw+I4VpB95bqu7WAYfsTH2TBuNbj3n4JKLL7y8XWF6YQ8OLFiD69ZySEhk3wiJbPGAOSuJLEGoEiSylBIdEtn3kiOypqamJLIFhERWdfm2RVYEqcIf/gGBCAzk8YFCKmbLs6f4iqSe8PMPhI9CCjGfBsyWuXEZ9QuAvzeTTndXuHn441loMIK8pHBz5WUk8PDyhb+wPx5feHsywXXlZf0QLr6LJQN6o1K7jXjkFwpviQgy3xAEhT9j/3eBq7sYMk9Wr68cMpknfJX7CfD3g4fkrfaLpJD7KOsJCECApwIKb9YfhQxiEWtr3rIqGhLZ4gFzVhJZglAlSGQpJToksu8lLCwMw4YNE6SMRLZgkMiqLt+syDIJlMm9YHNjPmaM14b2iBHQHr0eVy2YHHopIBOL4HBnH+bPmoo9103gwqRWyiXWzQg7V83E7K1ncN9RAQ8zHWzZfwwn9a0hkXMBdYbewXWYpj0cI0YMx8gxq7H3jA1kIX6Q2ejh9NrhaFhVHb9XaIJBi7bikpUra8MRHF+1Fbp2nvB0t4TuqbNYt00Xj+4dw1LerpFjMGPJeuix+qSi7BFbfp2th9gWulvHY7Q2KzNuCqaduo7rh5di+Tk9WDu7Q6Isq8ohkS0eMGclkSUIVYJEllKiQyL7XiIjIzFp0iRcuXIFr169Ui4lPgSJrOryTYqsSCL8jja9shjDGldFix79MWTEEAxq0xUtB03Fobt2TBS94KK3D8ObloJ6y/k4+9ADvk9lsFg1BKXLq6PFguMwFwVAfmUW6nYdhlEHHsLH3xmG+2ZgSqf26NlvFLS1R6Nvi/po0Gkk1hm4wNPJACdWDkY99Sr4rXxD9J27GVecmPiuHIDhZetjy6NQhLobYs+k3vj+1w4Ytngx5owYiUG9WqCe2o/oPksfllIJJDIZxK5muLJrGNp0b40Bg4exY9wLDTrXQwO1Uvhu4n48sBdBIeGjy/n0X4VCIls8YM5KIksQqgSJLKVEh0T2vcTGxmL58uXYvHkzUlJSlEuJD0Eiq7p8eyIrglgigZvlVaxsVwp12+6ArmsgQp+FIsj+Eoa3/A51Jm7BTWsZvHz84XJtDJr9oIHG8y7DwGwtxpRWR23tvbgt9kSAtzfcryxEywHjMOW4BR5LLmFU3epoM3wX7J8n42VYGLysjmDjxtlYc9YEYt9AhEkMsHLoAFTrtBEPfZ8jJMQZumu1MV6rNXaZBCPY/SEOz+6GH35vjOH7jOH9LByhXmY4PbsRtP7pj/1mEijk7rC4sB0dajRHvzMW8Al5glBfB1yf3wilS/0P/5t0FMaOIshJZIlvBOasJLIEoUqQyFJKdEhk30tSUhJ2796NyZMnIz4+XrmU+BAksqrLNyeyYgkkIieYHJ+GJn92xvb7Evg/eYrQICaRoY/hfLwLKtQbg/XXrCDxkkPhbopjoxrjx7rt0bbVL2jYYjL26jJJ9JVBIvWEKEdkj5kz4byF2S1bQb1WP8w5oQtrWRCePA3Ds8eP4ScXwU2iQKDDNSzo3wsabZfjlrsffAOdcfsNkTXEnmmjULH+StyReUEqlsJT7oQHB6ejR/kqWHHNAzInI5xY0AF/Nd0OA3cxa4cEUpkE7manMKl+Gfw19SCMHEhkiW8H5qwksgShSpDIUkp0SGTfC59OfPbsWXTs2JFGZAsIiazq8q2JrIiJocTNDnobe+PPP9qix9jJmD57BqZPn4EZM6ZhfPea+E+pQVh81hSuPh6QSDzhaX8CE2v+xs67q2Dcnrtw8vGDhzsTLNlrkZ185BG8n4hgdngDxtT/HT/9o472w2dhwYJF2Hn6OuxkbBuZvAAia8BEdiLUGu6AoSdrq1gGhcwe+nsmoGsFLazV9YSb1U1sHPcLKo7ZAyMnd9ZGLrNSuNndwaah5VB21kFhajGJLPGtwJyVRJYgVAkSWUqJDonsB7G3t0edOnWEr8THIZFVXb5NkWViuLkP/vm9Bhq174LuvXqge7du6NatO3oPGotJ4w/i6iMHuHmwsjJvSGy2YUa1X9h5tyYGbb0NO9YPuZjfcCmvyBrBw0sBz0A/ON7djZXjBqBfv55oqfULKqk3wuwj1nBS+CDYsSAiOwFVGmyFvoJElkS2eMCclUSWIFQJEllKiQ6J7AeJi4tDz5490bdvX2GqcUkmJCTko3dvJpFVXb5FkZW62+P+9uH4448ZOGTrheBnoQjmj+AJfgwv29M4dPk6jGxdmBzK4OVihnXD/0GZWo3QoYUGqraehK1XHSH3kkP6hsg+gIePF3y8veHn7w9fvwAEPwmF2GwfptUpg9atZ+CC2xM8df53IrvmFqvXwRAHZzXC3+124UHu1GIpRFYXMLtlGfw+ZT8e0NRi4huCOSuJLEGoEiSylBIdEtkPwqcXHzp0SPg9fvLkSeXSksm1a9dw8OBB9nnlolzyLiSyqss3d42sSAyp2A0Ot/ehe4Na6DLxHIxlAQh5HIJA1weY16MUyvZegNPG7vAO8IHT8dEoW1EDndbcgIPZKYxpUA11tbfglrMn/Hx84H5ZKbLHTOAnNcHRnYeZCJtDFsTkOOgJnoeaYc+gDujVYjouS5jIOl7CrJ7dUaXDBjz0e44nj12gu6bgIrv6uhgKDxcYn1iHRho9MOWGPXyCQxHi54K767qi6n9/hcbsMzBzEsODRJb4RmC/60hkCUKVIJGllOiQyH6UoKAg4TrZcuXK4eHDh8qlJQ/+WVmpUiXUr18fe/fuzfczk0RWdfnmRJZHJIVY4o4HRwahfdWG6Dt1IVasXYFlI1uhWtPOWHXODK5Sb9jprcfohn+i2sBV0LESwzfQE2aHhqCBZk20mHsE90U+UFyZjXrdh2PMYRMES/SxZtQwNOgwElNXrsOaNWuxanJftG48EuO3PIRrgDf83R9i57QBqFG1PcZvOokLDlbQXzUQI8o3wFbjEIS462H7OG38qbkBd5XXyHrK7HB3uzZa/1oOSy+7Q+yhgNjREEeXdkC9gcOxYNkqLF86DWP61EGDGn+g90ZdWDtLhWfh5tt/FQqJbPGAOSuJLEGoEiSylBIdEtkCoVAoMGjQINSrVw+7du2Cr6+vck3JYuHChfj++++F85oWLVpg//79wklsDnZ2diSyKso3KbIsIiaIUg8PGJ8YjL6dW6N1q1Zo3bYjtl6zgbuHDzykYtw/qo3BvcZj2yVLuMrlkIgk8JQ8xInpw9Bx0gacNJfA++FhzF61BTuum0Pq5YfHovvYtmgU2rD9teJpMwBzNl+Hrbc3ZKxeCfuZdzA8iNVDO6JtvylYfMcc1uc2Y+uEubhg7QMfd1Nc2rUNo6aeg4lMAjGrUyZxgsmlbVisPR7H7zG5Y8vkvkEI8rHFxQWdWF2t0aZ7Hyw8fhxbu5TF6G23YenC+kciS3wjsM92ElmCUCVIZCklOiSyBYZfIzpr1iyoqalBW1sbOjo6uH//PhwcHODNTn5fvHiBhISEYpvExEThhLVRo0bCeU1OmjVrJgitRCKBmZkZRo4cSSKrgnyrIpsdESRMWn18fYU/IvEomDyK3N2E9WKZN7x9vdkyce4ydyaRHl4+8PWSQyZioiX2gJdCDjkTX3f2+55LpsLTO3d/vr4+bL0U4pzt3ZhESzzg6cPWeXtCIRFBJFNA7u3F9se2dxdDyqTZx1sGMSvLt3Hjz76Vytk23oJgi13tYHz9OHbuvwt73+cIj4xC1ItQSAxWotdP9bDirDmcJDIm3jn9VN2QyBYP2Gc6iSxBqBIkspQSHRLZTyIjI0OYPrtixQp069YNPXr0wIgRIwTB3bBhA3bs2IGdO3cKX4tbeL/49cJNmjTBf/7zn1yRzUmNGjWE4zBkyBCYmpoqjxihKnzbIqt64SPJMldrXN+kjVqVqqPvnLXYuGUbtq5fgVm9+6JFn324ZufCxJfLd/77UKWQyBYP2Gc5iSxBqBIkspQSHRLZz4bf0Zh/bujp6eH48eNYs2YNFi1aVKyzdOlS1KxZE999912uwPLw6cYNGzYURKhXr14wNzdXHiVCVSCR/fIRSRSQuFri6qY2aNW0MRo3aoRGjVuibefduOsugdSDjyrnv62qhUS2eMA+z0lkCUKVIJGllOiQyBKfgL+/P2rXrp0rsD/99BMaN24sSC5f5+TkJEy7pqnFqgeJ7FcKv/uyh5dwTF+HTydW/eti84ZEtnjAPtdJZAlClSCRpZTokMgSn8DkyZOFc5offvhBuFaWC6yPj49yLWBjY0M3e1JRSGS/ZkQQMXF9nfzKqHZIZIsH7POdRJYgVAkSWUqJDoksUUD4aCsfjeWP31myZIlwg5y3ocfvqC4fFlk3iCRyyGT8jsBuwu9Ld7EUcrkCnjJ+86S8ZQs3vF1eCo+vcOff7D7KZB7wkDBRy7fM14wIErkXvOXZN4MqWP28zTJ4ynNuapVfma8TEtniAXNWElmCUCVIZCklOiSyRAE5ePCgcB1w3hHYtyGRVV0+JLIisRxudvdgZqYPKycp+70pgdjRHIaGetA1tmPyVBTTZLNHNp3NbuPMdQM8snVm7fqC7RCxPjpZwNT0Pu5buRXBnYWdYXnvCi4aPIK1k3vBpiKzNovsHkFX3xAGFo4QSwrvfSGRLR4wZyWRJQhVgkSWUqJDIksUkJcvXyr/935IZFWX94usCB5yBe5s6YnZM4fguGkQW+8NueEuaI/og5ZLr0Hs5QFxHqkplIjEgrja6CxC5ykbccTAFrIvePMkPhrqfHM71i6fgmXX3eEpKzwpFLHzErHIHIdGVcRvwxbh+CM3+LC+5Vc2b/hjiCTXF6N1v+EYttsQcu/Ce19IZIsHzFlJZAlClSCRpZTokMgSXxASWdXlfSLrJvFEoNdD7OxfB906TMBV12cI8PWBh+FujB7VD21X3IQ80B++3t7w9vaCp0L2pjwJz2OVMani61m8POGZn3AKz331gpdyP9k3RMpbRgyppxxSmQe8PL1YGQVk/NmuUjl82HIZH43NmUorlkEhlMmuUy6TsvqUz4dlyX4GrEJZF4+ClRFDlDsVVwwPPzfc3bIOa0YvwSU3L8g9PCBTsDplefriqYBCIhamIHsol3l5ekIqztlPTvhzcHmflGVYP3nb3y3jKZQRnpcrt8Gxcer4S3sJThrnEdkP9E0Q2RtL0X7gSGjvuSeIrIgJv4z1Nae8t5dCeMbtl552TCJbPGDOSiJLEKoEiSylRIdElviCfD2RzcKrhBcIZmLjZG8LW1tlHNzh8TxNWebjZKXG4LFnKKIS0pGRHAVvRRheJL1Srv36ZCW/wJOnPgiISVcuyUsa4sOfwdPnJVKUSwqTfEWW33HXzRGmegcxpbUGmjbogZU6JjB1ZWL0YA/GjBuGTisuwsLsFs6dOYtzOldw29AarlIuV2x7NxHEHkxIXazw8MJ5nD17FmdZmZsmzvDwlCqFl5WRyuAhcYTZpQs4x8uc1cGlq5Zw9pBCwgSV78vN1R4Wtx/B1tIYV69cZGVuwMjKCc52JtAzMoOVo2v2jZQkcshdzaF346JyX+ehb+4AkYcCUn59r7sEcrkINg/u4PK5M2z9GdbuOzAyc4VUwQSbC55ICm9fExybuwEz+h+DRaAHnMyMYHrvHqwszaDPtjl77jwuXNfDfWe2PxcLGJ5jdbFll2/ega37a5kXCdfZSuBodgkXeBnWpvOXrsLSxQNSJsHCcRLubCyF46PruHyeHcfzbN9G93BwfFWUHb00V2Tf1zcx7xuT52yRXYYOg0Zh5N578PD1go/MBWb3b+G8UJ7t+4oeHtq6C+KeV0T/bUhkiwfMWUlkCUKVIJGllOiQyBJfkK8nshl4ZrIXk//7Iypq1UXdutmpXacRGkw7CtuIgqhfJlL9bmC62nicsnqKONFxqP+9AkecIpgmFw5p0iOYtaA+et5+rlySh8wQPNq+AmoNzkOuXFSY5CuyTJz8bG9g6bhOKPvbT/j1lz9RqdskLL0jQojpQUwc3QdNhk/D5PHtULNGdaiVr4DaLSbjkLmEiSkfLZUyWTPFtfUT0OnvytCqXh2aWvVQf8QK6BjYw5XJFP8dLBFZ486RRej3dyVoVtNCNc1qUC8/HKt1TOEgYyLoIYKr/QWsqNQV0waPRrVG9aFZfQA2XDSDyYmJ0OwzD9t0rZkcKyBzt8PtrePQtJ4m1LVqoIZmBXQduQin77mw/vD2uMP5wWGs7NMadarWQPXqNaBRvhG6jN6J664i4aZRIhkTQOPDmLtuNgYcscbjJy7QXaWNMbXrYtL0RdDWrAEtjUr4R6MW6q88iMvbFmFU1erQqlqZtas2Zh+xhTPrl5iJKr9O1fr2YSzpUxqVWL+0qmmimnp5DFt7ASYOTPL59cZSERyNT2Fxf01Ur6oJLS0tVBo5GqO6lEP50atw2oSLLBNfd1vo5tO3M/d53yTsOOUV2fvw8pXB+dZBjGZ9rVKtOuurFtSqN0eXxYdwz0WcPYr9lpB+bkhkiwfMWUlkCUKVKDYimyBh53oKdjLk+TrJbF/5lS2sJLD6UzyA1Jx2sH4lsXamsuS8TpYymWJJyLPd10gcS4qM1cfrZu91HKs7lZ0uprNlCex1ftsUStixecXet6J6r0hkiXz43BPRrymywfobsEKjKc77ZArt40l5Yol9E2qj4bhT8EtWFn0vr0X2JBPZeF99jOh7EncUMcr1X58cke1194VySR64yO5gItvwPNgnQqHz3mtkxR7wEutjc9866Np+NM7aBMCTXyNrfBQz25XFT2o9MPGSNQL9PWF9aTkGtNRE/WlnYCf3gqe3Awy2TUGr3+qhw4F7kMu94W59GZuGM2GtMhdnHaSQS+1hdHg8GpWrjgZrLsPBnQmbixlOzdeC+u8jsF3fAWIvKUSO57Co7N8o/eck7DKwg7sie7TW6sgYqPdmInvbBgo/D1jvHYn6au0westt2DKx83bVxfpuNdCw3QwcuC9HiPQ65rWqjm4Dl+Ouewh8vXxhc2k2hoxk/TjwEFJPGWSeATA7PQPrF/XBAeNg+Ac7wXDzWDQp9SOq9lyH2yJ/eNndxq6JtfH9dz+jettluOzkDYWTAQ5P6w0NzVW45CqGh1wK+/tHMKFxOWg1WItLDiJ4SF1gfmoBqqv/juE7DWEvUUBidwvLelRGlf4rcMHMFTIm+Ho7WqDWb//Ff/qsg465G/y8pbDco416au3z9O2W0LcG7Wfi4D0RE1dfSHNE9qAZQp1PY0jTLmg09ABMfQLg4yWB8bFZ6KfdFxN1rOEr//h1twUNiWzxgDkriSxBqBKqL7KsbAoXIUeEud1kvxCvQsRjfwNhEWx9GhPJry2J+YVLbIwDXgbcg6evDTJ4n5gwZkQ54EWgHV7xdse7IvWxCeTspCU+hh3/r9nOJDEynlki4ZkNUrk8JroiKdAIET6mSIplclskx8gdWbF2iHS5hechDuyY8Pc+n3JfMySyxFtkZWUhJiYGgYGBiI+PVy4tGF9VZA02YlW1lrgUqFykJMr9NDZo1cBBx1SmqkqSHsODj6yJmCg9zTFcLrI3MVNjPE5YPkdiaiyCA6MQk5KKuIgARMQk4lXO0GxGEh77RSIiNjX7dcoTBHuLhamrkpCXSMgp9yoBYTFxePIsEP4eMvg9iRPakBL5hMkfr18CWcAThCtnEqdJj2Lu8qbodcMb4b58Gqw3Ah+nZa9kImu8cxWqNtZ5LbIZcQjmI5siJkXeYVC25qvwfpGVw1d2D9v61UW3DmOhYx8MH35t5qN9GNeOSdLAk7AM8BIkNdD1LjaM6YfyDebiqigICstzWDaoHap2OgzzQH/4+fqx/nrD8dYGTKhUGYMP2cDV6iY2jf0bZUfswgMX1k92HGVMUl3Mj2ORZhl0WXQR5u5MWpnILq1cBn0WnIOxqwIKJokSdmysjo5F1b7zseOOLby972BVPS10H7sL+uIghAT4wjcgBD4GK9BKvTcGLteDQnoR2g1aoV6vFdCxFjFpZWV8POEhY1LHzgP49bFyb1fc2L4aK2aswA1XP/gEOsFgrTaa/8lk/rApE0IvFnvcWj8MbcrUwvRzTkxaPeGtsIfBnnnoWWkI9hpLoRBZ4+aGsfi7LBPyey4Q8+ts+TRgZ3OcXFAVZbovxUVTe9jrLEblKgOw6JwZXOUK1hYZpKLb2NK4In7vuxynzUUIUOhiRd1q6D5uzzt9a6nWB4OW34RjSBDkSpEdddAcvjZ7MKhWOzToux133F0h9+TXMvNrZEXCOU9eEf23IZEtHjBnJZElCFVCtUWWlUuSICviHnwfrMHcJnVQp0ZV1KyhgZpVy2Dapr1wCRThFZO4QhekZHYq9vQODA6NQ9/t5xGfImfLzSC7uxiT5h5EWLyUtd0WwbdXomPHTXB+7vL1RiW5VKfbwmzjFOzduxu+8f7sqFvDekZrLO41GtbP2Zlxcj7bfdWw9471N+PFVVzp0gRHr91FdDw7Zkn5lf2KIZEl8oHfoXjgwIFYvnw5FAoFEhISlGs+zNcX2Ra44KdcpCQ51BTHJmtg4u3HTCKzkBH/FEZbR0KrVk3UrFkHNSfugklEsiCYaVxkq07EaeuniJPpoEmNbTjv7geLXS0wfJcupDHZhvrK6zCaNVqBTYaP2Ys4iK5qo1framx/NaE2ZCFOuIchhe8w0hQz1ixDu+GdMKRlC0zYaofwaAX0lw1EMy1efzWotR6B2frBgoSmy09h8ZJ6aDx/EbYMZes1m6JD/xNwiOPX6Ybmiqwne5WVGgn/KyswSJ3vpyYaNpqNI/ZxX01mPzQi6y0xwBZhRHYMztkGsvVMZO/twZjRA9F+xQ1I+N1xpQr4u9zFxrEDUKHBPFyX+cPh+loMbV8BNeYeht4dXdy8eRO39e7i8qGlGND8L1RZfQv2j05jUe9yqLHiCpzcJNlTeyVsf47sfZ1dFmX6rMBVWzeInM9jeZVymLX1NizdPSHj03b5iKwgsguw464d/Ex2orFaK3SdthM6d/Vx59YN3NC9iwenlqBhxWZoO+UUrINdcGPWUDT96yeUbjUYy4/dwT0DfRhb2UMk9WBy7AEvp5vYtmoVZqy6AXdPBTwDnHBn9XD0q9QM84Q7GMsg93OB4e6pmFilAbYYsPZIZVDI7KG/dyK6VdDCmptMWp2NcWZ+D5StsRqXnJjoSfkfQyTwEDvB/NgclC3XDyt0jKC7sx8q9VuJM8aOTOQlQhk+5fjWGi1UmMyvkRUj+OF2NGR96zZ91zt9a8D61m7qCZh5h8LzpnJEdt9DBPiyYzizH6r++hOqtRmILecfwkD/HkysnJlUK69j/kIhkS0eMGclkSUIVUKlRTaJyWCUOe4tU0ftGt1x5OEjxL50RdJLRyT5HMXWtpr4ofcU6Elt8SqVlc3dTsbOqJg08SmtPCnK6ba5+2b/T2Tl05Tr+fRbPi2XTxNOUraN182XCVOFc8qx9e+T0TRfJrbXcH7hP6jGTmqi0/i2b/WT75PXlZhnGU8iqyOdrUvMKc++8pHmnPansXUfEvVULyD8DCa37YIe848gMiuEHXVrWExpjvldtGEdyU5W+RiIsC9e/1vtypkinVtffqPcbJvkPGXSmbi/0T/2f94/PrWZT2nmZVLeJ+4F6N/b7yF/fz/njxUkskQ+8FHZ48eP47fffhPCnx/r6+uLxMREZYn8KQqRzXrhhvMbq0DrqBhZr2IQeHst6rc+B0fe1IwoWB9vgfrr7uNJcgaygnVfi6zkNGpV3oDTbpF46bgSDQdvw3WPOOF62YDz7dFo+XYYsI+GNKf16D1nE466RAn1eZ4bgYmrtuDu4wz2c2iLyV1qot6obRBHJyM1PQMBhmtw+sAG2PMZyxl+uDF3Job1Ppo9yhpwEUu6/oDKnafALDwJSQG3sGlabbRea4e0zGcw3bWaiewlBLD+hjmexIqGXXCVfXyxH24E6u9HsybbYRnz6qtc0/tZIjtmANqtvJ79+B0uss53sGFMf1RoOB83mMja627GmAbf46eylVFVXR1qamos6lDXqAqNhq3QYa8h7B6exMp+ldBv1z1BZPmdirnIihzMcHxhOZQeuArX84rsFl1Y5Cuy9vA33oUm1dXw2z8VoaahAXV1Xp+aUF9VzbaYvPEqzGX8zsLu0Ns1Gt1qV0IV1q6K//yCBt3G4qiRAh5efhDd3YjVa6Zi6WURvJm0KvKI7PxrbkxYX4vsJC6y+gpIc0R2zwR0rVAtW2QdH+HU8t6oOGA3DJzdhBFk4e7MIidYHF+E8mWGYsWF+zizgglr/6U4Z+qUK7JikRi669nyKVxkJQgx2oFGWnn6JhzLnL61w5RN12DpFQJFjsjuvQe5jxc8fa1wdcFIdKpQCWpVq6D8H5XQpNty6FjLWJvpGlniTZizksgShCqhsiLL5SrBEZGGs1BVqzd2GxohhQslFxoumOzrK5d1aN+4KmYcvoAXcexsiAsiHxmNMUeYlz78xHrwYycoL547M8Fi2wjXirIkszKxNojy4WXuws/LAlHPrRDz1BRRYS5C+zIirRD3zBpJUY6I9WdlxPrwVxgjMpJtLwgcS5wzksOs2TbOwtTiKMed2DT6N1QZsxrOHuZIinXDqxd2iAy2R3qcKzIirPHYj+0zmvcvT1+jHRDmbY34KNfs45MuQpq/EYIlrP2sD/5+tkjnQp2cz3HjxzLGEWHOG9G/YUu0ZnU7BbsiOcMGNjNaYVnf0TD3FeGZB+uDRB9BfhaIi2V15Mg0l+gkN6Q+fQR/ZX3BvqZIS2LHKKcMvz45WYqsCFME5LRJboSYaL6tsk2sf+nsmD0Pd0RioCECpKxcsB3SY9kxCjZDQqQLMvkxE0aP3+qfL+sfb0dO//j789Li9XvIjv3jUHu84n98+FSZzSOyRw4fUX5HEgT71k1KQosWLYRzmB9//BFlypTBypUrBaHl6/KjSEQ20hU669RQ/7QCSS+8YbRZHcP2mcEjIAhBQb6Q6G9D/3Kb8ehxLJKf3MXsHJGVnkU99Y04I3rJPi/tsLbpUOy4IUd8VipMVy3E6ftuiGL1Oq1rgflrd+K+RyDbXxACrPejw6hVWGj4HMi0xuT28zB4tSNyL9FNe4GIp74ICOT1m2CNtjaa9jkKwUe9T2DeeE0mcOwzVCgcBbdjazG26TZI4sJhvoeJbPOrCM0Mh+M19v8xR+Hgz/cTBIXdRWwYWBk7bGKQJmz7Zfm8EVkmsiveJ7IBcLy+GoM7V0Td9boQuTjCzs4Wdvb2sLOxhKmBIUydxHB6dArzev+DKosvwpkJnDAiK+UjssY4MrUsKs06iIesnNTpHJYxkZ35XpG1g5/pLjSt1BIDl5+HiasIzvwO13YOcLA1xwODRzC2cICrRAoPhQJyqTtcHB3h7O6EuwfGoP3fv6PVoO0w9HkOm+PTsG7+IBwy84eClc8rsvPeElk+Irv5HZHNHpH1cDHG2Xk9UVptGc47iSARRmRZ/WInmB2ehnJVFuDAPTPcPzAM5bsvx8lHjpDJpdkiK5FAd3V1VJikHJF9tAONWd8GrdDJ7hs7lnn7ZmLpCHe5z+trZAWR9YTCUw65xI0dCye4ysxwbflQNP1FC+2Hn4SpH2t3Hhn9NyGRLR6wz3sSWYJQJVRTZNn6ZAk7gdPDtbEVUXHBDvg8Z9vlvYkS30fSbcjsjRER7I4sPsrIZCgr1gGiox3QvXFFaGmpQ0u9DAYuWAW3YDmy+Mgsl7JUMYIMR2M8OwHR0tJAtbZDMHFuVwwZ1wwTzxiyFvvimf40rJzcHRuOr8OhKRqsXCVUqdoAvdafQnwKE6pUT+DJDVzbOhAtN5xDeJAOTmmXQ9k/v8MPf5ZHk45zYBdgBb+rC1CjDhPb5zaIeLgIDdT74aSNNTL4TaD4sUh0Q6L5QtSpNw/XXKxZ3TKkPT6DQ63qooFGFVavGjR6jMV5s4dIFLZ569ilsHZIdmDRIE38/r+f8fOfZdB25iq4MLl1n98Riwb2wPbFMzCO9VOranmUad4F02/fRwYfXeZSmeqBJM9TODilEaposuPF+tmiYwdcsLJDkvDHBBZWb0rgZdxe0Q4VNdSgVa0KatStiRknbiA6mq+XMfG0gufVEai5fDa2jqqKRnU0UHvHaYQ+voCLDTWw/ewtRMWzU900d6Q9OYPDreuhodA/dWh0H4vTJkbK/kmY8LrA62pvDGxdSVivVa0CmmlPhb6LA1L5sf8Umc0jsocOHhJOQEpKMjIycvPq1avcpKenC0lLS8tNamqqkJSUlNwkJyfnhosdDx+xzBs+JTdv+DWneRMXF/dGYmNj3wi/VvXtREdHvxE+DThvoqKi3siLFy/eSGRk5DuJiIh4I+Hh4cLXLVu24J9//hHOY3h++ukn4fXSpUuFKcdvX0NbFCKbFHgf+7U1MO9hFJKiRDgz6geU09BCDS0t9vNRHTVq1kH9+vNx2zcWiUF3MUczr8huwGl3JrLIgs/p1hh37A7kvqbYvEoHD7ngIhKGg5uiafkK0KxRg+2P7bdWbWhVn4att54JIjulwxIMW+uMbLV/hZeOuzG/lzo0q7P6+3ZGkyZDsXDISbBPFEBxFHOWNEFfg0ihNPuAQcCN09jQYD1cY8NgxkS2WosbCHz1GBZ7+qBUmaqoXjO7H9Vr1kTd5q2wwug50r/CkOyHRVYfm3rVQtcO43HJ+TH8fHw+IrJzcU0cConxQcwbURk1xx6GscwLfr7+8A+SwPz8Qoyq2BAzdZzhbnsXu6ZWQLneq3DJxl14RqqXtwwOhpsx8Z9KGMAk2EYiY2J79gMiy6+RtYOP2xXMa1wZfcbvgJ5LIPz9fOHn7wuXC7PRttZQTNhyD24+brB4ZAZzO3fIvX3g4xOAwCAzHBrQHINaTsQ1uSt0Zq7GwsGHYCyI3ueJ7OobbDuJHe7umIoK5Xph+QVbuCuyn5MrszfE1vGlUXHwJujaOMP56ipUr9gREw/ehxOTUf6sXbnrfWwfVhl/jliO06ZiBDpfwpxGldF3ws53+tam5jBM3GrIfo8HwiNHZPfdh0LuBPNH5rCwl0Dhy/rqH4RA6U1sGtQb3TuuwW0Ja8s7z7z9vJDIFg/Y5zyJLEGoEiorsqkipIcex071fzBq90VERDNZenuqLh9h5SN5fH9cuFJsYbGxBeqX7oR1OrcR+dIV0ZIDGNe+HNrNWgFFBD9D9EHk3REYMLQN5l28jeiXHnhmNgezW/yI//7aBBPP67Myvogwmo3BVb6HZm9tmHpLEf3iPiw390bHGo2x2cyBnXcyKXt8DRfX9UDNRccQn65AiuIYDkz9C1WnbIPvM1ekJ1jD59wMlK+8BDYvnJEScBAbqvyDkQevIzqWCRkfWY62gs2mytBYtBmSx/zYXMXxhlpQ014GM4UVoqMcITnXCi3Kd8G2G0ZIzZS/eQyUUp/ouRfazduj49Rt8H4px6ssa7gu7YqmP/+N3vP2sr6zPgRexPYxtaDWeQBMgnyFPmT6n8L+YU1Qr9tCWAez4xVpBOdDw9G3VlOs0bdhv7C9kRFwFie1f0GtphPZiYEdoiPM4HdnDrSrVcPkk4ZITlIAcbZQHO6EP0pXwIhDF/AkhJWLZccg4hwOq5fGeia9UUnerL1XcKIR69+IpTD24P1zguR8G7Qs3xGbrz5ARmYAwq52RPMhPbH9gRHi41wQHXoRx1gbZ89dBUWUP/s+yNv/j4SJrK/4LiaOGYjJU6bi4cOHMDQ0LBHhJ+537tyBrm72tXvXrl3DlStXcPHiRVy4cAHnzp3D6dOncfLkSRw7dgxHjhzBwYMHsW/fPuzZswc7d+7E9u3bsXXrVmzatAkbNmzA2rVrhWm4q1evFkYveVasWCGEX2+6bNkyQQJ5lixZgsWLF2PRokVCFi5ciPnz5+dm3rx5mDNnDubOnSt85Zk1a5aQmTNnYsaMGZg+fTqmTZsmZOrUqZgyZQomT54sZNKkSZg4cSImTJiA8ePHCxk3bhzGjh2LMWPGCBk9erSQkSNHCtHW1saIESMEGeVfBwwYgN9//z1XZPNGQ0MDt27deuOk9WuL7GqtVrgaqlwkkAzfWwvRX7MxzrIf/Vdxfni0vTqGH3TG0zj+x4VExEaGwtc3DHHpr5Dqf+v11GKlyJ5yU95B2Pcs2k85gK0bp2DpdStIIvjCdDhuaYUFW47A+km88MeKhJchCAwORXh8Bvu5NsbEDoswdI0Tsidd++LapIkYP+ggXPkfNuLcoTN1Asb2OZ79SB3PY5g7pw66XwpR3pgqAg6HFmN4i13wiM8zIpsVCedbG1Fr3EnIY7L/SJIQHYYQXz9EJGQU8tRiGbykRtg5pB46teiPXXdc4SRWQHF/N0aO6INWS6/lEdnbWDeyN0rXmcWE1xdePs4wPjoPvSrVRpNlZ2Bmbo0HN/ZhXrdyqN5gDa64SCH3cIbF+cXorK7Jfjfswd0HpjA2vIotEzWgpTELR4ydIfGSws3uNBaX/wvTNt16U2QPj0LlnnOwVdcGCh8F7M/NQdvqrdFv4THcNLWC9b3DmNWyGpr3XozT5l547HAe47sNQPvRW3DJ2AKmpiwXVmJA497oOe0GJC46mL58KfrtNYa/p5Qdg2yRvb1iMHqVbYjZV1+LrMHOSRhXvjY26r0WWb1dY9GxtDpWXHWHRC6Hi7kOlnRRh2bVqdh91wimxoa4vnkiNLSqYuYxYzhJPCFxvo9do2ujag9W5qoha9Mj3No1HnUqsZ+1vitwzswNfp4esD3LpLV6G6Fvt4S+HcruW58lOGMiZZLsC8n1xWjTbziG7zeDt80hjG83CF3HHMRtW1O2XzvoHZ6I3j0bo9+muxCxfeY87/bfhkS2eMA+20lkCUKVUEmRFUYB3di/TZhW8R+su6iPOH6joLevLRUkTvk1SYYsxQ50q9EOozaeQ2SKDztH8wAyffHkWlf2S74j1upbITPjLk7174spk7fDO5nJXDqfEGcN0equqPNzXYzRMWCvfRGpPxkDetfB0KtGyMjgtyYJQqZ4I5aNLItWGy6x0z+27ePruLKxN+ouOY6ETCZYT67g3Py/oTX3EKL4iG2yNXx1ZqGKxlJYh7M+xRrDdHVFVNReDdET9n68kiBdsh3T1cthmc4dxCd54MVtbdSuPBqHrfjobAALl289XGmtjn5T1sPlKesTk/w3jgMflX12EhPadEWP+YcRkRHEtrGG3ay2GNKoN86JmTQLt1fxxNMbo9C1d0OMM7AFslygOKSNMdVaY7c9ax/vE+snIq9DZ1JHVG+7C6GZzvC/PAED1TRx0MIJSGOnq1ziox/Cen03drIyH1bP2LaJNpAf7otKVabhjjcrx+tLlyAz8jyOViuHTadvITpRgWi9kahTeRQOWVixMjn908e1dqx/E9dB/FKGgL2NUWngAOwzs0FWFnsf+b6i7ZES7sBO5D/yvfN2mMgGSPUxclgv1KtXX5AZLjAlJVy63s6wYcPeCP98eDtDhgx5I1wAcpKzjO+Li+GoUaMEaeQSyaWSCyYXTi6fXEZnz54tSCqX1wULFghyyyWXSy8X4VWrVgmCvG7dOmzcuFGQZi7PXKK5TO/evVsQ6/379+PAgQM4dOgQjh49Ksj3iRMnBBHncsLFXEdHRxD1S5cu4erVq7h+/bog8VzmudTr6ekJQnPv3j3hjxp83+XKlcuVVx4utvXr1xeuoeWjxnn5qiKrvx6LK9TBXpsnePIkOwGu17B8eG00X6qHp/zcOSsOgfo70LjZARgE8dHlEDgdm4WWbU/B+kUSUkN1Ma3SGJywfII4ySnUqLAGx12Uo6PsZ+l8++r469fh2GMTnjvqmea0A/1mrcT2h57CKLXPzbHoPXU69jsxdU0zx7hW8zBghYNSZEOgO6M9BnWdggfPIxDrsQ+zW/6GJr2OQs73538K8zv/B5q9D8EpgvXB+QyWTaiDTrvckJH1FMbbl6NSXR32U5+FF27nsaVRGxyz4v0Ig7fRDkxr1QUX3JPAbw31pXmvyLJI5b6wujgb2i3KomLNgZhx0hJelscwbcpI9Fp/C2IuRFI5/Jz1sW2qNmq2W4prznJI+TReTyc8OLIEQ8tVRJUqaqhSqRYaNl+HSw5uEElEwrWgUpkLLHR3YUrFylCrUgVV1Kqh2vANuGrmyPYrgUQqgov9BaytWwMLd92FpbsiV2StT01Dw+HLsfeuDTwUHpBJxbA6PR8dm2qiMqtPrXIFNBu9GueNxUw0pcLvfMn9kxjbtxX7PGbt4alYF70nHsBdSTDkhruxdtNSrLrpBm+ZmPWfyba/E/Q3TcCI2p2wjC2XM5H18HXB/QNzMatuW+w0ZH1lIiuXOcDw4EwMqNkEm26yYydmbZd5wMXiFnZPqsT6xfrG6tOsNhTrrpjBUcTaIxKx4yCBu6M5zq6oj7palYUylXstxvwZtVF7/nqcM2Zt8ZCyOkSwPPVu33SEvvG6vCDRXYveoydj0mEjKHw94XxrJyb0qovKyrorV2iFfpNOw9ibHSvR6/f434ZEtnjAPuNJZAlClVBpkXXPFtm1Fw0Qn6/Isgg3ZZKweCDVbBqaqLFfoNcfsNMkVp6v55IXuB9DW3RAvzU6iPLegXH1emLUyitI4oLEy2QFIdF0Mob2q4nhJ7JF9sntCZg/jgse238aa8+rAGTItmLNxLJoxvbzjshmsNfBF3Bqzt+oNns/whKYcCa9FlnL5+z4pzkjwmAmNDV644QdE0nWx8cXB0G9wnhcc2OvM6xhPF8dZcbOw30XE0Q8sUB4oBkinhnBcAZbPmoqdD1cBUF84xjwa0pDj2Fc687oNucAnqZm37XYanorLOwxmkk0k1N+kyp2TMLvjEev/g0xQt+OHRsDnJvVG1WbTMIjHztEBJkgPMQGEQFXcWVhb5SuOR1uTy3guHcUKmmNhfFjdiz4fvgoeCrri9E8dvJWBfvNHYEYOyhOD4D6mM2QPHFh6/l7IkaGUmQ3n9HFy3hHWC7WQJkxc2HozPrH9p3Tv/uzNFB25GToekuR4bISwzr8g9//6IClBy/hcbgdYsLZPvl7nd/3wIfCRNbH/TamTRyGnTt2vjNttSQlv2m8H8rb04DzS95pw29PK3572nHeKck5U5VzkncaM0/eKc45055zkndKNE/OVOmc5J1GzZN3ijUPPwnl4eu4iOecx/CbPjVs2FAQHT4dmZd9m68psuHWxzH3nzKoUpVPtc1OtUat0f6UA6KFWwhnk5UcCYejE1CjFi+jiRo1JuKY3QukZmbhVZAeFjeajYv2zxEvv4w2DXbggijnma5Z8D3TBvWW7sGjkDwn4pmp8NEfj4Htqgp1alYehuVnJIhKZWYaa445fVdj/FY35dTiTMS4bMO8XuWhXk0Lw1cuwuGV87Gu70xY8otofXWwZmN7dFm7GbuGsfZptED3EdehSOX1PYHFwc1o1OEqvPmuMuLw5P52jFDn/agGrfqNMfuSB2LTvsZ47IdF1p3JpsjNEXbWZsIIprWjK3vtDHt7O9g6urD1vBwTMndXOLFlVjYOcFFuK+LC6c7KmprA2NgYxiZmsLBm2zNJzLlrrogLn8QNjmamMBHKmMLM1lWQWHGObLm5wNHaCg5OrnBjdeW0zc3ZHtZ2DnByVT5Ohu1L6u4EG0vlvoxNYGnP2siW8325sb7IWF0ONhbK9bw+c9g6sDax+vi1vE6OfH+sXco6RGw7V0d71n8bOLgol/NlTg6wZ8ucXLPbI3J3Y8vsYWtlDUdWTmgPq49f7+rmyI6dSXZ7TMxs4SLOfg6uUIb1R8ykX+RkAXPT7DaZWLF2OFmzY+0I55y2fKRvfD/urP22dvawZ8fJndUhFbuwvprl6asVbO3d2bHlkq5s4xcIiWzxgH3Wk8gShCqhkiKbO7X4hDC1eOR2HYS9zG9qMXv90g5xkU5IT2Qi+2gKmg6aisNmZuycjZXnZQTJO44Rzbqg74rzeCHfgpF1e2D46qvsxEwpuxlBSLaZAu0RTGSPvRbZxUxkD9hzaeMi649Xks1YNb4cWqy78Oki+9SZ1eOBjMc3cHqsOiacu4Wo50bQm14RFeftgIKPaqZa4N7sKqhYvjTU+PWjmq+jqfYP/pm8Aia+TOjSCi6yi3uOgnUYf/wOF1k5nuuOQ8/+jTDK0J4tM8TFJZ3wn59Ls5NStTz1VUbVKmpo1n0JpE9MYbt7MirXXQMxHw3l74FwnbEzIk0WY1zFithnohTZM0xkJ/Mp0qyvwh8X3hLZRAeYLlBHpfJ/s2PC6qn2Vv8mLmdCzUT9lRTx4l0Y2aEmypSviGqaFVC+2SBsM7iP9Azl+1rQ5LlG9tjRY/zbkSAE7OzsUKFCBeFGT1xgz58/L4xI5iewOXw9kWWKmJ7MPssi8Pzp6xHZp88jEJXfnY/SY5TlnuJZeNzrEcyMVCS8jEdKeiayXqUg+mUSUl69PunOZNtFp6SArX6TV7F4GfE0u85nsUjOqTMzDfExiYhLzHMn4awUJMSE4xkrGxHD6kpOQUpMLLj3IiMZicmxiElORDwfkX0agZexOZVlIC0pES+jU163NysV0c+UfQ2LZJ+jyuVfgQ+KLA+/EZPMAx4yLmB8mZjJJxel11KZI2QyGRPCPNvymxdJPdi2QmRs/WuJzQ0TPklumeyR1TfLiCCRyfLInzJM4mR5hZcnp605+2Iy/c6+pLLc9bxNUqEMk2Eunmyf/O7Jr8uzPnCJ5H3Ps1wQcNamvHVnl3tzWfZxed0efgzfXJ8dkYQdm5wyfCSav+Z/CMhb9mN94+v5tjnHiR/Xd/r61jH8AiGRLR4wZyWRJQhVQmVFlt/s6YU+ro1lEjNwKRxDWPvzjkQKI7E2sFjdEPUXr4J1kAxZNjPRRGMY1l83QmbeEdmgfRjSTBsTduvhVehmjKrTAyNXcZFVjshmBiHJbDKGDWAie/y1yC5iIrvPjgvmFxJZPtU5xgZeZ/qh9qSNsDffhLla5bH04h3EJXmx42KG+3MqocyE2TCwf4BQfyOEKO4j1NsIoTJ9BPlbISmGtfftmx19QGQX9RgFK+E5svmJrD7OzOwJtaYTYSS3ZPXcR4gnq9frAULk9xDsY4/UWBMmsqNQQWs8TN4YkXVEuNEKjKo0ANckTD7jbCDnIjtxE8TvE9l4R5gtqIwy42dBz+4BHgc8zNM/g+z+8Ts68ztPp4mR9NQcT/1NEeKwExM6quG3diNx3M1BEN03+v+h5BFZevwOkQMfueXTnxs1aoSzZ88KN3/6kMDm8DVFlvi6fFRkKZQPhES2eMCclUSWIFQJ1RRZFuGOuU54cW8Oqql3xzb9B68fv5MqEyQp2WkDWmn9gt6bjuJJLJM3723ootUeY7fqICrVh8kQK5fpi2c3u6N5ry5Ya2DNXuviWJ++mDplF3xTmHymMZmFLSRru6Per3Ux5kL2XYs/S2SDdHBi9p/QnHsIL1KYmOa5RlYQWd72ZBfEO2/FBM2eWDqlCypUmgRdkQ2yMrl4O0O0vzqqDp4MfU/+fvHrR3nuw6B/c8xevhvycCZ5KW8dPy6yIUcxpiUT2Xmvr5H9oMjq82tkLWHO+t23cTcYBLIy4Nejsm1f3sGdpYPRZegxhGU5wu/iePRXq46j1nzKMJPxV+yYxTyC7aae0NRcApsw/l7ZwINPLX6PyG46zUQ2QQ7PwzVZ/ybhroLJL7hw8/49gOGgFpi1ZAc8wj2QEWuPBP4oIuH6Zd4mHyQaTUeXIUMw/6YRe83akLf/HwqJLJEPfCq0iYkJQkJChCnGBYVEVnUhkaX8m5DIFg+Ys5LIEoQqobIiy8NHXV9awGhVVdSt3g377xvhZZQzEiKZ6NhtQO+mlfDToLkw93JCFh/tTLGBydpmqFu6CzZdMUBMvBgJnscxuVM5tJmxBNIwJptMisJ1h6HfkLZYdNUACfHeiLRZgPktfsaPVTtj/iN+EyJvhDLhmz+6BfbY5hFZ8SasGPMPmuReI3sNl9b3FO5aLIhsyEWcmVsaGlO2IyBCedfi8zNQofJiWHCR5XLHn8cafhcXB/2FP/73Hb6bth8BYayv/JrSJDHSw0/iYFMtVBu/Gta+dkiIc4NCpzWa/tkKq3X0kcjELN8R2ccnMLFNR3SaugO+MZ5Iz7SC1dTmmN9VG5Z5RfbWGHTrUx8j7pgL/UzzOoJdQ5qgSZ/lcHjKjleMCdyPjUDPqnUx/5o5XvG7FvudwrFh/0Ot5lNgqHBCQrQ1QgwXYKxWVYw7qofERFZ/jBWkJ/uh0riNEL0hsvyuxf9gw4mbwl2LX0WdxqFmrH/jVsHCO7t/nhfaotmfLbHirAFSXsngfbQn2s+ZgguOVqwu9n4nGMN8amsM7T0RtxRsv+msL3n7/6GQyBL5wE9EP+dklERWdSGRpfybkMgWD5izksgShCqh0iIr3I2YiV/kffhfn4MmDaqjenV11NBiqfIXxm7ZD1GwBBlMAAW5488gfWkD5/1t0bVRRVSvURU1NJpgwtr9UDwXISuJSVCiTBChQINRGNupImrU0ITWoPGYv7onxsxug6n3bFmLvfH4ziQsndgOB/jdfHNEVroVaydVQpsNF5UiewPXNvdDw+UnEJfKZC7ZBgG6U9GpdDnUb90Gui4W8L00H9WqL4eVILJsP4lMzuPs4XW8Myr88wtmXDZAUjzbVriJEesvqyvF/zh2N6uDBlXVWPs0oFG2JzZfuI0Y/riet68TFsLlzhkuB/uhW5Vy0Bw0B1eCTOCxqCOW9hkD6zwiG3Z7AvoOaoqxekxkXzH5T/NAguwYdo9vgCrVNFCjemUmrC2w+tp9xPNrYfn7lSxBkt95XF/SGhU02LGvXgUNGtTCjpuGeBnNygjPkbWEx9nB0Jqy5a1rZHVwvGYlbD2jfI7sK9a/gBPY04L1TyOnfz2w8bwuovl+2HuZEnEPhls6oXNdtp6/3zUqoWLXEdhnbIxU4fm3b/f/AyGRJb4gJLKqC4ks5d+ERLZ4wJyVRJYgVAnVFlkeVpZfMxlviwCRLmSON7LjrIuoSLaeT3XNKzZ8+nG0MUIlN7PLORkgUrhjMJMkXi7OFRkJ7P/Rloj0vA1PF5bHdnC/MBxzpnbBIQfWvnQJXoVb4EXgI8S8YNvw7RLEyGKSHBV4D09CHZHF+xHrhPjHJggNsUcmb2cik+UoWzxz14XC7S5eRrgiLcwKIZ7WSI5lbRDamd33jHBzBMsNEcvKZCmXCeFTql+JkOJpAG+n7L56uJohMZYt5yIcpyz3dpikZ0WY4qlYFx6Sh3jx0gXpIcZ44WfO6mbb8bpZ+16xep/5P0R4uKtyGRPrJDckhxhCLhzbm/CUGSE2jh1XQZp5u7mUSpH53AgKZZsUIn4naS7vfN+sHDuuac9NERxog9ScvvLEOSDW8x5ePnNCBu+nsn+pXm/2LyFv/5hc4/kjBLllr+dtUvhYsvpYOz7lGbI8JLLEF4REVnUhkaX8m5DIFg+Ys359keXfIDm3yadQimsK64NQ9UVWGS5cr5ik8me65oRLVH5lk5gI8es4hXJMtrggCcvZ/59dwbrRjdBn3mr4x4Sw1vkCMbewZ3QPtB66Ah4x3tmylMRkl0ty7uNelELHRVkQLv6afU1hZXL2L9TB2snr5VOAmTgKr/nNiQSJzZNktl0G21e+I6xsWTrbPrevfKSSLXufxPLwdcI+Wfl0Lu2sPG+/IPCsrTlleL/4s2Dz1sv7wUeUc+oT2q5clxtWnvf1vWXYej6iyqdIv9FXtm/+vr3xXrGyb/SP7fft/uX0JSe8T++0qQAhkSW+ICSyqguJLOXfhES2eMCc9euKLH/QeZMmTYRb4fOvFEpxTZ06dTB37lzld/7Xo9iI7JcIF7YkNwTrz8LQdpWhUb06ateuhtpatdF37HpY+Loh431yTFHNkMgSXxASWdWFRJbyb0IiWzxgzvp1RZaf2PNfEteuXcPdu3ehq6tLoRS78JOg6dOno2XLlsrv/K8Hiexb4dfIJtgjzOMGnM114GjGYn4NAX52EB6Pw0de89uOopohkSW+ICSyqguJLOXfhES2eMCc9euK7IIFC7BixQrEx8crlxBE8eTEiRNo06aN8tXXg0T27bDjIExT9gSyvJRh/0+TZK/LdxuKyoZElviCkMiqLiSylH8TEtniAXPWryuyCxcuxKJFi/Dy5UvlEoIonvBp9G3btlW++nqQyFJKdEhkiS8IiazqQiJL+TchkS0eMGctHJGNiopSLiGI4gmJbD7SQaF86ZDIEgWEy01qaqryVf6QyKouOSJ7+vRpeHp6Cr8TKZSCxtXVFSKRiERWxWHOSiJLEF8CEtl8pINC+dIhkSUKyL179zBy5EicO3fuvSeqJLKqi56envDe3bhxA+Hh4QgMDKRQCpyAgADha1hYGImsCsOclUSWIL4EJLL5SAeF8qVDIksUkBcvXqBx48YoU6YMunbtiosXLwqPSssLiazqwm8gOnr0aFhYWAjvKx99p1A+J1lZWcrvKkLVYM5KIksQXwIS2Xykg0L50iGRJT4BPhpboUIF4bymcuXK6NGjB3R0dHKF1tbWlkRWReEiO3bsWNjb2yuXEARR0mCf7SSyBPElIJHNRzoolC8dEtmvAv8dzafa+fr6ws/Pr1iE90cmkwmfyznnNjxcaHv27IlLly4JAstliERW9cgRWTs7O+USgiBKGuwznUSWIL4Eqiayb0+x+xRIZClFFhLZf01ycjIMDAywZMkSYTSyQ4cOaNSoEWrWrIkaNWoIX4tLGjRogD/++APfffddrsjm5K+//hKmHPNRWnNzc+XRIVQFElmCINhnOYksQXwJVE1kHR0dceDAAeFuj58KiSylyEIi+9lER0fjypUr6N27N6ZOnYo5c+YIz3pft24dDh8+LFxDevny5WIV3t/atWvjP//5T67A8vzvf/8TJGj9+vUYOHAgTE1NlUeJUBVIZAmCYJ/nJLIE8SVQNZF98uQJJkyYgKZNm2Lt2rXw9/dXrvk4JLKUIguJ7GfBb3w0a9YsdO/eHRs2bBA+P549e4a4uLhifaMThUKBevXq5QrsL7/8gkmTJsHQ0FC40y3/g96oUaNoarEKQiJLEAT7XCeRJYgvgSpeI3v+/Hn88MMP+O9//4s2bdpgzZo1wjVyH4NEllJkIZH9ZPjjJfjI67x582BmZob09HTlmuIPnzrNz2l+/vlnTJ48WZhSzY9HDjY2NnSzJxWFRJYgCPb5TiJLEF8CVRRZftv5KVOmCD/zPN9//73QBy603t7eylLvQiJLKbKQyH4SfLR1586dwjWwHh4eyqUlgwcPHgjTirns8GeO8hHYt6HH76guJLIEQbBzVxJZgvgSfAsim5CQgMePHwuPI+AjD2fPnsW2bduwZcuWfLN7924MGDAAP/744xvXkPERWt6XpUuXwsHB4Z0bQ5HIUoosJLKfBJ9aW6dOHZw6depf3eBNFTEyMhIE9vnz58ol70Iiq7qQyBIEwc5ZSWQJ4ktQlCLLRxp27dolXP82bNgw9O3bV/gFz0dbBw0aJMhqfuFlu3XrhjJlyrxzMxQePopjaWmJzMxMZU3ZkMhSiiwksgWGTyHet2+fcA0ov9FTSSMxMVH5v/dDIqu6kMgSBMHOVUlkCeJLUNgiKxIxeWScOHECXbp0ESSW37SJP+z/1q1bsLKygkQiESKVSnP/nzc+Pj7CNGJ+A5Scn32exo0bC2LMTxCSkpKEevJCIkspspDIFhj+By5+7Tv/PCjON3T6N5DIqi4ksgRBsHNWElmC+BIUpsjykVQ+ZfD06dNo2LAhFi9eDCcnJ2WJgsOn3PER25yfe34HY3493cf2RSJLKbKQyBYY/gescuXKCZcHEPlDIqu6kMgSBMHOXUlkCeJLUJgiO3LkSOEa13bt2gnPgv1ctm/fLvy8N2/eHDt27CiwDJPIUoosJLIFhstZ1apV4efnp1xCvA2JrOpCIksQBDuHJZEliC9BYYksH2UZMWIE/v77b6xbt65A14HlR0hIiLA9v6HTp47mkshSiiwksgWCX9d+6dIl4TKBp0+fKpcSb0Miq7qQyBIEwZyVRJYgvgSFKbL9+/fHH3/8AWdnZ+XST+fJkycffMTOhyCRpRRZSGQLRFpaGvbs2SNcO5/fY2eIbEhkVRcSWYIgmLOSyBLEl6CwRJbfpKlr167o1KlTkU0ZJJGlFFlIZAsEf0b0xo0bhT96RUZGKpcSb0Miq7qQyBIEwZyVRJYgvgSFKbItW7YUphcX1ZRBEllKkYVEtkBwkd28eTP69etHIvsBSGRVFxJZgiCYs5LIEsSXoDBFll/3xm/49KEH/X9NSGQpRRYS2QJBIlswSGRVFxJZgiCYs5LIEsSXoDBFtlGjRtDW1iaRpZS8kMgWCBLZgkEiq7qQyBIEwZy1CEU2RQRL3QPC40NycsbQHm9Mlkx+BonxWRw4fBn6kggU+iPdo91wzdUTAbEZygVfg1SEepjkHoP9Z67ihneMch2hKpDI5iMdFMqXDolsgSCRLRgksqoLiSxBEMxZi0Jk0xBqZ4STC1tC47/Z9eXm7wYYte4OzByis4uGW2HPkF/Yuspov9sFX1Mn3yba6xbOzW+N/00/AsOQdOXSL00G4rzuY2NXzTzHoQJ66IYp1xOqAolsPtJBoXzpkMgWCBLZgkEiq7qQyBIEwbyp8EU2NVQXa9uWY/X8gHK1BmPyzJmYyTO6G2r9w+v/CRXbbIbuE6at0Y44OqEKSv1QH30Oiwp1RPbJ5Zqo+D1rz9iLkLxSLvwKvLy7Ef3ZMf+1Sk2MWLAKGw8chUVwpnItoSqQyOYjHRTKlw6JbIEgkS0YJLKqC4ksQRDMWQtZZDOiobepO6r+VAqV6szDKcu47OUCITDa2g5lNX7AX9qbccqL2WOsU7bIft8IQy55ISsxEI7nzuEcz817MA57S20zwyDOWc9z+QZ0A1OUK7OQHu0DiwuXcPmyLUJTYhFw+yauCGXP47z0hbJcOp643sXBaRoo/ws7Hi3GYvmBs7BSPEOiskS0zSPcya3HCvJnyhWcuADYP7iAczccIA8NhtzpDitzCnfN7PAsVVmGkxkHf7eH2DVjAOqxY/537ZZYfd4cds4vkevNKY/hllvPOVy4oQdJnlnHrxJC4Hr+HC5dvApJWDpy9DcrPQyya5dwiW3jHJIo7C/aSxc3LrP9uEUgPPAeHtxk/z91F07+MUjL3oz4F5DI5iMdFMqXDolsgSCRLRgksqoLiSxBEMxZC1dkUwPOYUzbsij1QwNMPyFGsrA0D08f4NydPTjvr3wdYc9EVh2l/qiHLpuP4tzk9qigbGOpUn9AbbEOFEpHzkx4DPsN49Ayd312/jNsM654RTGNzUSyxwn0FZbXxPBFk9Ahb9m207DdOAQxr6Jwf8bv+E/edSzdNj1AJDIQbHURC9T4dOecdeXQeuQJ2PtEZ4ukjw7GN+XL66LjwD5oppZdTqvvdohzTJiTqsCxGU3y7Cc7ZRpcxWO2p+hgFxxePgyN31rfdskFGIRmT3VOCdHFPGH5f7DGLJYpeDYZ8RbY9EN2+Rm6IYKAyw6Wxe+8bPPJGNU1Z39tsP5ByLvvA/HJFJbISqVSQWT5ydezZ3n/glJ4kMhSiiwksgWCRLZg5IisiYmJcgmhKujp6ZHIEkQJh7lM4YpslMVUDKzG6tCajC0OL4VlHySSieykGij19x/4p3Ej9G41BCPYB9eIvq1R89dS+O+fWhhzPQxZmfHwvjoFtXj7G/XBxKmzsWDORPRrxPvzPX5aaoLYrEyk+1zE6D9/EvpY6ictdBg2GmPY/oa0qZy9rNowXJGFQK63GlM6lsYfP7JlGi3QfdhYnDDxwRP5BUzX/AO/1eqEETMWYMEClrHtofbzb2g07SJEfPA3+Dpm9aiYvb/fK6Bxr1Hsw3YTjt8MRd4BWbwKg92t3RjUrgEqsrI/l62CTkMWYt1eGRKSfKA7Xym5Wqwu1saxY4ejd3M1oT+/Tz6Mx0lA2pP7WPFdKfz26z/Yah33WmQTbLG73O/4jW2/2OAxWFEoTtaCxp9sf2zZP3W7YdBots/t+pC8oPHYL0Fhj8iOHz8eERERyqWFC4kspchCIlsgSGQLBhdZ/igzU1NT5RJCVXjw4AEmTpwIW1tb5RKCIEoazGkKV2RfWs/GYC1WR+v52KN4Q+vyh4vsdCaypX5C5ZYLoJcz+zfaBof7/YlS/1VHw/W2SMmIhEx3HSYs24RdCmaTiV4wvXcRG4awur7/DWUm3sKTzFdI9bmAUb/+iP9+p4bWW22Rq9LeZzGs6a/4ifVd+4QYsWzRi9stUedvtv34CxAJTU2D5fymUGNlKvRbgmN3TIS/4pqcXoDOXM41RmGbXTKyIu5gdo9/WJtLo8X0s5B+xBNf3tshXCNbqeNwmCtHbF84HsW4ylxuO2Hy7dDshYxoxwNoULoUfvi1HGZaRCLh8QOs/m9BRbYm1P9g7SzTAHtsikaAijOFJbJmZmaoVasW1q5di8TEvEP8hQeJLKXIQiJbIEhkC4aFhQU6dOiAESNGYOfOndi4cWOxyp49e7Br1y5s2rQp3/Wqmq1bt2L06NHo3r07iSxBlGCYsxbBiKwmq6P+LOwQJQjLPggX2SlqKPVddXSbbY945WIkeEN/RUNBZJtssIZwFWzqS3hbmMHk9hEs7VVa6IeQ7/9ChWm38VQQWR2M+PlX/PLTGFzyySvSMTBZXBVlfyiF1tts8JQZYfDlZqj5F9t+5AlY8/OALC+c79woz9Tmt9MC0w6FID3eAPN7/Mpet8K0LfKPTNtNQ9D19ejFtq/QdhAMhEseX8LtzGSUK/Uzqrc5Clmey4AzokW4MJzV9WtFVD7mhJiQe1jzfbbI7rCNfy2ySfbY97bInqgBNS6yHfbB4nkB/ohAfBKFJbInT55E6dKlhROU9PScd7xwIZGlFFlIZAsEiWzB8PHxwfLly9GnTx8MGDCg2OWvv/5C+fLl0bdv33zXq3pWrVqFwMBA5btJEERJg/lX4YpsgmgThjT4H0r93hVLdAOEZW+QEgQPD1uIw5QP2hGukeV3LW6Afickr+9aHKfA7SX1BJFttsURqWlhcD42HJpC+yujSY8+GNi/J9rUZa9/+APlpuaI7AUmsv/Dzz+0wwlxQp7H+cTCVCmyrd4nspkiHOxQD3+wOqo0aos+gwYJH6SDho7GmPETMXHsTlw1j0JGxB3M7cZEltUx87Di00RWeOpOOGyOjcJPpf5EnfaXkXO5sEC8J3SnsDb9VgGVlCK7lonsr7+UxlrTqNc3bYqzw+Zyv+EXtt93RLb3AVg9p+nEX5rCEtklS5bgu+++w+HDh5GRUZgPpHoNiSylyEIiWyBIZAnO4MGDMWPGDOUrgiCI4gVz1sIVWST7YN/0ZvjtPz+hxZCjsHmavTibJPjfnoCWzf9CrfnX4BqZCbx0yH38Tt8jotfimSuymmi9xw5P/XSxlI/0/q8iOkxxU9719zn0tdmy//6Kf6bkiOxFjPz1v/j+u+8xUsfv9TWrCS7YNbScIKnd9jggnO0g+JJSZHOnFsfi4cjGqMTKtFl+F68n/D5DoNgGFhJ/POHlAq9jVsdfUKp0Xyx/+Di7yHt5S2SFe/ckI+DWcrRiy8rUmoITXq+lMz3wLibXK4X//FQaHW/4IDbEAKtYuf/+8Ce6Xg5WlmJ7cF2Hnn/8iP+W+g7LckW2OqpwkZ12BeLownyQUcmgsER20KBBws+ooaGhcknhQyJLKbKQyBYIElmC079/f0yePBnJyXRLR4Igih/sfLiQRZYRYbsFY6p/z+pRQ1vto9A3NoYxz5WNGN6MT8kthR/qT8FWWToTVuXjdz4ksntt8dTzOhbw61n/UMOIffdhbvwI+sfnoxvvz39+R7nZBghnestFdjQTPKGf9cZjz42HeMTqvrG2O/78D1tWtg52mz8WRlF9T9fOvjlSp3nYe9MYTn4RkF0cj4a/smXlemPOkdvCNbK6W9ugxn+ZTHZYj+tczJ/cyhbZv/tg2f3Xups/b4msIPZZiJHcxKpqf7F2/oyyw3ZATzhGd3BiSa/s49N8KExY2dRwa+wU7or8P/xvwm7cfcTKPbqFTYPZMt6f//yEFW+L7JRLEL0kkf3SFIbIxsfHo1mzZvjpp58gEjF5LCJIZClFFhLZAkEiS3ByRDYpiZ8FEARBFC+YExW+yDKVhe3BFRjS+B/8T1nf6/yCMo2mYuNRr+zRUiZq+4b/wZZroNNe19ciGyvD9dnqbPlfqLXWCYnJATDZ2wBVlI+cEVK+Nlo21sDP7P8/dt4PSUIaUgSR/QU//LccajVm5fldiXPK/1MLLY855j7rNdR4HLqVfr1efc41BARLsWNpf6h/n2c7ll8q9cOWm4rsa3j9LmAif/zOdx0xV+/1KGn+pCHg4nK05/to2B23cwdw4+H5aB/aN9IQRonz1qXZaQwm5Yz0pkfB+Vxb1OaCmlvmP6hQp44wcsxfz7ud8/id7BHnUqPOwjWKRPZLUxgie+bMGfz+++/C4yLCwoR56EUCF9keTGSdLS8CGZ5MLhTse1FOoXz9wA+BHgYksh+BRJbgkMgSBFGcYZ5TFCKbTVaQDnbO6oSOHTsq0wmdpm/BKf881/3FyKG3YwQ6d5uMlXd9s5/TykkMhvXxSejcVRvTdSTCTY6yYuXQXc720Yntq+8oTH4UgJTAe1jfqTv69NkG8+cpSPC+AO1ffsWvP4/Eeflj2BzRxoAurHynLuh8yhGR2XOSlYTDas5EDOvE9snaN+OkJYIEyQ2BwYqp6Mfr4e3uNAF77vgIsijw1AwHFvRC5/4rcNIxXLnwfaTjufl5LO/cGUPnroV9zl2ZlaT7P8RBVn/OMeo/cjKM35iOzUh/CtOtvdCjMy/XBT0HbMMjfwluDR/E2tgJx+wjhJthBRvwxxZ1RufdxvCNI5H90nxtkU1LS0ObNm3www8/wNzcXLm0aOAi26l9Cxhc34NAuYEgFoEyfQrl68fnAayMTjCRHUYi+wFIZAkOiSxBEMUZ5qxFJ7KFTwYSFecw4udf8POPg3FSUoC7JhNEAfmaIhsdHY0jR47gl19+wZgxY4r8xJQ/y7Zjh9aYNU0bM6eOwIwpFErhZfa0ERg/ZjAOHDig/I4k3oZEluCQyBIEUZxhzlqyRDbB46TwzNZSpXrikFus8qZQBPHvOXjwINq3b6989WWIjY2FWCzGrFmzhJ/L5s2bw9vbW7m26Hj+/LnQ34MHD+EgE3gKpdDCvucOHTqM3bt3F+kNz751SGQJDoksQRDFGXZuXJJENhPJgQZY2a492rVeits+ia+vuSWIfwkfMeU3YgoPDxeuX/3UPHv2DEFBQfD09IRUKoWbmxuWLl2KP//8E2XKlMHAgQPpeXkEQRQIElmCQyJLEERxhjlrSRJZgvh6nDt3Dr/++qtw4sAfPs8fsP8p6datGxo0aIC///5b+BnMmwkTJsDf/40nChMEQbwXElmCQyJLEERxhp0jk8gSxJdAR0dHuIaVy2jDhg0/O40aNUKTJk3QuHFj1KlTR0jPnj0xc+ZM4a7FCoUCmZm5tz0jCIJ4BxJZgkMiSxBEcYY5K4ksQXwJvsbNnvhD7PlUYwMDA6xcuRK1atUScuXKFeFElSAIIj9IZAkOiSxBEMUZ5qwksgTxJeAi265dO+WrL09WVpZwo6c5c+agXr16uHDhAtLT+YOnCIIg3oREluCQyBIEUZxhzlq0IpuZHI4nAXLI5dlRePnAz88Pvp6vl3kGhOIlH3zKTEHsywg8jU6BKjwFNSstCgmJL5CkvDVyWuwzPHsaiij+UNcvRFZGCuIiQxGZkP76GbtvkIWU2FCEREQj+dXXPmpZSIuJQMTjMMSmKRcVOzKQ9DIMYU/DkfTWncK+9nNkc+DTim/fvi3cWOrOnTvIyKBblhEE8SYksgSHi+ykSZNIZAmCKJYwZy1akU2UHcCyYTVQo0Z2NCv/g9///B1/V6mWu6zp0Dm4GsAKR9vhyMYJaL3dAd++J71C0N1JOHhwMSyV5xCPH23A5tWzccUn+/WXICXcAWenVsfMW35IyM9nMpPhdLgWqo7dCfOnX3sqajKku8ZjXP3BOOqlXFTsCIPxmgEY2mYkjCKUi5QUlsjmMG3aNGEEmF8zSxAEkRcSWYLDRXb69OnCZSoEQRDFDeasRSuyWRlpSElKQEJCdnyvTUfbvq0xQj80d1liUgrS+XBjuBX2rx6FxpvsVeCxOU9wY3wTaA9ZAReldWdlZQqjaVlfcGA0JdwOJ8dXxuRrPu8VWYf96ig/YgvMnyuXfTWSId46EtrV++BgsXWrKBgv74G+TQbjXhGLrI+PD+rWrYvTp0/TzZ8IgngDElmC07t3b2zdulX5iiAIonjBnPXbukY24v5CdB3WGRMs4pVL8hBujYMbJqDlNjvExz4TnqkZGBSK55FJ+UyrfYWE0GBlmRA8iVHO732L1GePEczLsASHJrCt8vIKSZHxSE+Kx/Pnj1mZJ4iKT8utKyUqDKFB2dsGsXK5452ZKXgZ7oDdfeugV9cZ0PWLQHQ6s9d0JubxcUh+o5J0JL4Iym4n23941LvXPKZGK/vBE/wEYYmvjTUl3B6nJ2lg2g3f94qs40EtVB67C6a+QXgSouxrvscMSIx8hpCcutixfZmYz9h3VjxePle2OSgM0Yk5Zp4MyfYxGF27Pw57KhfxYxj1BMFPwhCTZ0A4KyVaedxD8PR5DJKTkxAeEYcU3qisDKSlxCEiOQVJEayeoGAEx6Tktjcr5SkeByvbGByKPIeDkYnUOHa8E5LxKk8HM5JfIOJlDBLTlAvTEvAiLhlpaSmIiXwq7CsohLXxzZ0JZCS8xFPl+/z8hTfurRqIIS2G4X4RiyxnzZo1mDFjBkJCQpRLCIIgSGSJbHr16oWDBw8qXxEEQRQvmLN+WyL7VH8+ugzphHEmL5VL8hBhg6MbJ6DZnP04sm0QtLS0UE1dE03ar4ZRRB47zExFhPN5LKighmqsjFaN+mg4+yzcn6e8HsnNeoW4kPvYUrcu6lRjZbSqQa38fJxzCkdqrgB54WrH2Ti2eBXa9WrH9tUH2/SYMCILqS8scWBIZ9TV5NtqQX3YMhx2i8yWqngRds3vg3K//YRff/0LlQexdQHpiDNehmVzR+N0zmjlqyS8kJzG2lFqwj60NNug14jbkDDpFtQwi0lu6CMcmV0Zmnw9i2b1Bmg69xZ8U7L7m1oAkXU6XANVhi7DijXN0aEF348mKvdfj1ueL5GWOzqcgeRnxtgzoCPqCceDRa0chqzSgSRW2R5GVlosgs2WYkKPqtllNHpj8ho7hCbwg5byWmSVU4sTFeewtMefqNxlMs7IeAOzmM8HwWDPVFQW6mmIrh1mYNXKxajeZCWM+bdJShgcb8xB7XXbsXukBqrXb4Smx10Rn8W2jQvEvXW1ULtWNWX9lbDwkggRuR15CbO1TTHlkB684pSLGKG6PdF89EycdIvNXiA6iP4zVmCnjg6Wzx4g7Eu9QkOMXn8PAfyPDkpexXvi7vKRaKbB21oNg8ePwtJRwzCs3XA8+AZE1tLSEoMHD4aDg4NyCUEQBIkskQ2JLEEQxRnmrCokstFuOD+9Nn6s3BHDb3siIiICIY5nMLc7k9nVZojKtj9Eu5/HzIp10HiXGZ6zMhFPJbi6rAbq1tgK44gMViILyYozmFinJtQXXoXkMSsTEQbz3Y1Rt+IMnHePUYqbAjqNtVDp19HYZuSDsIiXSEjJQGaSHXb2qocuY3bhkS/fNgL2x4ejebfBWP/wMTKYgCbEiXBkSAP07zUX95/EMcHNQpDudMyayCRPlt3OCMtdGN+jMQYcshH2EeFviv1jh6B5l4sIYF6YwUR7z3Q1NF+lj8DIF3gZE4snDqcxQ6MuGh0TgY/dZkQ6fFhks9LgekAD5f/8A38vvAjnEN7eANxZ0RzV+y1hMhuX3ddYS6xtXwtTV16Ce9gLRMfEINZ5LwbV74DRWy0QJuwsEz4XJ6Fzt95YcEuW3WbJBcxsNxQDZlkgkZWQc5GtMwgnA5kEhpth+6gq0Gw/FLe8Y5DEGpyVzkR0xyzUar8B90J5W/xgdXwa/vzlv/i76jw84N8mGZGw39MZP5StiWmXxXjKTsJeJKUxqZTj9LhaqKm5HNcVz4T6nxnvQKPalTDzsgyxQkeiYLS4GrR33oRc6aycoCutUL3/WBxwisleID6IvrV/w+89V+OcNPs9dD46FE3a9sFC/ZDs0d8MX9ya3w3t207CGTde5incjy9Gt99+hkb3CTD5BkSWTy/mz53V09NTLiEIgiCRJbIhkSUIojjDnFWVRNYeRyb0RY1Ol+CZOwP3KYx3TkHZeqtgwUfgUoPwaOMwaNQ9DIfckVUgPfgaVlWsislXApGQHAObPVqoMGw7TJ7lmcqbao19tdQxdOMjBArTYL1woYk6+k67ACm3NIEshN7sjab9R2GvQx5TggyHe9eC9sR9EAuzcUNxdUxTjBi8Ci7KKbUBt2dh3tTBOMZHZLMe4+GqeRjRbgusc+9inAG/G2uwrMkQ3Ge7jrA6iC0tu+Cin3J1ehyiQ1xwZXV/qM03RDhb9OqFI858UGST4bRPE5XKTMYxUZ4hyuf6WFi/MuYetMRzLoBuu9F92iacE2eXyUhNRGykBKe71sXMqUcg5fvOlOL4wDGYOPkKvHKPbRxsV2pjSf9VcGOvfHaPxbgGw3HExAqHJldHja6joReQpPzDQBYiXU5g/eimWGKU59i9YMdd+0eUq74QD16w1xnPYbtrOCpW2wGz3CanIsJkBzQrDMcu88jXU8CzEmCxSwvq2lth8pgf+FgYL6uFMXt0ochTRfC19qgzeCIOOytFVroX3WoMx/j9YiRkLwFePsSETv3Rfs5d4dimuazEiOFNMfKM1+uR/AQ59o9vhEqttb8JkeU/V/xRPGfPnlUuIQiCIJElsiGRJQiiOMOcVYVEll8ju3osmm9wyCMyz2Gxfx7K1VoGM2Yk6Y8fYfMINVTdaIqwl1F48eIFSxTC/c2wfUBpVNphibAob1ybWRFVNt3Dkzdu5JcB933VoTFiIx6EcinyxYXGVbFylwlCs02M8QT6fWqjx/DNMPCLQpSw/xeIivbDrYEN0KvrEugLghOEi6OaYNjA5bBXmlKgUmRP+LIXsabYPHQoWo94CO5uOWSlJyH55UvhWtHM1HjEPg1BxIuXeCLTx9b+VVBVSxNV1LSgOc8QvJqPimxGEhwPaaHKch3I3jikMTBeXANjdlyFjLvdq3iEh0ciLJL1RXELY/q3hkZ1Laj9/hMGLzvLjgQj6BRGNBmNMVvEyPsEoczkOCTFxCKNLZXum4FZZSuhYfN6+Kt+N2wyzxnd5sRCdHIKhtRpi6tvXNIZDqejMwWRvc8PRuoz2Bwfh6rT7yAo5+8MGTFQnJmICmrbYBT+5nW76c67oaUxAptNnrI2JML8/+2dBXQVybpw58n/3rs+Pszg7u7uMLi7u7u7uzsECyRIIFjQeIi7kwTi7u66/+pzTkKAzB3mXmyG2mt9C9KnT3dZ96ndVd294i1E1nEXXcauYNOTUk/ASjVnetfBtJ9xQyWyIZfHMmXyKE6X3O+rkI3TvgnMaT6Ye5+AyCrvlm3ZsiVHjhzRLJFIJBIpshI1UmQlEskfGeGsvzOR3SBEdruNalqtisIIjPfN5Ye6KzHNEFITKYS113/yP+UqUUO5h7I4qgkBrFaN6odsiEv05vqsKgw/60DsK2+kKcJdqw4/jVzPvaCXIrtGiGxIyQhkMLd7taDu376nYrUaL7cvokq572kxdS8mbyOysfdZO38snXc6lfnQJYWCWBsuLa5E1WrVqVa5Ac3bHcPczxrdbYOptuCuarrvW4vs1st4vlKkKUL46jJ6hy7uivDlOXBseFf1/bFVfqLFrCMYhnhytW8D5s88gmo2tPdhBo6dw6xryruQyiILryPz6flf/02VBrVo3Hgg7Uadwa2kspJwODKB/tU7cu0VkY3D8fTKV0X2pBDZ+UJkczQanJeEx8VJVBpzHuekUqPoovQKnE9R+8eRbHwUXiKy4/bd5FkpkQ25WobIThEiaxSh/lsh2YRpQmQ7zLqD0lpdV/dnVPtJXApWf6wmB/cDU1ghRPbuJyCyCl26dOHgwYOavyQSiUSKrESNFFmJRPJHRjjr70xk1wuR3WothEXD6yIb+pCNw76n8mYDAoKLnwYcRFBwMEH+AYQkZZOX5sPFaT9RZev9N0dkD9ek0sqTWMcqAuXLBSGyq3c9KSWyoej3qEOPwRu47ia2qdp+oGr7gQH+hEQnkqkSyoB/LrLJj9kwZDDNxzzh1ZwWkJ+bSVZeCt46ixlSoz57TMQ+gsKIihMbzvLl2rrKVF34G0V242W8kjTLVDzncuvKDFlyDR9RmLF3e9Og7yi23HVXPSU4JlWRxQBO9a7FhBlHUD2fKuAEg5uNYdQOt5dPaFYoyhOdpiyyxb48do1nRPWe7HOLIeLJVga2rUufE24aWU/B+cRkBtduz5VXRDYW+xPzhcguxKC0yM69SWCxyBYk46U1kR+r7eLRKyOyReTZH6JGxTWcdk4Uf6VhtKw2o/a9OiIberXjmyI7aTkbDcsSWX3VaHfQhTFMnTgGLV/1x2pycNs/mSWfkMh269aN/fv3a/6SSCQSKbISNb169ZIiK5FI/rAIZ/2jiOwKjNOE1iTYc3rJj1Rfcp9XfroTjDjWpgsb7kWQmZWAyY6KfD/mANaKHBaT58jJxhUYsOkRAZp7ZN8U2WzsNreh5sRVr8lYEFdm/sySVWfxVc179ufiyCYMG7QKO8083GKRPa480bfQgyPTRlG9835cSiUh1fUCi6f3Zuodeyz2zKBCrUWYl5LtvJAHrO//lZC8O28nsqrX71Sj/JgtPFJNl9aQ8JDlNcsxa4/6QU6u2+rx/cR13IpUf6wi8j7Dm39Dm9nHea7kP+UxU9sPoKMQvTD1GirC761k8LQJbPGLJeTARMbWHcTJUPFBkQ+n5rXgm9ajMFRtt4gYm8OsGdGUtWaZygI1SbacnPg3IbKLefhLIksm0Q+3UOH7cRy2Syo1ip2F/ZEGVBi8nSeqe2RTMVxWgwrzjmBRIpqZWG1pRoUukznu9DYiewNlwnGOzVKGjWzBhMuBpaZHR/N45c8M+kRev6MgRVYikbyOFFlJcnKy6taTo0ePapZIJBLJHwvhrJ+YyN6eR6eBHRjzpCyRNefA2tE03Wz1isga7ZnNN7WW8VjZRWEu0db7mFihEe1OOZCenU12agB319Sg2reL0AvJobCoiHTXQ4yoXpPq6+4RkCLWyc7AUas19b+awAnreM09uN6ca1iBlTselxJZyE14wtpu9ek54wTWUcp3s/G8OIZmrTqz6JoP2SrrCeTSmCYM6bsI0/hc8gqLCLwxk7lTBnDUU/k8j5CHmxjQqSnDtNzIUtKZ8ZybG6ZRueVykZdUfLQX0KFCG9aaJqj2kZ0agsWx/nz957/zbd0TuIn95CbYcHpCeaZe9fuFhz3l4LC/PN989xXlVunjnaCkNw6jLe2o0XM2Oh7JKikM0OlI7Z8GsPFWiLrMssMxnTOI2v/7H5SfuA9LpR8ktuV0YhQtuvRn9cNgdZoS7dg8cjANhhzBPTsfv52jGVmzD4dU95UWkepxhBmthQyPEmUo0leU+5xbmydTq8tuLJKU/UTjdGkO3/71r1SsexxXJQ+5EZgfH0OF2TcIKBHZIvKTXDg4pCo1a23lfmiaav9ptidpVfdrJmo5EK/KfyEep5tQqdwYDphFqdZJtzvEgEb/x3/UmcU5N43IOuyg4/ilrH9SWmSNmdJpAG1n6KF4OLmeaM9sT9vOc7j+XElrNuFWBxlf9f+o0n4cj6XISiSSTxQpspKwsDDVwwCPHTumWSKRSCR/LISzfmIie3ch3Yd1ZYJRWSL7lMMbxtNqm80rImuyfx4/1l+JYfEuCjIJfXKIKd9WFNJTi1o161K7xgquPkt++b2CbGI9r7K8Rh3q1RTriPUqDV7DVYcoMkqeJOXNxWbVXrtHVqGQ9KB7bPu5PXWra77bYhSrbnuRWLKDPKIMFzO+xTdUaj6T3TaxhD1ZzKLpQzmhEllBbjLhNgdYPKySahu1ajWgw8/b0H+RqpLL/FRf7u8YxZfla6g/b9WDvseuc3vnHH6qupR7om+Sk2DHualVmXH9l6YWZ2F/tA6VF2xj67o2dG+l7Kc6P87Yjf6zRDI1+crPCMZgRWdaVVdEUVmnDysPG3B1Sy/qTZrPcW9NxjKjeXZ3DqO6VVWnqUYz+s+4iFW0Mmycg/vOcYytN5CjJQ9IisRq60B++r6bqFP1g5VyU55zdfMEfqqh7KcdfbptZtOWxVRueFZ9L64Q2aenJlBtnn6pEVmFArKi3NBdJPZdp6Zq/7UrD2GdnjNR6vncKvLSfbg2pwWNq1dXrVNz/hEuHJ1FhwkbOWavebSW4266TX79HllTpncfSqfZN9UiK8iOe4HRmsn0raKktRbtJ49k5oiBLOo4CgMpshKJ5BNFiqwkJCSEBg0acPz4cc0SiUQi+WMhnPXTEtn8dCF8kWFEZZRhZfmZJMVHEZKQVWqqZz6ZiTEEBMXx6ldySPR0x8XFBRdXD7z90kpNRy1GCOnzZ3i4inVcXHEPeX2dHFKCA4lLzHj5cKlSpIUH4KX6rgtuz6NJLRFgDflJRAd54e4RQERankh+HLHRESS/coNpFkmhbup0unjyPKT0U34VwYzFy91V/bmnD/4pYifZyQQEiv2JRBUJIU+JDiQ6LbeM/AmKCslKDiZQGXVOfI6vpyav0cWvxHlJYVoo/l6afbn4EpVeKDw4huCoKOLVw8xqChKIfKFJs+szQuOK5z4Xkp0QRVRQBEklQi/ykBqL//MXBCSLhZrNFGTE4OXhgYeHL4EiTQbHplJ95l3VlF6KRJ0mRxEYk0be64kUFKb54q0pE1ePUEQy3yA/JQg/T01ewlLIzU4hKi6RxCxNI8lOJCw6jviXVy3EhjOJDosgVNmvZpGK1BiC3JQyccE7JEzVKUwJjXjjwoEUWYlE8qkgRVYSFBTE0KFDuXnzpmaJRCKR/LEQzvppiazkj0whscZHmdmiL+OfKC+4UZPufo61tRswVT+ibBn/nSBFViKRfCpIkZUoD6IcN24cd+/e1SyRSCSSPxbCWaXISj4UReQm+nB/w1jqfV+NevXqqaJ+q3YsOuVIbGYZw6+/I6TISiSSTwUpsp8fmZmZFBS8nCqkjMiOGTPmFZFV2kVubqkpUxKJRPI7RjirFFnJh6UoMwZfG0ssLCxUYeXkQURZc7d/Z0iRlUgknwpSZD8/dHV12b17NwEB6ne9W1tb06dPHx4+fKj629LSkvnz52NsbKz6WyKRSH7vCGeVIiuRvAukyEokkk8FKbKfH8+fP6d9+/bUqVNHVffKQ56U+t+wYQOzZs2icuXKjB49mtDQ4scZSiQSye8b4axSZCWSd4EUWYlE8qkgRfbzZMWKFao+3F//+leqVKnCt99+y48//sh//dd/qZZfvHhRs6ZEIpH8/hHnNSmyEsm7QIqsRCL5VJAi+3mivHKnWbNmqn7c66GMxkZHR2vWlEgkkt8/4twmRVYieRdIkZVIJJ8KUmQ/X9auXcvf/va3EoFV4s9//jNXrlzRrCGRSCR/DMT5TYqsRPIukCIrkUg+FaTIfr4EBwfTokWLEolVYtSoUURFqd7ULpFIJH8YxPlNiqxE8i6QIiuRSD4VpMh+3qxZs6ZkVPZPf/oT165d03wikUgkfxzEOU6KrETyLpAiK5FIPhWkyH7eKO+QbdWqlao/J0djJRLJHxVxjpMiK5G8C6TISiSSTwUpshLlXtmvv/5a9X5ZiUQi+SMinFWKrETyLpAiK5FIPhWkyEoCAgI4ffq06knGEolE8kdEOKsUWYnkXSBFViKRfCq8K5H18vLixo0bqlE95am3Mn5fce7cObS1tcv8TIYMGTI+hVB+X+7evcuLFy80vzxvj3BWKbISybvgcxLZlJQUTExMMTYxUf0rQ8aHjsePn+Dm5qZpkZLXeVcia2hoyKRJkxg+fLjq3wkTJsj4nYRSX1OnTpX1JkOGjE82Jk+ezKBBgxg5ciQ2NjaaX563RzirFFmJ5F3wOYnss2fPRAe5D2NHD2Xk8MEyZHzAGMSYUUNE2xuumjYpKZt3JbLm5uYqiT1x4gSOjo7Y29vLkCFDhgwZ7ySU35WTJ0/So0cP1f9/K8JZpchKJO+Cz0lkHRwcad2iMcf2LefJnWMijvLktgwZHyDun+TiqQ2MHt6Hw4cOa1qk5HXepcgOHTqUp0+fapZIJBKJRPLuUIRWEVkHBwfNkrdHOKsUWYnkXfC5iWzPbh1wfqoj/nouwk+ErwwZHyCCCPW5z6ypIzhy+Ij4W1IW71Jkhw0bhpGRkWaJRCKRSCTvDgsLC3r27ClFViL5mHxuItuja3usDM9Bhiuku0CaswwZ7z/yvfB1vsmMycOlyP4TpMhKJBKJ5PeAFFmJ5BNAimwZ0iFDxrsOKbJvhRRZiUQikfwekCIrkXwCSJEtQzpkyHjXIUX2rZAiK5FIJJLfA1JkJZJPACmyZUiHDBnvOqTIvhVSZCUSiUTye0CKrETyCSBFtgzpkCHjXYcU2bdCiqxEIpFIfg988iK7bNkyMjMzNUskkj8mynuwpMjKkPGeQ4rsWyFFViKRSCS/Bz5pkV2wYAGTJk3iyZMnqh9EGTL+iGFtbc2cOXNo1aqVpuV/OKTIyvisQorsWyFFViKRSCS/Bz5pkd20aRN9+vRhypQpjB8/XoaMP2Qo7btz586qizYfGimyMj6rkCL7VkiRlUgkEsnvgU9aZJ2dndHT00NfX59bt27JkPGHDKV937x5EycnJ03L/3BIkZXxWYUU2bdCiqxEIpFIfg980iIrkUjeL1JkZXxWIUX2rZAiK5FIJJLfA1JkJZLPGCmyMj6rkCL7VkiRlUgkEsnvASmyEslnjBRZGZ9VSJF9K6TISiQSieT3gBRZieQzRoqsjM8qpMi+Fe9SZIcOHYa5nZ1mieT3SqL3Q26cOcOpy2Y4haVplr4lhan429/lyNEL3H4QRKpmseS3kk2I5SUunjnPSVMfojKLNMvLIpPQx/pcPHGcW7beJOVrFpcmPxZHoxscO30SfTNrIrM1y98hRbnxeD84zomz2mg5hJFZoPngXZMTydMHlzlxXA9zp3hyNYs/LEXkRzpx5vQZzp++j2dUFu8ru5KXSJGVSD5jpMjK+KxCiuxb8e5E1oJR40ZybvlibpzUQvviec6fOcGxY8dEHOfUeSNcgvI0a5dFJoHW1zTrizh3C6PAf7drWEBuhBPnz57lnK4uF8+e4sSJ+7hH51AoPk30vsJl7Qvo6F4SaT3JcX17glL+WRo/D0KN97Ko0z/4vvlgNprEa5a+JQUx2FxfQdOmHWg/8gExmsXvmuxgS3TO3cMmMJWyvO33TzouF6bzc5UvKD/nLLbx/0xkk3Hbv5aBlWsxct15fMsyu5wA9I7NpuFXlWnXcz326Zrl75DCrBCebOlC44pfUGO3JbE5mg/eNRnPOLdzBNXrDGTOHneyNIs/LIXk+NxgXI+mfPGPUZxwiEeeOd4/UmQlks8YKbIyPquQIvtWvDORFR2MsZNHsatHF+a3qc7//uNbvq/fjh49eojoRKO/16dj3xNY+GXwepc8L9Qd42ObmTFtkGb9HuJ81Z2uU1dxwziYf33wKJ8M96sM69cS0XPhf35sTIee67jtk64aPQl5MI1R7X4UfZn/4MvqreiyWBubyI/TLf7UiNUZzLq1i7gboVnwWygKwc3mEnsevy+NhRT7E0wevpqz1lG8L1/6+MRzd2Jr9upYEfmrtp6Byf4r3Lrlwi+PoftyYdE2Zs63/Cfr/HsUJrtyYVAzTlrF8U8Hkf9dsq05ff0656ySNQs+DhlWK6iw+DI20W/ZCgtDCUlIJuGP22j/KUVRUSTFRIrW+q8hRVYi+YyRIivjswopsm/Fu55a/NTJE+Ku0H/WKtaZvexkRl1bRbsvK9Fmpj4RpTvlOX7cm9uR6v+vH6vMEjQLBdlOXFtUg/r1RnDENOHfG3XLtmF/hU6suxOmGoktTYbpFKq0nMRh23+1a/UHpCCQ0716M2PSeUI0i34L2c8e8uD4cq6HaxZI/jVi7jO82SIO3Av49Y5/+lN27NPlnFG0ZsGbZLkcZPrcUUy7X+o4e6cUkOJ4nu71V3PLN/29jpTnOh7hmPYR9EM1Cz4GRUmYbf+G9ocM8H/LKwOJ1y6gZxJIxGc5Dzkdw5t30LN59i9fnJQiK5F8xkiRlfFZhRTZt+JdP+zJxMIWAs7y85TFLL8fpvlUUODGqv5f81OPOVinaJaRR/TjJQysWZ2hW/3fnJqXbsWRkT/wj3rbsEr+leGd/BSC7K+id9OL6LzS6+aR7HCKvk2OYh7x+mhrBjYrKtF+51VcX7mZM4sA03tc0dZGW8eIZ7FKlzwea8Pb6FzTx+ZZOFmldpESnkCc6l7SLIJsDbE2dyH5dWN+hSSCrC+hfUmHa/fNsIt5tVtXEOvEZW0dbt51IiQ2FA8TQ15EpRDqrMPlG7e57ROvHtVO8ub6NT2uO4eR8U/3J3Lq+5g7l0V+rEOIDrfB2smZFwm/cHdh1E0GDt/J7EMmuJlf49KV+zj6Jb8xkl4U7o6JqoyuYWjlTqqqc15AiPltzi85hq9IU16UMwaXb/HIIv6Nzmt2kAmXtK9y85YP0cmhGD20xMFaG50rN7n/MLSkDAtTg3AweIJPRAZ5mZE46t/g+u3rOIWmvHp/ZOZzTO7poi3SpGPsS3ypDzMCLXliZYNP0stWlhZux4ug50RF+GD3WBe9q0Y4eClzbvOJ8HTmsW3Aa/f4FpIR4oGZri63jK3U06Yz/LHRvY6BhT+qyzYFSfgYXuX2Y19iXiveoghrrl4S5aXk2bmsY62A8Af6XFXK1DmKOMu1dFl7gfuBLzU2w9+Ee7pKmV/HzCu8pN5zvXaxR+8K937xykMBvscXsmHOLC7Zeot6u8w1Iwe835hiXECs+32Rxkvo3HyEefCv3eWcwrMrSnr0uOEVSpDBPJptfMSL9JcaG+uszzWRp0uiXh2CYwl2vMct0W5v2waSkKtpVWlBGD22wzEwpZQAJ+NgcluVlis37fEOLx7GzOPF8aNcP3aN56+0+zT87ZT1xb70zXGOUn9YJLbtbq7LtatPsHVJFkdpLB4PxDq69zC0SXjtvJOFv6lSR5fQvfUI77jXdDzaluuXxbGr+xT/aHfODunGWYtg0l4/OF4jPdiQh3cPM+P7kcwYv5Xr9s+JL85OgWjTRtdV6b5835nAf1rkqQS4P1Gfmy7rcM/UlmhVO8sj0deSm09sX07pLsomPiIAc99o0pICcLysy9W7JhiFiUpP98f80iUuX7vNE+W8WJRDjMdVrly5wb3bL0gU7SBS/H5eFeeha3deEPdaW442NkBPlYaruEdqGlFWKKYPb3P11jWsnkWKLYgacbfFycENV7OnGJ1cTOPxE+mw7CJmTuFCa387UmQlks8YKbIyPquQIvtWvB+R1aL39JWsNy821mye311Jy/L/R9NZx3le7JPZvlyc0pQGTUdztazRu6JYTPcO5f+Va8Bs40yxoIC0UEd0hUhcv2+Cn7KoGNGJMjnYh0HDruCa+bJ3W5SfgPPJ/jTf8oRSWq2myIZVFeuwTstFaKqGbH8s9A8zr2cfOnfoQId6rRm82ABvX3t2Lx5Dg3L/Ta+FB3HVjMAUJhtzZMNmjl58Lv5KxGTTUMaNXMzNsFd62C+JeYHlqZVMntKKDq3r8kONOtQ85K4ZKU4lyu0S++fNoGGHbgwevpI9a8fQ8avOnHEOwfJ4O1o0q0DDYx5kJT7npt4e2ndqQbW2mzANyVR1HN8kAz/RST4wpxu9O4r8rDnDytlVqDpkLhfcy+5KZj7dxOhVs5hz5Bhbl/SnZdWfaDdyF4ZRxRWXRaC7FScXzGO6KKPOzSvRoG9PDngpShDH0yd32bjfjpyk59w9vI6hzRrRoetarIo76PnJBFueZ9uyIbTsIOqszw4OLRrH3yuPZfu2trSp9R1f/PcErgZlq+Q5L/Q+q5r8P1Zc8SYx3pEjoztR+4sfWKrrSfH1jSx/M/QPz6FXn850EGmq224oS287iU5+Ial+nhgf6EuThqNYdzVAIy4FuGwezJZlu3nscJMDsxryZeVBjNpsTUjYTfo37E7D9sd5plq3mHxiLC6zsF4D2vUaxe2gOFwPCOGvX54G1SZzJzKHOKczbB5ZhyaN+nPJv9hu8oh0uMIBUZdtlDpo05yaAxZy1iuanOJmkheJ4b3trG3VhW4i/a1X7WfVlC+Zo3Uff5XHimPI9BYXVg5kcC9R5k0rUG3CXu4GKNYiJHX3GE4eO4nXLw3dFkRhsG0DU3ut5cTaHSzv0JQf64s2eMT8pVClR+BhdITly0fToWNbmtZpSdsJuoS8cYVJTUGSH3qnl7CoXjtRv33psHYrG0SaF98O1DzoKQH3e6c5PL8HPTt2pF29cjRaqc3ZbeMY0vAffFFjHudck9RtP/Ihwxv1YdpRa/WxmGiDqcF+RowaJtLSngZ/bc68jUZEK0Va4M/puafYtcVZaLSGJF9sbmxm6vjeqvpv0aITvTZewiU+j8JIY7SXNqJKnXrU7KvFo8vH2T6zAy1r1qVRlfUYxqsroSAtEMsLW9gyVdRR+9Y0alSLbodcNRczCol10RPH+hhad+xExy7T2LF8Cd1qHsYoOP2NizyvE2W6iLFt/h9f16xKw7admHjAAD9xOBVEOGB0bjlDhnRXpbtxy96MP/2Y56llnT8KSLbRYk2PWtRqK9LYuA49hk/jcVQqwWG2rF7Sh8adGnHcQ/Pd7EDunVtF+Y1PiAx4zIGW9alb4R+02HmDCxePsrRDa5rXrsr/zNDjeUISHpd60b7eN3xRcxWnTt7g0oa+9Ghfn/JfDGGvSZjmQlQcZo8OsL5jD3qJ9HZoUpGu885jFp5GQYIlq+b0p85/lGf6bn3cnL050eCv9J40R5zHtjD2y++o+m0tWncezqrjNvzy3IFfRoqsRPIZI0VWxmcVUmTfivciskEXGTh8MP1XHuf69ZsYXNdm0fjhdB24lnNOiZpvCCIes6LnnynXdRoWSZplr5DOi0sLafKnmrS54E1yZgD3D62hbdtWNG3ehPHbHhP5K3MuC5MdOdrvb3ScuZOzutdFeorjBrf2z+KbalPYbRqhHtkT0vv0wHSaNpzAHqMo1feJPMvgymOYf8xb9Wf4+Z4MXbqYq4HKXxmE3BhP4149mXFHM8cxyQ4Dk7toeZUxsTLdH6PtQ2jUYCwr3ZQF4Zhc38PsC+6ii1pIyjN9praqQc+pxkIBBBk27Pv5z3zT9Ayeyt8FKfjrzOOSnRd39c4x8rYXKXHWHP9pDpdsY8ucrpfhuIPJoqymnnBQbzPZgEE1/0zjORfxKX0hoIRMLDd2YXzbKow8aYOrkJwiq1V0Eb8fo7T9xedFxDvfZnHP0fRb+1g9quK+j7kj6jPBQlRGylMuX13KYB1LTLW0OXH1BXG+emgNa8eFF8rKecS4nGB4z6YMOu6qlpj4B6wo/w++mX8PpXXkux2kxbdfs0w/XCizoDCP59o/c9YxQC0uRY6s73EOI1f1aFpevBl7ZzSm8dRDmGluyw0/249K45Zz5nmKqKMLmN3ZxeRhh9lz2ls9TbcgmEvT1rN2iYGoBUHCXTZc28G8iwacP7+J7oN3ceOAqyo9r1JImJ09OpvOcPv6NXSXPcHe6iRbqnTkuIE1d/TOYupmzKUhLTjjqeQujzj3I0zp25Duuyw04hXFgxUN+HLpdV5kCAUS9ep9cDx1Grdj91PNMWi7kRp/q8K0826ijAtJMt7DopbN2XTZTS3iNovoOHEFhxySxS58OTj6FCdP+/ziFOSiaAMWLe3Fnyos5dJRpSIyuLWsPfUb98EgVvyZF4HjrWl0GzuUJXZKugvxuriCHi22lflgqIJkPx4s7U7VDsO5oRkFDr80gb//uSn7HJSrPGlEXFjApBZdOW2rvgCSqjeUOtNPYqGY6rP9dCzXggXnPUpk1PHQVm6bupGSG8L9wz1pNW0lNwKUTzLR6duZqZNOqEb58wNOMef0fra5aK4mZQXy5OggWvYexRZT9YmkwPkgY0e1p7uuJnFxlhzY0pOvO63g4nQdlMtOWQ7HWNmgJotMs1Sj/vbrhzCq63geKuUhUmW3rzu1lz8hqlAI5POTzOpfny5bjYTKKXhwvMHfqTheC9eUt5snHKLTkiWntHArvh6U6s6lNe1oOHQZl5+pzxepBrNoOXIk803Kmv6dg+O2ISzrOQpL5c/UUII9HAiOC8Xw6UMm7tnDtaU92eOsvvKQH2ONzt5B9LuhvoSXG36fI33+Sr8lBxly1EV1zksxP0Dj78dyVrX/QvwuD+WrEQtY3WUblkFKvgK50rkcg7cZEp6VQfCluTRt3Jw1DwLUx26GCaNqdmTaPktUxUYAR4drc/qoDtfWH2XDiJ4cNHokPsvDbOw69i18/G89AE6KrETyGSNFVsZnFVJk34r3IrKhVxjRvRblajejZcua/O8X9Rm62V7d8SmNENlVvf5C+V8U2UJiH2xnyH9WodUhY/yjPXnwUH0dP+HpXmY0Ks8u29x/MhpSQJrjUfr8uSa1m7akVauWIj2aaNWMWj/8F9+MPoZNnLrjl2a1iSr1x7DmXujL6Y159qxpMZJ5m01UHbVs08m0mTeNbY6F5GZ446y1kPodVzD9go/4tIBEHwfsrFzwfcMqs/C5upxO3bowy/5N3chLckB/zgRajzQVmqOmKMGJiyt+pOlGE9W01ZzkZ1ybNZejOlpsuCl6+EX5ZLqdo3/rE5iHZrxRvoUpbuyb0Zq5l6yIKh5VS3vKonrNmLdbdNDLKrgCN7YO7kLnScdwLh5BfXackfMmM+GmKPtMOy4unM6K9VYqiY3xMmbvzCGsHLkBJyG9mZ43uLmrC5vPP0TvvKLfufjcOcus1rvF50XkhNmiNXcUXQ66qCVVkBdtxpEBP9Jey0O9LMmUA/XK0/ewIwnq3jL+QhJ90rNV9VLguJdmR41xjBMd7aJUnq6vQL1xW3hc6sbDfLvlNBu9iB0as80xX0avTVs54qmpmLBLDF25imm3FY0tIvb2OjbObMvYw0bid+ufPUAoHNM7x+kxbDf37puRIITNTXcjPeuPYK/OTZ4I/4iyvsbsJpuwFJvJj7Xh2Lg/03S9xctR/4J0vK8M5ccJWjgl55HpvYle9ZtyxDi25MFV+U6bqNVyB+echeal27K1Vw8O33gh8p9PqNUjtszsyLxj1/FUXC70EkOOaXPI7Zev6iTbLmRy69pM2f9cs49MXPbMYFmrSRhniePE8hQLZwxllYfyWQxe+vtYPGM2Iy56vPl6m0Ih3jcn0L5Rb+6oRFMhg4BbC/ixzTnsU3PIjNRjUbs+3PBUGlkiXoaXWDapHWv0XYhR2mLWUzbX/I5pWx8Toqq2JFws7AlJSiDu6kYGzz/DPeVBYxnuWF1dQ4/OO9ikp7p6RMSNKZw8uR4blcfmEaE/gX59W7PocSn5i7jNmiWD6Lhb9DlE/UYbb2DMD9/SZ4FdST0kuWqxZ3B9ttkmEGCym1ldJmGtNOrMQEwvbmf21F4ctU8jP96HC+Mq0WK9IrXq75Luw/nRjVh41Y344mPrn1EUz71p3dl1xoBg1frZeB0R56HBEzjhXnwkCHwOMmjyBCbrqq76vEGk9V4OzR+JllHka8e7aFNnDjKr3m7sVdsXbdr2ArsGdeBKsPrzF1eWUedPrfn5lnJBSiGXeMtzDP5hATdCcshJc+RIl79Qv+kxrDTXCCgM5u6k8kw/8RRf1+OMrleLTdefl7pgEsDl1j+yeN0NlK0WBhxm+MLFDJtzAtvQkJcX1zItWDtyG+sOev7ixZa3QYqsRPIZI0VWxmcVUmTfivd1j2zvqctYbaqMtQRxYEoNanSdzv3XX6cTa8rqn7/iHx2nYFymyObgf20Frb6sQW/9Vx+fWxTvwP2DTZlxK/pNQS4mPx77Q/34qvGhMkQ5Ev0p5Zly1BDRhxNyEYHelIrUWXoCy1L94aKA47Rv3p/xR53UUwzd9tNz8jI2GvoR5OdHjI0W0/qsYMByZwpyorE0NsXYWj028QqZrhyeO57qA86KEnmdHPyub2PyT724XWq+XfqLW+wYUJFljxSxKiQ16AHTu69m7ykT0e0XFCTgdLYfzU9aE6aM7L1CAaFXhlN3xgmehBbrkeCZkMCGS9lk8OaDrxQKAk4was02Npq+zEPq48kMnNOXdcJL80yWMm9ia2adfsxDi5usXTKSlmNXcz9SWbOQwPt6bO44jeOPTUQJC9LduXlqFi33iS8XJeN+WUhf440aCVGT7H2B2d835oR9tjpNQhK05/3AD9sfq953mhNmhMHTKDJUI8h5BF2aycobToSIvwvDrjCpfB2WnrIvNXpayIsjrWgycBonXRQzKcBxdS/mLt6JmaqJ5xN4aSBdZ4xhn5eyx1gM5symx59HctDY7eV01TIoSnXh8tF+1F1xAi/FiBLt0VrRnC96LWHfI1F5BaFYXp1Nw632osOeSfCdVfT8th3nvPJfXnDJCcFg7jfUnquLZ0QQ91fUo+URI0KLfaYohSdrK1F9rRaOoqIzHkyjmmhz6y8+4IHlDbYP7U3LxdpYaTKc8mgjW7V0MfnFuZo5uByazbbFq3EoGYUP4cbCZfTvdoFgkf8na5bRr+46rjx6wiPdfSwf2J1Rc63LHJHOCTTh4PQ6dLteYrGQ4Map2d9S96gNKWnJeJwdyNdTd3Hx9gMePjjLsh7daH/AgqgSK36ObqeqjFihh49YlvrcABPXaBLzXnC8/WBmTd7DlYcPMNEex4juvVmn4yNKUyEDswN7OH7iHqo5ELluHBvcjgH9t+BWqplnWG1met+aDNZWLlQkYrJ3Gr07T3vl/vznt7czuepQbrt7cXl7b35YqMXjx4+4dWEHE7r2Y/AtZQ8ZBD9aTe9mazEsmWNdRKLVJgZ/PZWz9onqEfJfI8WYmd0OcfpeqHr9FCOWN6rPxKXXCC116MZeH0mPn7uz7HEZ5xAVCdgd286ULtvQ9lTG6jXkeHNxw1KqDtW88qowCusj0+nfehcOik1mPef+lp7U73Mb9eUAhWSeX53JN620cMnIIsPrHIPqtOOUbak8ZZizsmJzdl6z4866utSdvA+T0o/QTrrPzJp1mLlHudBXQODxtgzrXYt5N/wIK1Uf+Q4bGLt/I/vdy5wG8tZIkZVIPmOkyMr4rEKK7Fvx3h72NGMpKx+pb3zN993D1BrVaDfRgIDSvpUbhPbS9vypSjd2mpXq9RRTFMiNZa35osIATqnuv3xJYUIAtucXs8VGc49dGRSmuXFu0Dc02m+meSDKSwr9LzOuXF1W63ipBTX5MYtr1WHFUSvVyKuaArwPNqPZsOmcE51GFZ4n6Dd/LfOOncPheRiJQVbM7rGCEestCQp0w9neu8x7vwoDbrB65RC6a/lplpQi0wu9zdOpNvCeepqrimScj0+m5/cd0VZ6noVJ+FyeTNXW63kQpr4gkJ/qwdXBLThtF1cykldCjj+XxjVltpDekGJBKkzm8Y7aVByxFL2SG5VLIzr3p4ewYutmDEsykYnZyUlMWLoZi/Qs3LaModvfvqd+s+Y0HbGE3Z6aeinIpTAvnHs7R9O9+wzMNRcDsvzucH5tW/Yog7MpLuhu6k+bnXalXv8SjsX6Sfyj3nIexGgaR3YMJocbUUWIbHh4IBbn9XBLS1OPkucEojt3OTedo1Sd7fTH86lVdzUnbEtdfShwZ3+jpgydrYOq2gr8OT5wOdu2mqumhSbHPWV3izpMGHtAPWU705J5Y1tSf/r+MkbSS1NEsv0ZDguR32GUoGp3aZ5aLK/5DzqONlKJe26wCdqzGrPJTqS2IAqL3cP4qdV5XPNettLcgMvM/Edjlt58RoyHLqMrzOWiw0t5SPY+z9zvyjN6t9IWhbjNq0/jStVp0LQZTccfxlB1TaeIwqIC0UKTMdyyifNXTQjKzycv57WLRQrZDhyevo2FK+1eSnqiEfsmTaX/OncyMy04ML06f63akJbNOjBspg7qViqk9Y3hsxSe39xD38prEEWgIY+Ae+sZ+ffaLL4fQ1bGMy70/YqqVRvQpFlLWi69iZ+qgeaLdloo0qyQjsXmegzYp4dHaDBm1w3xDk+GUF16NG7Cj9Ub07xZUxafNlFPiRcUKAWUZs6+3Wc4fecFRQUifb7aTOk+mv7rXUodA6k8XTuGPjUncEU5oDLtOHRwPs33iz5IMamu6E6dRJNxxngH6bOh2f9QoW5zmrfqyaCDdprZAnmkJXmhs7ocTU7aax5mJkjz4fLK2vylzk6MVcPLv06exw46HdThlnr4mSKHLbRvMpslOkGlzl9hXBnUhb69tvDG65vzUslMTyFNOQiKAri8aildh5/mhSbT+cEGHN49iiEPhMYWZZPtepI5U+pSa6uN6rgpCDNEd15FVpq8PPKKou3YPLkKbS95kpebSbjhUn5YcBPv1GJRzSZSawG1mx7hlp8JJ+pVZuZOc8JKZTlOeyKNayzl8FPlkkcEN9t3ov6Q/dyPKX1WFoJ7ZhRHD+zGpazTzm9AiqxE8hkjRVbGZxVSZN+KdyqyQ4dh4eAueje69B+1mOX3ipUwB7+DM2ldpxvDzrkQUUoWklyPMLXyj9Rodwq7V2Z0io6V+WrGNvsHXSY/fe2+qgKyIvwwvXSXUmNCb5AbeIVlFdpx3jHr5WiYhvArY6nceBe3AzSGm2rKmiq9WX3aXSNZRcQ4nGF0gzrM3/eYiOINRD9g+PQ5NBp7HCd/0dsstGdF7+l0GrCCYzaOOPgWdwJfJc/rOLOnNaDT6ZfjIanB/ti4xJMefIvNC8vRVLv4kbO5hJocYXbHL6nQWY/naUmkpPhwf1NdVjyJJEeVlnzSw4xZ01EXr6AI4oXA5JfKZFH4TWb+1I99d8PVeS+Mx9nsAE3KVaTHluu4xOaRk/16qTznUvdl7FtrpZrKrEyHDjQ/zYC5e1hjpNRALHemtqZb22k8KOmQZuDvao2xR7TwtvvsPzSOYQ+K21EuIbYP0Fq5F7e8FPwstdk8sgozTTRfLkrj2YXtTP7pOxquNSM4XvME2YJUnl2ewg8953Hw8mGu+WahfghuAdnPdRm38jZe4dHEJ2aR8Gg5Vfuu47ynZqSnMArH08NpUHcJB4yjVXnP8T7G4DWHOeqRTWFsAIanVjKo6ijW7XhAWGEuCbYHmbRpMUutNBcrfpE03C8cZ33nA7iqfCQb3ysbmV65D/qq+eA5hFtfZ3vrbdgmpRAdqTygazzfjtR+OQqWaM/FBZ2o2eYCDkmZpFnupdz3m7gWrBactABb9A7Nom/1mWjddiEq+wUX21ag68wLqAaPVSTj+dgMs+BEMnMsWbPtGjdMnAkIjyAo+k0Tz3Pax5TtS1jhrKnvjFAeHh7Nsg1LcVCqIuAcC0ZUpsVGJ/XnChkv8DR8jL2v5u9iiqJxOLmSr6sdR3Wbt6gT5SnHx1ZOoH+9VRh4BhEWbcyOqt/S94CzaB0acqOxu2uGTVKaZmQVfM83ofyY6WzZcxrLgCj1lF/nbTT5YRDzdVTzYVUo93qaWzgQmCT25riF/brnuGUfRmxUDHHeN5k6Uez7qJdm7RwiLbcxom0fBqxwUO0/y3YfS6c3Z5q1xsDEsWB5bCKDGw3jXEAOyTaHmftTZaYaFM+lF8T48/SJPfbh5hwa+yOj9TTHZnYIpspI7qR+NDxlitOLVPJLXaQomyxcdndlpZY+TgGJpGZkUOS2n9YD5rHiQfGNBMk8vzWLDg3GsVDrxZvTucOecPPBVS5qiiX2/nK2jenKNdXtr7kEGOxl97SJWAuxLYh8yrXtA+g+aTqD7saTnxRFoPEh5lTuy93iE2muH4/WjqZmu+2Iw4SizABuLy5P+7Mvp/wneB5lZu2mLLnsQXyeDxebfceUY7aae4TF+cv9Oitr1GHClvv4KwnOeMT8dps5fNX/1fTnPuf8+HXs3f4Ev4w0khLfuOz21kiRlUg+Y6TIyvisQorsW/HuRNaCEaNHcOPEaZyvLaHRl23pOOk09i+KXxESjcX6fnz9f7Xosl4Ha/fnxKh6TEm4aS2lffWW9FpxlqfWtjg6OWF3Zz8z25en9ciF6ofDlKIwPxhvs7uYlbbYgkxiX1hhaxdCfHIk3hb30Zrbnv/3PxPZdsuYoMQ8ldTkxfth+1SP9b3/wn8NXszJp6EkqR4dG8yD0R0ZOnIjZx8JSTA+zNKOLagz6zQmpWf5Rd9m2oBpTNhvox4pKnqG9uRu/FRtLLuf/uLcTtFPdUJrVk9qN57CCTOxfZvb7Fm/k0EzrAhNteL00prUGLaPJ2YWmN57xKnp/enc9298Nf04lveNsfc35+DUFTyJyFWP4BSmE/54HV/O3IeO3g0sooTsle5Px1mwqeXfGbHwKLeV/RmeZtC6idT+z5bMX32AM0ZhxJSeIqhQ5Mm5EUtZPOckD5TvGF1g8rA5TN5moum8ZvHi+FxaVW9Ht0P3VZ1K6/vHWX1sF4usMki3OsaZFcMwKLnJN5ynursYNGQDejaGXLlyk+0Ta/H9gvOYmT3F+PoNtjfoR78Of6X72ivcv2dBklJJRRn4nR3It7Ub0/CgFQnFI0BFeQTqDOKbKRs4rqfNVdMQ4lzuMLHLUEauv8gjkWbTQwvp2KIu885alozkhVzrzJh5Y9lj4MD9/bex195Iz4WLGbxyD08D3Lm4fBzTJ89E79feSZr9jAfa+1i4z0Ut3Dk+XNs4j3I99TVPxE7A88EB+g5Yh47RbW5bhhLw4DBtm4xi9RVRnmZPuLBwII06duGUo1rxsp3P0LpqZ2YcvIWhmTV66zZw88QCvuq3irU7D2EaHoThkQHUazOUlecfiTI3x/zJaQZuvMRFtxQhOJfpunQts3eew9ovGP8yHCHZYRPbVvdn5TlzkQYzHh6fyej5k1ljpxH3FFfOz+tN7UaibRpbqOr19t6THBp6pNRUZA1Fyfjc2ETtyj+zSd8MowdP0Fu9jJOHF/PnXms4rX1RCLYPN1Y1p1KneZw0MFdtz+jeUbpvuI1N5MsNep2qRfO6lei334LQYv+ONmNa969U09Wvmoq0mDtwY9twjl68iJ9w/Sj9gaxdMYZNWjb4BASJ48CPY3On0qb/GnSUNnvzKDN61KPLjM2oZpULpfI+OZvpPzVkw011/o0ur2fenIFMfKy2upxwY/aMq0WVAdu5K9JqYfmISzqHRbosCYt1RXteHf46ZT+Pnhjx6OEpuhw7ya7ufxFlfoZd55+RlvyGdr6GDxcaDmbhgtNcOKMnjuVgcfjas3zASHrN2K8+Pi9sYmCbmgzfrENwGdfCCrzPMHlef9psuSPyYML5JSNZPngZ5qp7DCIw37aBwbW2cNvOAD3jq6w7upPd/aqy4Iwdzkb6PDq2hH+UW8IZC6UdmnHvyGZm9+jHFU/1znLCb7Pl6y+ZsUO0Q3MzzE2ucHxRFzqfMNZMEU7G8mAP6o5axonbyjYusrlNa5oNOSDOScoKhSTdmUaLCWs47vTafRxRdxk0ZR5Dd57ikr4Vdnb/+u+MFFmJ5DNGiqyMzyqkyL4V70xkLZ4ydupoNjetz+j6DWjUsCENG9Rn6k7dkulvRJuyf343GtSvT+cZW3lQShxSPC6xYUAtKn31v6q+xRf/14ARS51KTUHVkJ+C7yMjrp1yVU81TU9Rj/pkBvNoR3t6/HwGM6frLGnbjIYiHQ0bNaJJ81Ycs05SrZ9kupke7RpRv0FDGjVqSIPpZ7GN0SQw24WTo3+muUhffRErtG1KRh9KCDPE2MkTj+K+WoEPeudvcOXBy5HWXyLV+zrbhjRQbbt+j7HMMSkeHskkzPgYE0R51a/flJ4jj2H2wpkL0xrRrHMfdpmHEfXsEdt3mateJ6OiMIuQO0tp3a4lTQ4+ffnuyFIE3B5C33bqvNTfdAdfjwcsGtuFhg2XcNE6TjPF81VSHDYyb7Amjb2XcdTmtXv1cv25tH2Kqg6VddpNWIW+6oJCBr5X76Mzw0h0qzUUxmF/cRENGvdk1CnlKUJCUA22q9pF/frt6D1SD+cQY/Y3bkTb9l254K6R9LwUQg23sd0olJRS0xhFYfNM92e6tW5Ag8nncNC83DLP+SijejdTp7n+KrRLTzMWxFutYHp/Udf1+7H2si/JkabsnNyChp2Xcs7Wlkdbd7JtzX1+8RWsxUTZYqh/kJOumkQleaJ/ZTOjDYq/mYLf7fU0bNqZn3cLKVcWFaXhe30eTRoqaWtK607ncSothwXRmGzrShtV2udy2TWJONuDDO7amJFHrdRT4vNcOTWmLy00ZV5/6UXMi6dh++qyeHAjGkzcx61fek8OUVgeWEgvVbnXZ+ii3RrJe0mqz012DNPUe/0ejJhp8rIeXyMv0QWduUp51qdNj52YhYl835hP204dWXo3THWcFUU8ZkOn1jRSba8RDfcKISoZxVfzQn8Yl83tSt03qybeYgETehenZQAbLnuoy1IQfH89Y5s1YPj6C/gVy2/sU44s6qFZfyjzd7i+PG8URGJycDr1vq2qaXf16T5yJsUPJVeTQ7S1FtM0n9dv3Z2+V300U35ziLM6TusmYnmDVnQ470hCsiOXO3emfcMDGJUxAv4mYRhOH0GnBg1YcMGS6OIDz/8aS8a01aR7JruvB5dML3+d7OcX2T5ZtHvVuuK4G78S/ZJTTgo+N3cwXJxzG3Qbw1y7CLI9brBa/N1xyFQeeQbyeGsbvqxUV/P9VnTufbXUCH8+SY7H6PNjVWrUVW+/QZPmHLaIfW1k2J/bQ3vRXpOGcSeeUvJqX7Gm66lRrDmhi+vrN1anOLJ9QR9x3hnL9kv+ZT5d/W2RIiuRfMZIkZXxWYUU2bfiXd8ja2RkpFnyr5CI+6UNdKn0NVVEZ2u3sT8hJT2pIrITX2C0fwczyy1Hx94eezNzHt94iE9RkXr6rEQikZSiIOQuW5YPp8dhz8/0HFFEsvs1dgxqxBqzX3iMWU4M9qcGU3OBHj6qm3A/XaTISiSfMVJkZXxWIUX2rXjXImtsYqJZ8q+T+kyPrX3qUqtVT34+aICT+zOeJyYS8uQgo2vXpnatOtStV5c6rbrT7+rrN/FJJBKJmshHW1g+fgini98489mRje/17QxrtQ37XxoKTXbk1OgGLH0QWeYsjU8JKbISyWeMFFkZn1VIkX0rPq0R2VIUFZLkfYNtfWtRu+1gJj4MF4sKKcjPp6CwgPy8PPLE/0s/4EgikUhU5KcTF2rG8cmj6FF3LrrPgoh7/X7fPziFOSlEu95g57xufDfyGNa+kZQ8kFihqICseD+eaq+l19/7sFnPnoDEHAo/4XOqFFmJ5DNGiqyMzyqkyL4Vn6zIaijKyxFpzCXvU+5dSSSST4t4By6s6kmN6jWoXr0mzQfN4IJ36aeh/fHJDDXh8Oia1KhRnWo1G9C+9y4sSt8+np+Cz9U5NKwryqhaTWo1bM6iW4FkfsLDslJkJZLPGCmyMj6rkCL7VnzqIiuRSCS/maJC8nOzyRbntxzl3+wc8j8vj1WNuOblZKnynpujlEEeBa9cDyyiMD+XrOxsUUY54vMscj/xKS5SZCWSzxgpsjI+q5Ai+1ZIkZVIJBLJ7wEpshLJZ4wUWRmfVUiRfSukyEokEonk94AUWYnkM0aKrIzPKqTIvhXvR2SLyEmMIyYymsjENDLyfuN0tcJcMpKiiYiIJTEj97N4bUZBTjqJ4eFExcWT+Usvk5RI3gfieEtPFMdbpPp4k0g+VaTISiSfMVJkZXxWIUX2rVBEdvPmzfTv3/8diayp+CsX+7XT6VXhW34aupJTPr/xFfjJnuit7UClqh0ZcNyF9+N1eWTExhCVlEnuR793roAEBx0WValCg7Z9uBagWfxJUEhuSgIxMYmk/tYLEm9FkfAoIfHRMSRnFbzHixaF5CTFEx2XTLp81PWrJLtxZWU7KlXrxtDT7p/8K1g+LkXkZyYRHZ1EhjhxfLYtqSibhLhoIiMjiYyKISPvw5xEpchKJJ8xysG/Z88ezV8fBimyMj5aSJF9KzIzM1m6dCnjxo0jMTFRs/S38/qIbG5qAkbrO7F41QbME39jd68wj8xQM25o72a5YfL76SwWeKLbsz2Nl13DLeXjd0cLczN4/uQeR2Ydwrn0KzI+Omm4b51C566z2eGRoVlWSEFBPrnvRGzzhMSfZnbLDqw0CCfnvVVFPLYLh9FqwBrOBeRolklUiOMtI+gxV87vYLlRimbhp0thXj4FIj7KUVuYSaD+Utq2ms9FtxQ+qUP1HVGQnUth0T8p3aJ8sn30GNKjJdWrV6daxXJMPviYoOz3L7NSZCWSz5jBgwezevVqMjKKOyPvHymyMj5aSJF9K9LS0pg0aRKLFi1S/f9f5c17ZH04OWwyS1beI0yz5LeQ5vWUxye3YpSkWfAeyEuIJSop4xMYkVVIwufpdZatNRb/+8TITCYuNoGU4qHxbG9src0x9nxH3fiiHFJjYkh6z+/9KEpLJDYuifQ/on38m2Q8u4T+saFcDdQs+GTJwOmJBXb2/ny0wzY/ndjoRNL/gLcAFGSG8vCSKdGZ/2SKeZwhq049xNQxkPDwcALuCrGv3pPZZ1xIes9XF6TISiSfMRMnTmTq1KlERUVplrx/pMjK+GghRfatSElJUU0r3rFjB1lZWZqlv503RNb7CEOnLmHpdV/S05NJScsmrwxPKcjJIDlZfJ6aSVZucS8ojWeXrnGorw6qWba5mSSnppP56rsjVOQLyUpOSSUtt4CigiwysrLJzlD2J9YvNd2tKD+H9IwckYYisc9UUlMzyn5fYmEm6alim8kppOaUnupaRF5WhiijvFId6EIKsvPIF/suyBf7ThXbTctCfE1QRH52NlnZpUeOCshJE9sWec3ML6AwT/ybo7GqjBe4PD7IYoO4MkaalDSLckpNI714e/mZYl/pL6f0FeWKv8XnSjmol5RQkJFGqihjpZxeSns+OeliudhGVvE2xDbTxTpZxWlS8iTWSc8uLqh8sjPTcdM9xOENu3kSJcq49DTdAlHGyn6SU0U9aLZRJPaTmSLqV6ybqUm7MgKYlUN+gfgsQ5RzRi7F3WZlZDpFyWdJOeeTpSrX/NdeHVJAZnqqqu0odZWWnkFaqtiPKP/c19pJYV4G6aJsMnKKM5+n+m5qWqamrtTtMFXVBtV/v05hbjaZomxSRRtSjRoXZJOmtNt0sY1XdycoILskXVkUFoq2ky3SJr6fkZ6rmbqbT6ZoqyVpzUsnLUX5jnIsiHb62nuTC0W5l9RhSf5Ee1LqVpRtlqh3FaLOXqnDUuTnpKvSlCHaUEF+LjnieFdXXxFBhg/Q2ayFT0n7eA3lVS5pKeryThH1oxwbRYXimFDXbbqmYRWKYystLePla1xEetJEG8suY+ppcbtME9sqFMdnZq5Ik0hjelqqOAaVV8EoaxWRm5NDtvgsO1PUke0hNh/czxmrRJGPfzYVXbQb5VgT+U3PzFG1paK8bDLE+S4tM1OTb1Hs4vyh1GFBkTLFPUtVvumiXEqKX+Q7N0s5RkQaC3JVbSBdHNdqlLYp2q9oW5ma/Kv2kVPqNTdlnk9Ee8gQ9S3ymSnWVS0rzCFDlG+6OJ+o/hbtS9VGRftRnxbFsZch9i0EU13TStmL8svIfu24UBDpUtWTOu9FIm/52emq4yqjuF2I80WGyEtahjpNRUreEiLw0pvHtFOW+EVlijaorFioSkeKpu1lKucXby2abL6FSVjxeeE551pWY8DUMzimaha9J6TISiSfMevWrVN1NH19fTVL3j//ssgq62a5Q3ZxKN8tY733FiKdmW4ifiW9qnSKKOuz9xEZSpp+pSzSxedKuor/Vv6v5OWDll8ZoaQh4wNeyJAi+1Yo04nbtGnDuXPnyM9/s/P7trwusjF3x7Fg5waOXtrCqmE1qFZxCIv3u5NS0kPMJy/VjdMbxlGjRk2qV+3GuIVmxCgfFwZj+kCXDWcCRWcqCqOTM6levR0D91mTXvx10cFMDTLh6Kjq1GjejU6HbnBtT2vaLDjAwam1qFmzBrXm3uSFys0LybA/Q4dWCzllG4WLbi/aN6pMpVGnsIkpNc00O4tnekP4uU0NkaZqVJlxnMchuaIjqHRm3Tk7phP9ZxzBIq44Ed5cmHKEw8fc8HLay+yWVanSfAobjOIoTH7I2qFTGLDQkmSxZpEQhyjb06zoLLbdfSaTTx/n0Ko29D/iquqY5gQ/xmBvJ848U234VfIS8bg4kRp1m9B45WOiMhJ4rjeHeo3qU2O3BUl5eeQ4nqZNi4ZUXHePgHTN90QXNVscd1f6daFlDbHfapWZr2VNlNLzLXBDa3wPalbuxCqdZ6Tl5/FCdxZ9a4kO6Xod/BX5ctvGwt5VqNxsOjueih5qmhUHZrej3Ddf89VX31G53yzW26unohbmRWF7agW9lP1Ub0CPkcdxVO4hjLfl8rLqVK3Wio5D7hNdGIv12Q0067iV+8+cuDilOtXq16f1OW8KhMwF6c2ibr0G1F5wm1BFXgJvsaRpE+pU2ci9kAx1J18RRTdtenVsSnXV/qpSuWIFKlepSvWhuzHwLykAFXEWi5jQSeSj3TLOuAkJib3P2hF1qdJ0BvusEoTURfJ481gaVuvC9O0OZYwq5RF27yCzxH6qdxzGXGNv/G/vYHANka+WvRh4s9TooBCEaJdrbKyutKHqNGjXjVNWARjvr0ut6jWp2VQLFyFYEU+P0KLRfC56ppFfGIPBytY0rS3asvhOlUobueWbqsmrqMMsL24O601bVR1WYdZxE0JVJuaF9vSfqVW5LUvOupEi6jBIfzGD6lSjzwotPDOKM5JHbpITh5YPEuXVgplrTnJy0zRmDV6Auar6QjG5eo61260p81KWaP/xLjqsqCzyL9JXrU4LOm21Jj4jDJMd1anesAEtzniTkRqG1YH6NGhQg8lXAoW85hFusIzWTesw9KQjcSUXCYrIUtpln840F3kacuQaOht602XLOc6fm8TUHtWpUGUuh59EC9k2ZUrPGczdc47Tq6fS9rsv+fLr7yhXZRxrT/mSqdliaZSLVuEWh1naU6mDajTqN5OLwTmkmJ9iZrVqtOg/kSdxhRTGmnNhvijzdgM5YBbGc4Mt4jxUmTpNO3HeU112hYnOnFvchtannhLhpc/SRjWpXakuB63iyAg3Zn3bRtSsUokJlzyITYvDZGMrGm66hIty0Ivzife1wfRupU5HlZnHMRLyV0Q85vNG065KFcbuv0u4kNg02xVM7lidhpMP8TRJtCafAywXx17Vn5dx0EfIq/8pVvSrSrUBi7keIqQ6xZ7jc1pQpftEzniWtD5RVdkEG55iiar9ibz+PAJ9jxjsTgyneu2WdNj2lHSyibU/zYTqjWja8jhOOUJiA/VZ3KgWFf7xF/7+Uw1qNziMRUwm2V7n6NyqkTj/iu1VrcToU7ZEhRizssN+rlpEipalEMb1trVZvOIKvr9wIehdIUVWIvmMuXbtGn369MHOzk6z5P3z20VWfJ4lhCfVnqxYKzJi1JEZK05aisR9MBFyoiDJnrwkR4rK/FwJsU6iHVlxDhSW+fm7j6Jke9EhEftLLftzVfmliTSnvlynKMWBfPGdgl/8zocIUVYJNuQk/rO0v+OQIvtWuLm50aRJE+zt7TVL/jVeiqyZ+CsdoxkrGVfze+af3Y91iB/3xnehWsOJbHFXup5FoqnuYfacbow5Zoe//wvuLBvGlCbjMFRmN0eboX95C/see/D44XmG3DDB+uQuljXegIXKUbIJe7iVcU3asuiyE37+zzDTXkT5Cl8z+KwPcSEu3N/UU3TIJnLBSy0/BUlenBw3hQuOUSQlB+FwcgTDD5vgXXz/bqEP1/t1pM7YDWjb++HnZ87Bzk0YteAyXtGeXDqhj9bykbTbtIcjbprbM+IfMmXeJmZq+4g+azwR9zeyaudO9t14iNnhQVTsPIfBR70pLErCZv9kBrQdxM4nYttBTpxd9zN/r9aQ5caZiqoQ/FiffR0O4lbWtQQhEtkx7lheWcfYMzY43NrEpitGXN0xhB9naGHlfp9d5x5jem4F5adfwDRcrSOF7hfo1b4OU7bdwtlP7NdkN+0ajWH5FW/SirJIDDNm+5yj3Db0wE77IJd172Ktv46e67ayzzWdoqxYwh+sZdGmrZxwE53lwkzirfYxbNEk+p+150VwBDFZQgjirDg0fQBt+u/kkbIfZz22jhhKhxEGQrgySQ4y5NTx1TTf9hhnkx1U6zGK4bWP4iw6+nGedzi7qCIbLZLIKyokN9EX+2urGKvtxguRr60b9TB7+oBjo+qy57E/aYWFJD5eQ5eGQ1igZYGH2N9zl4tMrfBnhi44jVlQHKmvzRXPz4gi8MZ8Zmw9yvXnor7z04i2PcLqo5e4bO+KwXkdTl225PHRMaxdNB+zBM0XSxBSnxqPs84yNvX9ju5LTzFknwkhfpacWTyWcq23YqNq1vE4ndtIs/Yr0HPwJ8DlPrtnfkPDE06kRrjwVHcFldfcw8XsKG2njqXLV5swDUsh3fMczSouYv9j0Zb9HDmzUQfXUPX96oW+V+jXsQ5j1+vioJStxX46NxnNfC0XkkW7SQo3Y8/CI9wwcMPxylF0tG9idWcr/deuZ6PmIkOq63amd2jFwDn3RXn543lrBQN//Im2w24RoVxFCTPkmtYaNpm+egGghFQ/7h6aSO0JF/B44Ym1tR7bDzmRV5hHerA5j49NZN1dV0zP9uGMgQFHl/xIjZ238LG6wo6bT7mxdyg1tt/DM1FTLx7aol3WZsp2fZxEnoIMN9G+8hd03Xgb38Rwwi130HS1Fudu3WDtyVlU/tMUDh9zJTHago1tFzBvth4uz0OJTlCPtL5CQQTGm0Yzpf9kbj7zx9/2LAtnDqHbEXcKMhJwuqTNwSXnsA5+wiOtgVw3seHiweU0WGdKUmosrre3MPTP39LwpIda0vJicLu1hkr7rEnISiTMTodl5Vbz4EUK+XnpxPhYirY5gqPGdtzctom5Q/6XbkcfEZgmzmmDxPlk3EZ0HZTziRkHOjZm1KJLOKfkkxH5nCvztnLxtivOT+ejfWU3NkbXRRvezKJ7QZATL469DRw5d55T1w5ioLca7TOrGTy3K7OumuBodZ8DZ46xfMMk+ulHqrJelBfK/d3LadF9E498Rd4ttVgx9Sfa6wSSGeXIE+31TNPzxt/+Fhs338HKVIe9wxpy3Cmdgtxk/O/tZ9APq9C2dOfFi3gyssJ4sLw2A7bo8tT9OX73N7PXKJDQ9FzSwpNJz9LMsEgzZlPTlRzXeSbO/O8XKbISyWeMMhKrdFi1tLQ0S/51lKkqSvwav1lkM90hwZKAK+No3agyNatXUke12dxyNqewwOMtZPjfjBwfCNXi8OQh9J90ithCzzfXyRTpSHmCzfEldOmzm+fKKOmvjd7+O6GMsuY54HGwK+0XzkXPQ5zE84TYv75e/gtiHkzk8tnZ2IQEil6QB6E3p7Jh6XB0XMT6OWI7r3/nfYdqdNgU802tWHryBEHRouyyPsAFCSmyv4pyv/zChQtZsGCBaorxv0OJyJpaqdrmdNH5bjl8FTbxaarOTubjqXSa3If5tqLrGf2QdSunM0SIZKwiAAU+nJm7mE4DdIkUH8da3+Hqqulsu2vAdl0PwkQH0k/3NLObnMFbfJ4R+IAj0xsxQ3Tm4zX3qSWYbKXXd9XYa6NekOV0iBHfV2HboxhUY66FObjo3yAgJU0Zn8Vq7QLOWwWgDH6InjqWOzpRa9xKzrmmUuySIadbU3fuCnR8M0kU+bDc3YvV+w9hlaDuPicYTmfhtgWc81Z/I/TuEo6s6s36q/YYPhUiE5VEfGY+kWa7WDWpi+jsR6C+CzkNu32j6VSjG9fCxZ+5wTy5dYj2ez1L9v06hRlhuJ5pzOZLVzl1x5/wmFhsjtaj/Mr9nDx6B5+wOKIMl1Br6z1cE4SdJBmzsU11Jm+8jnfJyNwLjjWpzsJN9whW/ky4z5hTBmzeuoUnj+7wLLOAVKOJzN+5Et3n6jwG6BxE69glXDUjLZl2G9m0fTxHvNV/k+/LhZXTqNdpPQ/Ciu+xTsB6z3L619+EjbKZWBvuHGnK4DO3uHzeGr+wGBLD00VeC0h5Yc2Z1juxS9VMu8yOx0u7NTsePOD4apGXwETy8j0403Q058zCRcn5cKllJbrNvUrJw7CzzVld/wcWHLAgXrPodbyPb+bMJQN8NQWcZLGMy/rz2HTAlHvnnUjJzsZ5y3q2jTiAU5mVkI7XmRk0rdiQfld9CE5SVsrE8+wWBtVajUVmFsGPjjOn5RLOOwspF5+m+V1nd6OabLUUwpWTgPOZJgw9e56jx8zxCoggNkSZ6p1Htt81xlfaxZ0X6gwVirQUFIiCSzZne8eajF91EdfU4kQFi/KqxbxlV0RtChIfM+3MXdZs2YbR/Rt4pueRYTGHJdtFu/QT28i1ZdOouXQdd4XnCep2kO+6hbH9a/Dz4eeqv6OMddFasxmjX5oWmh2EkfY6aqw01LTfIrKEzCjkJAbyZPFEzl85wSmbQCLjArm9uBIDxDn3wAkbQiKT8DzTlLFapoSohk89uNy5HnM3XHs5Yux/juZVejDjjKtqRDj5wSjmnZzLgoMmQpp9CQ5MIDNdKQ9jpi/ew9IbIervvUEW7kfnsarrKK4/i1fVQbzVHlbP6MVac2XLSbiZ3GXt3AM8fLCFy26hZKYEcv/cbOofE7+PCqkunJ7xAxUX3FGdi5Rtpgfe5aJdtuh/5JHmeY5Wm80JSlV9CHFmrGm0lROHDnLV1Rf/6CDi02Mw2dZRiP9qLrilvTyfnGxF7Xmr0FXdL+HDiR16aO1chY7RFZ5GCwV8cYERWzaz3Ex9ESNI/yzXVk/l4IMnGEcmEP5oIysXNmeEEGVjw3iSvM5xbFtP1lgpOU3A9eJOpndYh56QbOX6RIzFITY2acpB7zwKk7yw127DljtmaK014HlcOunhphxqOI4rz5QzZD4p9kdpNFGpF2XvgoIULPdWZeo5M2JU2c1R3a5R+m4CcTbGam9XcRzdxDOpeKrx+0OKrETyGVNQUMCIESNU0wifPStr/trbo3R6lREcPz8/zZKyeXuRFcuFZOWHC4FsVo9Gw+dzw/QKHkJEPOyuYrJzMM0aVmCF9g2SU0QPKrPUd1USKX6EVKHso9RnqinCYpkykls8xVaJ4pHdspbl+kLgEdZ1b0vdbgeIFj84b6yjGvm0JyPEiBce5uQoy5S8qab1av4t/k6ZU4HFOiWfl97ua1Gcvmwhf0WOOKyrzXcjRnLa0V787ojlr6wrhDv3CXoT6jBm2Diso5VH7HiK38YBTB/TgSN24nPlQkBJmsrY56+mW1nnV9KufK4sU02D1mwnzYG0gDtEhDwlN0V8VrzdN/b32raUcipdR7+UprJCiuyvcufOHapUqVLqAU3/OsUia2JhJ46f8/RasYRVZjFqOREE6I5myrypXI7Jxnf3JlYO2o9JouiABZ5lzcCKtB50CuPoXLFmOr4WN1gzZD1n9c0JTxNbSHHl0pHZtDvhT352II9OTKHpAm0CSoQjmRd6W6ldbQsmajMlO/wOm38sx7TzvqQVFlEUbcJjx0TSlWm14tg50WgXD5xi1KMuz6/QtVYPJlx013TUFQpx2duKitOWo+2v/P2cY31HsXKDAYp7Kvs0m9mexRPWYaMaAA1Ef85sutabzGFLX4S/qokzZeea8fTeZYSSFRWF/txcu5jGHc7gr/T94p14dGERs/7JE2NzYjw4P6E/sw5cw0cRghQLDlb/B31HbOCiexp5BZE8Xl6PNXe9iRf79hMyWK33HG76lXr1UZYt2xqVY/bmeygqUOiwjQM75rHkoh3uqtGtOB6Pn8n25dc0whfL45lHOLXChBjlT8R5f+Mato06gINSVYJ4860MGdCK3jql5KIwhNsbZ1Kj2RaU7ma8hS7LvuzO1E2XcErRCICKNELtdJkz6S5hmvujc5OCuT51ETv3HORJiFIeQppcTtB0tBamYVkijRHcmFiJKisu4iQympebhIVyEaLbdM47xf/ChYBwbg7ex4UD9qgVIR+Ps+fYM3kup0xsCFOe/pRuyzohc2MOOJfcr/sKyVYcmzCAGh0v4JqtqcjCUJ7sWkXDttdxj7dFf1szZp4NILMoE79ba6nTtBmzT7qq3gucFW7GrvK9GDttL4+jX5vAm5csJHkhrRadxyLqZX290BX56jWZyx6lxrlyndnTojzTV+iq7x932cPRHTNZcM4a51ilfBIxnTmPrfPF56JtuW0awZwei7ldcj8jRDxcyoJpPdnpoLT+dNxOXOJAf832yqSArEBDtq1pQa8rpfsOhaS+eMLGSuOZr2Oqane5fuKc+1Nfho3bxcPoNApz3dFqNorTRmFCeUS71GlP/dmbMQt52Q6yrTbRePgGjtsliNqO4v6QyYxsNJmDT/1eHkeCOMMpzNu5jIs+ZdcywfdYJdrdyAvepBel4nx0jug3dGPMTXdSlaxmPsfm1hoGrT3FNeNQFBdN99Xj5JxW7HdVnQnEgRbEk639KN/oJC6iyPJz0vAwfECk4np5KQTcnMsYPR/iVY0kj8j786g+cCQLj1kTXVx1AdfoXKsnk7Q9So1QFoiqakn5Gau5HCT+jL/LjoNrmLLrDk4BuarzkI/WUNZs3Yix6taFZKyWb2Z8u2VcCEghm3hMNy6l+1eDWHnBjJjMQnHq3MvmHmuxFGkpCLzGmXVtWXI9RqybgNWZOVRt2p51V/zJUvIZ5M6FsbPZffocVqr2l06A4T4aTtAV5xOxv9xorI82YvRFJ2KL27cgK+4OB1o3Z981n7IfQvdCj43nbmASnKmS5/eNFFmJ5DPH0tKSqlWrsn79enJzy/y5fiuUe+muX79OnTp1VPfehoWV/VzStxZZZYQz0Zine2tSs9cUrtuZi99IIZBFSgixTHrErSXfUKXiWHTtrSgqchffE9tSSZIThcma6bMpYluq/by2fWW/qY4UiHXyk50oKvnua8uU9RSRDTrG5r5daNb3MFFFHqpt5ycr04zFd0pGXsW/yv27r4+MqvLoJNZXf6cwVbPdknXE/5V9K+kpTreyzuuSpsqHJm8ifQV5DjhtbkTlceM451yWyHpQmHaTMwNqMujniVhFBlJY5EnApaHMm9ydkw7uFGWJdBWXk5Km0vtT/hYCWqRJkyq/xWJeso767+Lpyqr8KfkpS2aVstWkXVW2OV7iV1GkuXifqm29nPqsbKt4++rtaLZbXG+/lO5fCimy/5To6GhatGjB3LlzSU//9yeEqUV2BOY2pgRdHsPKPfuxUu4TU5GOxYLuLByxHs+4CE7N6M73fy1P7QZ1GThtAbccPQiI0KQh/wVXN8ymbvtd2CSqO/yJruc5Mr8jR5UZd/632TelIVPvlHpVUNoz9NbXpPzEGwRp+rh5iU6cG12ZyTpexKfHYX5JH5/4HJVY53ufpfXq+9hHqVd+frENFfosQtezVDnkuLCnY0VGLL2Il9LLjLvFkGnbWHMrQHTfBYGXmNBoCGPXWKIayIq8yfyOnWg2VBuvnFxliYpIw7UsmNKPzXYvO+6FwddYO7U+zdaK40f8nej6iEsrlnFPbYtlkEOM9UWm1ZzFOVelUAtJfrqNav/4hqH7bVH6vYVhD1hUZyX3/JJFh9KHi83L0UcZeSnlTDl2W2hTfizrbwaqhO/Zga60nL6Q017qjjSxDxk3cwerrz1Xd0rjjJi/5zSrDKLUeRbnYt3dR9m+10Eje3EYb+hHv7aDuB6tWqCiKFSfjdNq0HCNtUh5MhaHxvNjuQ6csX/tdSUZIbjqLWK2XpDofCsUkOx+genVmrDj9guV+IiTI87HmzBMy4pQ1YheofCRi0xtUp8aNWpTu3ZNfuo6n5N2EWT8Uk868g6jNl/goEW85sJKABfHdmfc0I3YpGarlqXYrGLl1knsdylbkrK8T7F/ZXtWPHhZoEXhD9mxvCktz3mT6HaBhd/8J9/WaEC91l3odsIQN+8XxKoKKpuw+2up8lVtUfbBZd7XSZYQ+B3NaLbvJj6q6xnPudy2PL0XX6d0syxw2UWniqNYctFHVWcvjvam3eTpHHTLUddJvDEz5m1nkU6wyJcrq3pNZ/C8R6IWionl8YpeDO86jofKwkx3zpw/zJBTfqo6f6kwr1Ek2qDzUVZM7cQ2s0T1eoUp+BvupM7IPdzxU/aehb/OWMp/WZnlikCJJdnuJ2k68gxmEcpfPlxo/gNzT9mJ31VlAwqZ2G1vyU+zdmGgXCFKesKQBlXoNv0cvtkauVRRiMvh5RwV0u31C/UcbbyRkU2/4W/V6lOv3QimHzPE+1kwUZrDsSDoJjvm16bVtqfEq6oxmWfXTjC71V7ci7dZFIvz6bVUqHkap4wE0R6vcN42SVW2Ban+3F0yA223BHVZF4Rxd1ENvhmxgXsBYoOaPPldbE35vsu46lXqDRE5zuzuUIGRK3XxFdlKfTKSTmNHsvZxLPmqfXtzashKtm0yERoqSLJi9erF9Nr8hBjl83hT1vUrT8UWM3gcJVpQvjcnd2+m11pr1TEVZbCNCd/8P76v2ZB6nQYw+MJT3H0DSVRtO5vghzsZV60dJ2zUswWU6eKP9zVi1JUXqmOvIOU5N+aOQtsjQT2DpYRCkiyOMLfpPM6ZR7zRdv2M7mAfEEHWLzacd4sUWYnkM6ewsJAtW7ZQuXJl1q5d+2+9N9Lf3191QvnTn/5E48aN2bBhwxtC+1Yiq8hLljPpDluZW/PvzNM2IDtbGXXVrKt8Ln5siywOcctYdFTjhPAonynTkPMf8HhsF7rUrkpdVYzj9AMjCoqENGWIz1NucGnSTI7v3MSplcPpqlmv+7zVOAeb4LBzhGZZU6asOkJIhhDnfLXIbhv8My3bz2Pf3h6abbdi5JRT4gfYU6RXmVpsiN2pZfQcuBd/RdLiHmFzYRqDNx/C6fYimjZQ76tFmyk89LEXEqlInEi38uCqhCtc6tSI5pr01J2yCefQUtOFlTzn2uFyqBc/N9ass2wFe2bXpeHUiW+KbKbYf9QV9s7rxI9/+x/+9td/UGXwdE56O5CkJzo983qy+fhqNvfTbKtVLxZeuiN+vUQ+lO8LCSbHmqCbixhRnKa2HRl51UCkVyOf6eLfHEeSrbYwu1519Tp169F2+SHCEkW+cpSLC3ak2+6kz+rdnNneiE4txTqTtoqyFmW1pxOrTp8iWDW1WOQvx5sI/f4M66jZX+2ubNXWJy1X1IEQXLJEniIvs2V6Z83nIrqOZv+jJ6Iha9L9z6KUyB49clTTIiUKjx49Ukns7NmziY2N1Sz991CJ7Igx2Bjt49LoLezea0XJ+OJzHaatXsJSYWp5cQbM7tyHZsPPYu7kxLOgaFVHLC01gfAo0ez9L3BoTXvm68dqOlSZBNy5wsFOxwgsyuLFzb1MbjiDuyXJziDg9iqq1CjHKF3/kifIFqWHYrCzCnV23MH57mUM3CJJU26HKMzG+1xrVj12I1LTwXU7UZMKy/Zjor7VTEXkvUE07TWE/caRqg5+9P2RTNu9gzthQumSrbm9bzx/bruMpbfVI5GpTxexdNkw9lmmqyVQRQSP18xnct/t2BcvzI/kwY6BfF2/BeutlBwm4Prwkui06hOclcjzF2WMymZFYqszi7qrHxGj9EILU/HRncp3I3ZhGKmUXi4RD5ZQb9kDvFUjno4cq/ITq085CdUsJog7P9enx1gtrOLFOkWu7O24mFVHbYnWuFuB0z6WHL+Arp86sbHGs9h9TnTSiyU1SI/5uzcyR3S+1YSIjvwMxnbeIZSpmFRcT01lSJPWnHqh9NjduSREtvZeI9JUNvySjFBn9JbO5UqwRlhyE/DQm0Wt5Rfx1Qz/KK8DubNoFBccw1+OaBPNrSlrOXHzAVaiQ+vkn6gR67KJuDeCTZdPYlH8c+erxejl81l0L6Ck0+6js4Njew7gUGoA+yX5+F1YyJqOvbhRfLGhKBKTAwuo1W4B91KyCL65nCHf1GSDnhNOrp74JKsTmxYUSFpWFPaXp/LjWh0CXg75U5iTg/c1RVTVelDke4xR9UUb81QuRnihVasCK/Zb8PI9A+E8GNSYnkOPYBSl1JE7h7ovYdkuCyI0RVjkfpTVJ06hHST277ycXjNGiPp6OWc41nY7I8tXpdtYA2LFKpkexzl/ajRa9jlkBAegmnxQQiFxIS8wu2WjHlksjMTy7HxqrzRWy1aqL0/2N2KErhfKzF9yojDcXYUflp3gmZLPogxcTzdj2FkrwpVRPp+ztCq3kNPWL6/YZDocpGft/6bXjvuEKlly3k7TRWs44BCnvnhSghenB29n7277X3g9VRYu20cxvGZn1t4SdeDmR4iShsx00kJDRcnlEaJ3jPWt5nAlTFPJypTpmwdotcuj1AWWNIIMjjC81jwhrLbonH9KlCrzuaQ8v8uSWdp4J6hbW366A8frDWXnDd9SFwrA9XgNKqw4hFmpF0RE3BtIk57DOGwWq5Qqj4dNYOXya3gWG2CMARO3nmPjE/VTy5Mtl7Jk62QOuqhbaLbTVkbNaMygK74q8cz0Os7urf1Zba1UfCr2ByfQr0ILdj8QeXf3wV9x6MI8UoJDyEzz59HZKTTYdIdEzYGSGenC1QVjueqv0lhxmOqzqP5ezKKVi32F5Eebcd1UnDNV62dhuq4u07WMCCp1UUXZr4drKCnJZR407wUpshKJhNTUVNU9cf/4xz/o2LHjvzWtUEdHR3UeUOLPf/6z6h7c0iO0zs4uvy6yqoc42RB9ezbVvu3KqaeWFCqimP7aeolO4pdDyJJq5FJEzGVODG5IuQ4jOXjtHNY217m5pjEtavZj/21jIbNCSFOvcLRHbb7+WwtmrD+MnY0BJvu70K3h36hcsydzF+3ByuYeFof70WdAU2bpPhI/vgGiw6bFgZGV+dNfG9B/0w6x7VtY6sxlRpvK9Jp0mkiUbT/AcNN4vq22Bo/cZ6I/+gizDY354vvqtN55CGuLy1jfWsuC9t/RaNF+AuNE3oV8FsVe5nznOlQZOJsb97WxNj+H1rJatGw6A31nK/HjI0Q52wbng11o3qMnG7VOiP3rcftABzpV/R/+1GcWVz1eE1mlPFJsCXY7zJrOlejSrg+nTE0JE/IZfXsyQ6r+lcYDh3H9yR2sLQ9yaGxzWjTti46H+F6OMiXZGr9LU0UnqgEz9p0R+9PB5PJ8Jgyoz8A92qRmi3VEHQXdmk2jhtUZunqfSLcO1rc3sLh/VdosP0BQothWthMZj+by95/K8+Xk2dx6eB5rN2NSEw0xmPUdQ7fswSdSCGq+N+G3+tKjagtmbTuApc01rHWX0LN1LcbvPiI6DsFCzM+zfNgAek1ZyT2L6yJN2lxb0YGW44aw19bmzZHw10OKbAnK7IuIiAhsbGxYsWIFrVq1YubMmcTE/OIQ4G9GEdnho8bjdHkO0xadYvVN1V2YEHqDZb3H0m+dGQFKnyvNiqV96lNryHbUd+gJLTHfzcmtczASveM4s3OcFNJrVNxhygrg3o3T9N1kSNLzy2zdsowhFTsL+VE+TCPA5iB1+/al6w/DOO3qhrlVkvrVGblxPNn4F/5csRKTT9oQJfatLC7MduNsqyGcfxKE4617eMXHEvxIyFPtZZywVZtOzOOJ9KpeiaH7nhKi6shFcl90PHdsfSCkz5+rBsYcWtaZGbvWcubaMxKSXbi1fgArRi7A7JWOXhh3F/ZjUJsZmCkjQHnBGNxbz091OzGi7Vx0AqPwNXPh/t1jdNlnStIzCwzDX3api8lP8MJwf33WWqWo85DiwdX5tRh2xk19sSA/GafjDVl+3x1L3fuio+3K5enVqbtGFzeVw4RgMLIT1WqM5YRDtHpEJuQK3VfqoO1cLDn5uB1dh5buFXQcoohJ9MFq4XwOrNDFzModbw8nbAwWsWnTInRN/fC2eyrOgrl47JzKmDojOKNMlxT18Ux7KS2rNqH7UXvV6E2q1yV2zGjFPBPVEFgp0gk1usyCZgcwjQzB/LYdMfHPMT9cn9Xm8ZoR2nwyQx6yfOYZHNwe8NQ/l0zRr39+oy/t1p/H9Zfu6XwFUXcjJnJk/xMsTazx9AvG23gqO05t4lGx5Rc+58qhcxw7pI1HhA/u6rnjL8l/zsWFi2jT6SxBKrtK59nV5Yxt3JEdxgnqCx2G2xn2j+r0vqM5pvKjsb2xll7aLiRG2XN5fl1GXQ965VU9+RkB3JrbiMMWoarRS7wu0OK7DZx1VqbYJvJwRjVqLz2NulkKSZzYgxqVh3PAMlwt7uF69F19kePWxRpViNeZzZy9eIGrzzJxP9mXPhM6MkNz1SfS7BGHhv3E94N7MnynPakhHlgYXURn61LxmxKDw1Pv10bccgh+osvO1huwVBKYE8KTk9OpMPcOyhazhQzpzB2JznO1bOVEPuZgwx9ZbhClTl+OaP+Lh3PGxo1HN8Sx9GgrlSpNZYthhKrMcuz3s3vhz/zHf01kt84VbGKiebS+KyO2ncLi5RUYNd7HGbRsL3vumeDq4ob9c425l1BAoM4MerRsxfR7mqd1iXrT1TrM6OMuoj3Fi9+Yk6xY8KTk9oHskMfcPdGDtaIO/ayLL7zlEG22i17//QN1Wh/nSYTmUkduEl76i6i//TGBAWYYPA0l0vwkrX/axHXfVxtizJ0pVKu9gpP2auWOejiOnuJ8Mny/FWFKweTYsmPmYXTvBamOZ4Xoh5PYpbMfLcMQYqN9cL68jaN7D+OsKsgs3HYMZ7Y4j97QlEvwg9NobVvGRbswnK0tcdcRv5/fNmXcU80ocKYfdy+vYbBeCHlRT7m3vxlbnIr3lkGEmz7LZmvhGfQUG884XK4uosHyu/i+EHkzDyXC/AgtFt/AUbnfXgir8ZqKjD58H/9SF2KU4zMnt4ii1y5QvU+kyEokEhXKSOypU6do2LAh5cuXZ/jw4ezZs4ebN28K+XR+66mGysuwhw4dWiKzSihC27RpU7Zt28b163r07tEJa6PzvyyyqgcnmeN9bBA//DibO77W4kejDEkp/r5mhDZYtx0NOnRj9Z2H4kdTeeyFENAsLQ42qsKg8RtwjhPd5Cw9TvauRK0WI7nqJvZDhPg1P8n8zn/n6+YDuechhFS54y3uFKuG9KPNhFPiR070kIPOsHNgTX5sPJF7AULiUHpplrgd6sugb9twwFFJw2NMt0+hcoMNeCkim/gAk7Wd+ebHCVzws1WnJ98GvzPD+KrqcHRd7MQvpz3h18bR4C8D2WmpPN1VuStJpDNsB6u+r8D4LWeISPUWiw7Qv24zBm/VIiZHuUYeKH5LznCi+U/8pd1kLnmVMbU4U6Sh8BFXR4oO0+DpuKUol4O9CLs6ik4dajHgtJ4ywUgsCybbfD6Tepenz6FboncfSNGLw+yeWp4GU3YQmaOUpchvvhkOe3vRuVYb9H29yQu6wJEJFfhqzmb8Y5UyEekqciDixnh6VKzFcaOnFGa5imJZSIVvWzHr6iPRrVLSLsQ13ZgH8ysyducBnkcrZXWFfe3/ztCpW/GOV8pWKQd3bHfXpe6Afpy2F/Xss5quFboyZru++EzpWYpyinnAM7ebBIaLH7HXpzO/HkJkA9zvMHr4zzRv0ZLp06czbdq0zyKUvCrvjFbuie/cuTP16tWjdu3aqqeWKzMynj59+m/NxigL1Yjs8FFYmephdXkeXZvUpmGDBjQYs4CVel4EFg9/FmYT+Gg+Q1v/hcp1xecNOjFy+kEsAn1ILozAVPcMazcaqqfrKqR6orOyFf9ZrxsT73gT7PuY/cP+g3I1xHfb9xbt+ha6B6fy5X9UoEHHE5ip7rMVu8kIx2xnOZadvoezahhTTWHkbeZ8XZGKlWqz8rwQXCH5eRkxPNzYjpaNa4v0NKBmj0lsu2ZHRMnDS8K406cHrb6pToNBy9hnE4HbpVH0rfE19SYex83PnDX9ZzJwmoFqmu9L8oiz3MrsTn+iYh2R3v5TWHD9NgcX9eL7P4n6mG1GaMIzbq5pw3/V7MLoa+6kFO+yhDwSnxlxtPkaLDVPfc0MM2RvzcGcsUtQS2leCDdn/J26tWuy9qIrscr7MGNus6ZZExor+21QnV7TDnDTObpkVDRErw+rdHVwKHnXTDxPJvWkWflGjDvsQHJeEDfH/Uzlv1eh78KDQoiTCTSYz/CqX1Jv2GquuSeqRuly45y5vWw4zasp+6lDhx792PfQG3+VmSXhcXEzExrP4K7qvUqlScb3yiL+8kVF6rdfzc1nsSSEWHKy+UrMorJVoqPkPd16NxUr1qHmpMNYqkYhxWnUYiUVG9SkWt2GNNxyF+9/JrQFrhzr1o4Kou5GrNfmRXoSRrO2cm7zA6KKO+AZDmye1InvK/dnzT0fUl8fYEq248g00Qb/UpV6jZR8dqffwJOYufuqpz8LCtJfcH/DML74vqqqDTXt0J3l1x1xikkhzvYc06sP5azrywf/KBSkWbK/6p/4qXxN6onvNKw2lKUXvIhUveC4iPTo+2xq15wmtZR91qD7pJ1ctY8kWdNGwvQHsfbSGZ5qHuKklLf53AG0+qkOo/bZExXtyIUZXan2Uy1Vmqev0ePWhfn0qPU3vum5BIOIJPyvrmPQ1z/QbupF7JJez3gaL/TW0vWLv1NBOVbrtaR1h/3cClemiGcS6XydRbN1eKGyX9FOnbSZ8d0KHgdnqQStKMOGg1WrUbfGBPY/CSIt+QVak2pTs0ot6ov8Ttp7lScXltCgXHl+6rmWO26G7Ow0hFV7jAh//ThwO8bg7uX5vuUUdj/xJ7nkAWYvyU9z4dLCPlT/Xv5ekFoAABdySURBVBynyrmn7zgm3nDDPUIkMNoS/bNrWPXo5dhpmp8eGzr8B3U6Cxl3TtTUTSrBVmcYN2wfD20j1RcYFLJjMNr0Df9ZUdTvPG1sAqOwO9aEb8T/neNfTWxhWjT317UpOZ/U6DmJHdftiUhWN7hcx10sO3aVhy9v8ufZ+UH0rPItvZZdJjjRnyv7T3DorJP6goD4Hb0+ZQWLh15T/RKKLeB3fhUDvvuJTpPPi3pLJifZlXMLfuY/f6yp2mfLngPZaOCNa1wGMVZ3OdJmE46aU7CSx4Bby/jrd/Vpveo6fnFC0rUG8T/V69Bw3gUcQpMIvzWLr8v9SKXayuuU6lBhzn5MAlMpeRWzINPhKCN7NGKhOI/GlVr+PpEiK5FISlAe/vTixQv09PRU98xOmDBBdYJo27atSkQbNWr0q6GIcLly5UoktnQoQlu1WnW6dGqDjfGFfy6yyaa4HuhN+R8X8ihASGBZIquEIi/KiGyWFRYrKvLNlAUYvRDLlJFa5Z5KfAg+0oxmffpx+KkQxwJ9jnatyIjxS3BLELKUp4ws3uT44F6MG7eRgFwhWrlCtOKvsHVYf+r32UBAXqj43TjKxlm9aL/6nPhxE2Kp7LvwBfnOO1g/9ic6XzAU6XiC6Y6pL0U2zgDDXX2oNu4A0UpelQc0iR/yyBtzKfdDP87Y21KQeJ+bsyrxzfQ9BCeIzwvFvnNFmvIteDTxByrNWotDiMi78XRq/TyNM0+F7CpTmYvzdrA5taaMRcvpFx72lHmHC0NrM6z/JGyiFWn1JPDSUCZP7MYBB2U/SlkFUeCyhgUiHx22XhXreBB5VciP6AQvfiy2q4inMrVbLE82Wsb8r8qzSkhqsv0WVlT+gXFXjET5i/JW6iLHg6LQSxzs+yX1t58jKdGBbMOlVP1pJledn4ryV8pAlEWaRmR3HeRFzDMKLWfT+ruf2a7/SOxHiLNyr7EQauym065mL+afeSD2cZl93Rrzw4/VmLpnLyEpivAqDxfzEZ+Jff/aa3w0IjtGiGzLli2ZM2cOM2bM+CxCEVnl3yVLlqguKB0/fhx9fX3Vq3betcAWU/ywJ2PxLykBeNmaYWJigolb0GtyJ8iPI/yZNeam4nMTS1z9NPdtiW5jYlwsoVGlRu8KskgIdMbOzglX1UBLLklhdjw1E98Vx7hzjFg3PQwbe3tsbSNKxEJ5wX96jCdvPEgzJ4FAN3usLMzwT8wtGREhzRMXG1NVms3cotRTKUvIE1nyxtnKAlO758SI3lxBagie1lbY+oaRnplOqF8EvuFlTLErSCTiuQ0WSl7txPGYkkN+wgusbR1x81KmkOaQpMqfI87qGypfo1CIdrKQhuSSTnVBTjJRLuGkZGt6j0XZxPu7YGdpTmCx5Yicpbo5Yq0qYzM8Yl5NW2asO/FJ8WiesSTIJcXfCwdRpr7hypOm80kI8sbW2gLXF+GqEdLC1HB87Kyxcn9R6p2gSpEG46LUh4kp9l7+mtFUBSGi0eG88Ih+4946kQuyEoKwtrPC2vq5arpoYU6qyGcSmSXvGi4S5RyOo4MN5p7RZBUkYLmvHz13aXPDxFbdfh6eoF+vDjRbfQ3XN18AKzaRQfQLD6xF3XmExKnaWYpvPHFh2aJkNRRkEC5+RyxtPHgRXzzZ+CXx1gdYN7kFM7QsMFPatIkNLqq5s6+SlxauqgNVG7KyJ0AzSzwvJZoXzqK+XqveogKRX0cXbERbNBXfMbV4RsJrA/Lpns7YqMrWDLeoUvdcCrJiPYlPjC01yptHWtAzHJ/a8ixEPXqfEfYcJ/E7YmJihWdwMpk5iQQ72mDn/pxY0VQK44PxtLLG2fPN+x+VOspODMXT3lrdfk2tcHBL0hwzouWmxRIQmqa56FAoRDKeQI9EMorrrzBF5M8BG3PxG6NpvDlRbjhYqvPrGp5JfkYML7xssHQNJSldHCveIUSKY/r1w1Z5mnWQhzWWtj6Eprw5a6GY7JggXMX2VeceO1GfxQdydjIJsSEoTltMQbYoCzc7bB2ciC2p9nyyRTrCSp7cpKEoj+RQOxysn2LxTDluCkiNcsItLpnX3vakJs3j5fnEParkvKRQmBJKWEISJQ+iFmTFBeJmZYVbQJTqSdZxUbFEa6Ywi6OV+MAYwoIzNW22kOzYIDyUevOO1NRbEZmJQdiq6toEcztXwjQ7zUlOItI1pWQavarulGPP1hZrv0TxVyE58c9xtBH9qmfKMVJEXmIAbvaW4hhT8mCGRWjGy+NFQ0FSAA5WJuK4SnxlpsH7RIqsRCIpE2W6cWCgOJGKjq4y/VA5ET558uRXQ5Hg/v37l8jrf/zHf6j+/frrr9m4cRNHjhyle9d2vz61OM2SUN3J/FBuBBcdLClUxCb9tfWUezQV6VPu2cw0x3BRVQas34JzqJClbGW7InKfE63Xhvr9urP9sYU4399Siey4iUvxUERW+X7WTbRFh3veuB28yPYVy4S0xeqwZXgP6vy8Gt/cMOFWR9i4ZABdd18Rvw9i+8r+8/wp8trH5mUVaKaI1usiGytEdr8Q2fkHiEoW6ysim25F6NWZlPtpIOccbclPvMfl0X/jH5Uq0LBBbZo00kTDGlT9VpTdlA04hbkSc6Ep1YZN5IqTlfi10Ei6yFuUbisaLhwrpPjtRVZ52NP8yd057SDSkyvqID+AXIeVzB1Vni479MQ6zoTqzGT0f/yJCrXraNIjomltGlT7lnLfVGHxIxMSrNaz8YfKHBIdyAKlzpS6FPVUGKmH1qTv+GrNEWLj7MkxXCZEdj7XXEX5K2l/Q2R9KHwymcYVf6J89Ro0Fftp0rCW2G8dmtb8jv/9ojPLT94VP6aeJPtrcbhLVSr/79+pUb8+TZt1YuVBbRLyRL293j5eDyGyfi76TJs4lK1btqoebhQVFfXZhJJfRVqzs8uQq/dAscgaGf77T0CWSMoi3mIr7dfu5KxrrEamBIXxONtdZFGDHegbh78cQXtnJGC1aylTeqzl6Rt2JZFIPiRSZCUSyTvFycmJihUrqs4FSnz77besWbMGW1tbMjIy8fTyome3Dm/xsCcHkk2X0fPrSsw6f4eMNCFdpZ8OrIzChl/i+PAOHLl2k5RMe8yXVKXewpWYB4jPVe9HFf8qInulNfWnD+OYraOQT30OC5EdM2EJ7vEakc28wfmhg5k1dhvPs0qLbE/q9lmDX7HILu5Pl106GpEV2y54RobdRuaNqkiLs78gsvuEyM7eT8QviWzCHS6N/4ZvR0zl3OVDGOgfxkDvIPdvHMXESBu7Z2ZkproSf60ftUfNRMdBGdUsFlk/Ii+1osF8IbIOv01k507qxgl7sZ0yRdaFkItTmPRlJcbtOMD9W+o0GVw/xKN7Z7C20ycs2Z4Ey7Ws+rYCa+6Yq0VWGZEVIpsfcR3tyT8w8NgVUpMcyX6ijMjO5YrLL4nsMwqeTKLRj52ZuHYz9+4fE/sTZSH2+eDuWWxN7hAZYkuhMlKPB/nPbuF87xQPH2xjZ5eaVPlHa5ZpGZBV1vt9S4fmHtmZU0Zw4vgJpblK3iMlIvsOXuUjkbxBUS6humP4sv48Lnu8Omqa9nQCXSZu545H6QdtvSNSbTiwcjq914tzkmaRRCL5OEiRlUgk7wzlXbKLFi0qEVjlKciKwCqju8U4OL7l63eyPCgIvc7FCX+h6qxdBCYIAcrRjPopTycWAhp6uQ01v2jMFv2H5BZ64bWnCt8Pm4S+u5A6ZfqtMmKLFU/H1aL7qNk8CPQR29D710Q26CibhvWg9bjTymM9NNtWHpw0lxnVqjL9no3Yzmv3yP6ayDrYUZhkzP1lX/Ht7B2EZWru61XdR2qO7ZxB7NW6THSyFwV2q2hQbwDrrt4jTwi0quyEUPvsa0r1yWM5+xZTi21jlKep/prIXhfrPCPeYB7jOlVn+CMh/8r9uKp0PSPbbjcHx4/AOMBTVNEB1nX+lubHbqrrRHkKc44LWS47WVL7a9bpGZIn5Dbz8ZJfFtmdB1QiW+S4gvrl+rL2prHYj3LXj1IWkeC8gKXb5qNnrwi8F+SJUB6spfr8uUjacTa37szoETsIUF6TpDzduHQZlA6NyMrX73wYpMhK3i9F5MT68GDTSBo0bUrzli1VtwwoMWrtTnR8Q1BeS/wuSXS9xOZ+Vfjqq7/wXxXbMmmxHr5yVFYi+WhIkZVIJO+Mhw8fqp5SvHr1atV05LS0N+8Zeuv3yKpe7eJEouMCxpWrSttFRwnLUO7TFAJT5E3YzZ50qfIF3ecd5XmMWJ7nQbbbCibUqUjVebvwTBLSSigZlsPo9bc6TN98WXRqhPikXedwlwqMHv+ayA4ZzMwxr4msENc6P2tENlSLfYMq8H9/b88i/cdi20Ky4i+gNfInGtacj3WyIrcPMREiW6n+qyJbddabIvvDjwPRslMeYuVKsuMSplWuQft9F0nOVQTNh3D99jQWkr780m0y8kR6ku9xcngVqg6ej3GQkEGElPrsZFrLP/PfPaZw5fWnFiuhEtlbaPWvwdAB03BNVd6Z4UWA9hDmTOz6hsjOEXnpvOMqRUV+FMTro7+6HU1b9EXXS5FHIbMR5zg0vByVes7GPdaboqRHmO1szxd1W7PXTIi8IrtpDzCYX53yHSZg9lxIcI4jaQ+XUOXHskS2AmN27scvWuQvzRz9FbVpUHcsl62VH6RgSLjO4u5/psawaZiFCLl/voslw+aw94qhel/KSyh8lzJ9aAsm7LhMeqHYzj+bXixF9oMiRVbyQch4junDW9y8cYMbmrDwf7uHE/5WsuN8cTC8g8H9Bzy6dx8jK3/Kug1XIpF8GKTISiSSd0JeXh7Pnj3D2Ni4TIEt5q1FVgll+nCmvZDW3WyeXJlWbRvSrl1T2rVuSN1v27Bo32584pT1FEEU/2bYEmy2njmN6tOqcSPadWhOky5dxHqneREt9qM8xCn5Kntbf8PgEfNxiRdyphLZ65zu04dJQzfhm+WnEdlLrO3XiYpdluOTG66eWjyzLdV7D2PB7M5i2y1FOprSdfpCDO0syS8U4prygMcbx/FNVc3rd2Lv8XBHN76fvJvwUiIbfHkyf/l7b45bPaVI2X+uLWE3FjCmYnVat2hCu7aNqPNNO5Yc1iUyTcip8p7ZbDey/LQ5v6YRndvXV+Wt3aDxjB/0Fd9NHMdZxzJEVpmine/B87N9GFT3S+p1ncZxazOCrw1m2uh2HLItFtlAcu2WMHXgV7TcpEuh6oFTHuQEXeb63M60qi7KvUNTWjerT9Oxc3jwTEirMjou6icnVI+rm/rRsXIdkW5RN23rU3vGXG7Zm5Kj3NecaSccfD7f/X0G2k7mUFgsskbcnfENQzaLOowQZZAvyitSh8uzatOqaW11/hqVo8PoKdx1sqUgz0eU5wPM90+hT8dGtBbpade+BS2rNaD/3M04xIptKg98Kp3/10OK7AdFiqxEIpFI3idSZCUSyTuhsLCQoqJfvzT9m0RWCWVUkWfCLQ+if2Erl89sEbGVq5fukJQh5EZ1v6iTZl3lHkoXUoxPcPesst4WdO/qE5sqlhcokif2lfqUINPTuNjeIzVFLFelwZIwy2t42jwiQxkJVpYlW/DcShdzi/ukZwixizPCz+0Wzl5PCHc4Jra9mcvaR7F8ppw8RRqVfKTaEO+hj8njB6Qp94wmWxPndQVTB0OylSfqqvLqQJb/bYwMrhIa6UCRskyZlltoR9St/VzXUqf7ivZtEtPFcuXdqKqn8Yr1Cl5A8FkMr2jK4d4tAjwuYO1xU2xLlEHJPcSlIlOR8ju4PtjDVe2TOL+wJjv4Bl62OgRHivVVT332oDDKAC/rU9h6CLlWbUfsN9+dwtDbmJ3X7O/iIUzchcQqTx5WbV+Uk/LU54TH2GtvV69zYQ/3vGzFd8Vy1XYcyQu5h6nBHSKihWwry1TlYEes42lcPQ1JT1LqQGwvT+Qv/AKm17ept3V2J87Pngqp9hWfOwqZF/Wd9gTXR3vVn4s60LlwDk8vUQdKmt7iqcVSZD8cUmQlEolE8j6RIiuRSD4ov1lkVSHWUaYFq+6LLA4haIoUvS4vqWKbqley/NJ64vMi8XmBEK1iAVaWKSOqhYqgKctEKEKrLFO96kZIVIaQynyxLUXQ8ovv0RTbKRFNzXZU93BqtqOMiCojsyrZLl5HpCVbWUcsV4meZrnqntvSefyF/OUU71sJsR0lLUq6MsVnZYlcqkhHlvhctb4QQWXUUnmVToH4v/Kd4nUyRb4KX8+PWDen+LtKiM9VrzUq/lwTWeK7JeuIPCjbeONzkdZX8iP+ny+2lyu2VzIdWKTjlfyJyCuuE83nqgc+lS4nsb4qzcXr/JOQIvtBkSIrkUgkkveJFFmJRPJB+ddEVoaMdxBSZD8oUmQlEolE8j6RIiuRSD4oUmRlfLSQIvtBkSIrkUgkkveJFFmJRPJBkSIr46OFFNkPihRZiUQikbxPpMhKJJIPihRZGR8tpMh+UKTISiQSieR9IkVWIpF8UKTIyvhoIUX2gyJFViKRSCTvEymyEonkgyJFVsZHCymyHxQpshKJRCJ5n0iRlUgkHxQpsjI+WkiR/aBIkZVIJBLJ+0SKrEQi+aBIkZXx0UKK7AdFiqxEIpFI3idSZCUSyQdFiqyMjxZSZD8oUmQlEolE8j6RIiuRSD4oUmRlfLSQIvtBkSIrkUgkkveJFFmJRPJBkSIr46OFFNkPihRZiUQikbxPpMhKJJIPihRZGR8tpMh+UKTISiQSieR9IkVWIpF8UKTIyvhoIUX2gyJFViKRSCTvEymyEonkgyJFVsZHCymyHxQpshKJRCJ5n0iRlUgkHxQpsjI+WkiR/aBIkZVIJBLJ+0SKrEQi+aBIkZXx0UKK7AdFiqxEIpFI3idSZCUSyQdFiqyMjxZSZD8oUmQlEolE8j6RIiuRSD4oUmRlfLSQIvtBkSIrkUgkkveJFFmJRPJBkSIr46OFFNkPihRZiUQikbxPpMhKJJIPihRZGR8tpMh+UKTISiQSieR9IkVWIpF8UKTIyvhoIUX2gyJFViKRSCTvEymyEonkgyJFVsZHCymyHxQpshKJRCJ5n0iRlUgkHxQpsjI+WkiR/aAUi6yJiYlmiUQikUgk7w4rKyspshKJ5MMhRVbGRwspsh8URWRHjhyJoaEhRUVF5Ofny5AhQ4YMGe8klN8VU1NTevfuLUVWIpF8GKTIyvhoIUX2g6KMxCpXyqdNm8aRI0fYs2ePDBkyZMiQ8U5C+V1Rfl/atm2Lra2t5pfn7RHOKkVWIpH8NqTIyvhoIUX2g+Ll5cWiRYvo06cPAwYMYODAgTJkyJAhQ8Y7CeV3Rfl9UX5n/Pz8NL88b49wVimyEonktyFFVsZHCymyEolEIpFIBMJZpchKJJLfhhRZGR8tpMhKJBKJRCIRCGeVIiuRSH4bUmRlfLSQIiuRSCQSiUQgnFWKrEQi+W1IkZXx0UKKrEQikUgkEoFwVimyEonktyFFVsZHCymyEolEIpFIBMJZpchKJJLfhhRZGR8tpMhKJBKJRCIRCGeVIiuRSH4bUmRlfLSQIiuRSCQSiUQgnFWKrEQi+W1IkZXx0UKKrEQikUgkEoFwVimyEonktyFFVsZHCymyEolEIpFIBMJZpchKJJLfhhRZGR8tpMhKJBKJRCIRCGeVIiuRSH4bUmRlfLSQIiuRSCQSiUQgnFWKrEQi+W0oItuzWwfszbSFWHhDnhfkesqQ8f6D5wR63mXW1JFSZCUSiUQi+YwRzipFViKR/DYcHZ3o1rktD24eJj7UjPgQU+KDTWTIeP8RY4WtyQUmjxvM0SNSZCUSiUQi+VwRzipFViKR/DY8PT2oU7smFX4qR5VK5WXI+HBRuTzlfvhW1f5OnTypaZESiUQikUg+N4Szli2yIsxlyJAhQ4YMGTJkyJAhQ4aMTzCyRbwism4iimVWhgwZMmTIkCFDhgwZMmTI+BQjWsT/iVCh/KeLDBkyZMiQIUOGDBkyZMiQ8QnHl1988cUX/x/ZLPs4BnpS1AAAAABJRU5ErkJggg==;" vertex="1" parent="1">
          <mxGeometry x="10" y="480" width="946" height="359" as="geometry" />
        </mxCell>
        <mxCell id="DzpKq4usoAJbAamXj3DQ-2" value="Chapter Four&lt;br&gt;Theoretical Background" style="ellipse;whiteSpace=wrap;html=1;" vertex="1" parent="1">
          <mxGeometry x="330" y="30" width="120" height="80" as="geometry" />
        </mxCell>
        <mxCell id="DzpKq4usoAJbAamXj3DQ-3" value="Research Question" style="ellipse;whiteSpace=wrap;html=1;" vertex="1" parent="1">
          <mxGeometry x="60" y="148" width="120" height="80" as="geometry" />
        </mxCell>
        <mxCell id="DzpKq4usoAJbAamXj3DQ-4" value="Contribution" style="ellipse;whiteSpace=wrap;html=1;" vertex="1" parent="1">
          <mxGeometry x="530" y="258" width="120" height="80" as="geometry" />
        </mxCell>
        <mxCell id="DzpKq4usoAJbAamXj3DQ-5" value="Behaviourism" style="rounded=1;whiteSpace=wrap;html=1;" vertex="1" parent="1">
          <mxGeometry x="330" y="158" width="120" height="60" as="geometry" />
        </mxCell>
        <mxCell id="DzpKq4usoAJbAamXj3DQ-6" value="Cognitive Theories" style="rounded=1;whiteSpace=wrap;html=1;" vertex="1" parent="1">
          <mxGeometry x="330" y="248" width="120" height="60" as="geometry" />
        </mxCell>
        <mxCell id="DzpKq4usoAJbAamXj3DQ-7" value="Combined Theories" style="rounded=1;whiteSpace=wrap;html=1;" vertex="1" parent="1">
          <mxGeometry x="330" y="338" width="120" height="60" as="geometry" />
        </mxCell>
        <mxCell id="DzpKq4usoAJbAamXj3DQ-8" value="RQ&lt;sub&gt;2&lt;/sub&gt;: How can a behavioural model be developed to support behavioural monitoring in personal smart environments?&amp;nbsp;" style="ellipse;whiteSpace=wrap;html=1;" vertex="1" parent="1">
          <mxGeometry x="10" y="258" width="250" height="80" as="geometry" />
        </mxCell>
        <mxCell id="DzpKq4usoAJbAamXj3DQ-9" value="Limitations in existing theories and models" style="rounded=1;whiteSpace=wrap;html=1;" vertex="1" parent="1">
          <mxGeometry x="650" y="330" width="120" height="60" as="geometry" />
        </mxCell>
      </root>
    </mxGraphModel>
  </diagram>
</mxfile>
